<svg xmlns="http://www.w3.org/2000/svg" viewBox="0 0 16.8 12.6"><path d="M12.3.9c0 .1 0 .1 0 0-.7 1.3-1.7 3-3 5.4-1.3 2.4-2.3 4.2-3 5.3l-.5.8c-.1.1-.2.2-.3.2-.1 0-.5-.2-1.3-.7-.1-.1-.2-.2-.2-.3 0-.1.1-.3.4-.8-.9-.4-1.7-.9-2.5-1.6C1.4 8.6.7 7.8.2 7c-.1-.2-.2-.5-.2-.7s.1-.5.2-.6c1-1.5 2.1-2.6 3.6-3.5C5.2 1.3 6.8.9 8.5.9c.5 0 1 .1 1.6.2l.5-.9c.1-.1.2-.2.3-.2 0 0 .1 0 .2.1s.2.1.3.1.2.1.3.2c.1.1.2.1.3.2.1.1.2.1.2.1s.1.1.1.2zM5.2 9.8l.7-1.3C5.4 8.1 5 7.6 4.7 7c-.3-.6-.5-1.2-.5-1.9 0-.8.2-1.5.6-2.1-1.5.7-2.6 1.8-3.6 3.3 1 1.6 2.4 2.8 4 3.5zM8.7 3c.1-.1.1-.2.1-.3 0-.1 0-.2-.1-.3-.1-.1-.2-.1-.3-.1-.8 0-1.5.3-2 .8-.6.6-.8 1.2-.8 2 0 .1 0 .2.1.3.1.1.2.2.3.2.1 0 .2 0 .3-.1.1-.1.1-.2.1-.3 0-.5.2-1 .6-1.4s.8-.6 1.4-.6c.1 0 .2-.1.3-.2zm8.1 3.3c0 .2-.1.4-.2.6-.2.4-.6.9-1 1.4-.9 1.1-2 1.9-3.3 2.5-1.2.6-2.5.9-3.9.9l.7-1.2c1.3-.1 2.6-.5 3.7-1.3 1.1-.7 2.1-1.7 2.8-2.9-.7-1.1-1.6-2-2.6-2.8l.6-1.1c.6.4 1.2.9 1.7 1.4.5.6 1 1.1 1.4 1.7.1.4.1.6.1.8zm-4.2-1.2c0 .9-.2 1.7-.7 2.4-.5.7-1.1 1.2-2 1.5l2.6-4.7c.1.3.1.6.1.8z" fill="#333"/></svg>