<svg xmlns="http://www.w3.org/2000/svg" viewBox="0 0 16.8 10.8"><path d="M16.8 5.4c0 .2-.1.4-.2.6-.9 1.4-2.1 2.6-3.5 3.5s-3 1.3-4.7 1.3c-1.6 0-3.2-.4-4.7-1.3S1 7.5.2 6c-.1-.2-.2-.4-.2-.6s.1-.4.2-.6c.9-1.4 2.1-2.6 3.5-3.5C5.2.4 6.8 0 8.4 0s3.2.4 4.7 1.3 2.7 2 3.5 3.5c.2.2.2.4.2.6zm-1.2 0c-1-1.5-2.1-2.6-3.6-3.3.4.7.6 1.4.6 2.1 0 1.2-.4 2.1-1.2 3s-1.8 1.2-3 1.2-2.1-.4-3-1.2c-.8-.8-1.2-1.8-1.2-3 0-.8.2-1.5.6-2.1-1.5.7-2.6 1.8-3.6 3.3.8 1.3 1.9 2.3 3.1 3.1 1.3.7 2.7 1.1 4.1 1.1s2.8-.4 4.1-1.1c1.3-.8 2.3-1.8 3.1-3.1zM8.7 2.1c.1-.1.2-.2.2-.3 0-.1 0-.2-.1-.3-.2-.1-.3-.1-.4-.1-.8 0-1.5.3-2 .8-.6.6-.8 1.2-.8 2 0 .1 0 .2.1.3.1.1.2.2.3.2.1 0 .2 0 .3-.1.1-.1.1-.2.1-.3 0-.5.2-1 .6-1.4s.8-.6 1.4-.6c.1 0 .2-.1.3-.2z" fill="#333"/></svg>