<svg xmlns="http://www.w3.org/2000/svg" width="24" height="24" viewBox="0 0 45.001 45.001"><path d="M22.039 18.379h16.272c.188 0 .362-.11.443-.282.493-1.042.936-2.119.462-2.819-.454-.677-1.562-.954-3.829-.954-1.442 0-3.265.115-5.191.237-2.394.151-5.105.323-7.772.323a.49.49 0 00-.427.247c-.042.074-.415.772-.461 2.436a2.57 2.57 0 00.014.375.492.492 0 00.489.437z"/><path d="M43.447 25.307l.294-.102a.495.495 0 00.319-.367l.309-1.502a.49.49 0 00-.154-.466l-1.633-1.457a.493.493 0 00-.317-.125l-1.986-.04c-.396-.339-1.556-1.335-2.079-1.772a.49.49 0 00-.315-.114H22.852a.493.493 0 00-.463.656c.125.352.38.652.732 1.069.376.444.892 1.052 1.493 2.013.429.688.509 1.392.238 2.097-.427 1.104-1.607 1.964-2.298 2.16-.551.158-1.493.251-2.52.251-1.626 0-3.317-.229-4.76-.646-2.678-.775-3.188-6.793-2.903-7.834.158-.581.862-2.509 1.543-4.373l.504-1.382c.12.084.207.141.213.145a.487.487 0 00.678-.151.492.492 0 00-.151-.679 6.115 6.115 0 01-.392-.279l.262-.74a.2.2 0 01.026.005.484.484 0 00.342.328c.712.174 1.377.413 1.384.416a.493.493 0 00.335-.924c-.029-.01-.719-.259-1.485-.446a.478.478 0 00-.428.108c.125-.38.161-.542.161-.634 0-.917-3.423-2.179-4.489-2.216-.314 0-.589.131-.796.378-.767.915-.357 3.492-.267 4a.49.49 0 00.424.402l1.289.159c-.433 1.377-2.355 5.65-2.764 6.287-.097.14-.744.255-1.055.31-.665.118-1.294.229-1.533.707-.244.489-.225 1.321-.192 1.778-.074-.002-.146-.015-.22-.015a6.414 6.414 0 00-5.535 3.194c-.25.433-.292.85-.126 1.242.174.407.593.756 1.154 1.069a5.443 5.443 0 00-1.197 3.406 5.476 5.476 0 005.469 5.471 5.476 5.476 0 005.469-5.471c0-.146-.011-.292-.022-.438.49.18 1.128.479 1.307.573.179.095.327-.01.358-.157.032-.148.093-.546.108-.83 1.453 1.181 3.012 1.265 5.307 1.265h12.681c.455 2.86 2.931 5.056 5.917 5.056 3.308 0 6-2.69 6-6 0-.177-.012-.351-.026-.522 1.742-.246 2.026-.535 2.162-.676a.704.704 0 00.214-.529c-.039-1.088-1.008-2.785-1.553-3.658zM8.535 31.222c0 1.659-1.35 3.01-3.01 3.01a3.014 3.014 0 01-3.01-3.01c0-1 .495-1.88 1.247-2.429.904.269 1.896.519 2.915.771.525.13 1.055.264 1.574.397.178.388.284.81.284 1.261zm31.654-.532c0 1.953-1.589 3.541-3.541 3.541s-3.54-1.588-3.54-3.541c2.591-.019 5.394-.179 7.052-.286.008.096.029.19.029.286z"/></svg>