<svg xmlns="http://www.w3.org/2000/svg" width="156.395" height="32"><defs><clipPath id="a"><path d="M15.707.246C7 .923 3.156 6.69 3.141 13.038a12.471 12.471 0 0012.5 12.6 6.376 6.376 0 006.2-6.166 6.207 6.207 0 00-6.2-6.433c-4.254-.008-4.649.008-6.354 0a6.44 6.44 0 016.354-6.475A12.447 12.447 0 0128.32 19.472c.045 9.567-9.144 12.765-12.3 12.765A16.019 16.019 0 015.809 3.874 15.054 15.054 0 0115.707.246z" transform="translate(0 -.246)" fill="none" stroke="#707070"/></clipPath><clipPath id="b"><path data-name="Main" d="M28.349.2a15.883 15.883 0 0116.382 15.98 15.837 15.837 0 01-5.214 11.805 16.507 16.507 0 01-11.168 4.205c2.475-.013 12.433-2.833 12.512-12.779S32.345 6.641 28.349 6.715a6.189 6.189 0 00-6.177 6.258c-.021 2.983 2.641 6.455 6.177 6.436s3.872-.009 6.2 0a6.119 6.119 0 01-6.124 6.378c-8.972-.213-12.738-7.387-12.784-12.822S18.95.312 28.349.2z" transform="translate(-15.642 -.196)" fill="none" stroke="#707070"/></clipPath></defs><g data-name="Group 9682"><g data-name="Group 9336"><g transform="translate(0 .009)" clip-path="url(#a)"><g data-name="Group 9333"><path data-name="Path 8984" d="M15.66-.063a15.471 15.471 0 0113.035 6.11c-1.711 1.7-4.9 5-8.694 8.734a7.078 7.078 0 00-4.356-1.894c-.005-7.311.008-5.422.015-12.95z" fill="#eb3a0f"/><path data-name="Path 8985" d="M15.677-.058c.009 3.95-.031 12.936-.031 12.936L6.097 3.223a16.3 16.3 0 019.58-3.281z" fill="#ff5b2e"/><path data-name="Path 8986" d="M6.091 3.193c2.612 2.611 9.573 9.681 9.573 9.681S4.277 12.823.092 12.845c.281-4.546 4.741-8.806 5.999-9.652z" fill="#3877f4"/><path data-name="Path 8987" d="M3.014 25.625C-.984 20.779-.268 14.6.09 12.825c2.412.009 4.148-.045 9.47-.004a7.457 7.457 0 001.833 4.484c-5.16 5.175-2.977 3.028-8.38 8.32z" fill="#ff8764"/><path data-name="Path 8988" d="M15.738 32.121a16.3 16.3 0 01-12.77-6.463c1.681-1.73 4.703-4.598 8.437-8.4a6.907 6.907 0 004.332 1.825c.128 7.313-.123 5.51.001 13.038z" fill="#ff5b2e"/><path data-name="Path 8989" d="M15.681 32.097c-.019-3.915.07-12.94.07-12.94s7.148 7.255 9.7 9.835a14.949 14.949 0 01-9.77 3.105z" fill="#ff4b13"/><path data-name="Path 8990" d="M25.474 29.048c-2.8-2.787-9.782-9.939-9.782-9.939s12.37.096 15.996.113c-.404 4.33-3.788 8.107-6.214 9.826z" fill="#ff6940"/><path data-name="Path 8991" d="M28.69 6a16.012 16.012 0 013.087 13.23c-2.412-.008-4.59.02-9.92-.02a6.382 6.382 0 00-1.924-4.414C25.1 9.623 23.362 11.32 28.69 6z" fill="#ff5b2e"/><path data-name="Path 8992" d="M6.091 3.193c2.612 2.611 9.573 9.681 9.573 9.681S4.277 12.823.092 12.845c.281-4.546 4.741-8.806 5.999-9.652z" fill="#ff5b2e"/><path data-name="Path 8993" d="M15.676-.058c.009 3.95-.031 12.936-.031 12.936S9.312 6.509 6.76 3.935c2.791-2.211 5.974-3.999 8.916-3.993z" fill="#d91a24"/><path data-name="Path 8994" d="M6.821 3.891c2.608 2.615 8.844 8.984 8.844 8.984s-7.995-.05-12.18-.028c.28-4.545 2.077-8.11 3.336-8.956z" fill="#bb0e25"/></g></g><g transform="translate(2.948)" clip-path="url(#b)"><g data-name="Group 9334"><path data-name="Path 8984" d="M12.712-.054a15.471 15.471 0 0113.035 6.11c-1.711 1.7-4.9 5-8.694 8.734a7.078 7.078 0 00-4.356-1.894c-.005-7.311.008-5.422.015-12.95z" fill="#ff5b2e"/><path data-name="Path 8985" d="M12.729-.049c.009 3.95-.031 12.936-.031 12.936L3.149 3.232a16.3 16.3 0 019.58-3.281z" fill="#ff4b13"/><path data-name="Path 8986" d="M3.143 3.202c2.612 2.611 9.573 9.681 9.573 9.681s-11.387-.051-15.572-.029c.281-4.546 4.741-8.806 5.999-9.652z" fill="#ff6940"/><path data-name="Path 8987" d="M.066 25.634c-3.998-4.846-3.282-11.025-2.924-12.8 2.412.009 4.148-.045 9.47-.004a7.457 7.457 0 001.833 4.484c-5.16 5.175-2.977 3.028-8.38 8.32z" fill="#ff5b2e"/><path data-name="Path 8988" d="M12.79 32.13A16.3 16.3 0 01.02 25.667c1.681-1.73 4.703-4.598 8.437-8.4a6.907 6.907 0 004.332 1.825c.128 7.313-.123 5.51.001 13.038z" fill="#ff4b13"/><path data-name="Path 8989" d="M12.806 32.059c-.009-3.95 0-12.892 0-12.892s7.183 7.278 9.735 9.854a14.792 14.792 0 01-9.735 3.038z" fill="#ff6940"/><path data-name="Path 8990" d="M22.56 29.03c-2.8-2.787-9.817-9.912-9.817-9.912s12.371.095 15.997.112c-.403 4.332-3.754 8.08-6.18 9.8z" fill="#ff8764"/><path data-name="Path 8991" d="M25.742 6.009a16.012 16.012 0 013.087 13.23c-2.412-.008-4.59.02-9.92-.02a6.382 6.382 0 00-1.924-4.414c5.167-5.173 3.429-3.476 8.757-8.796z" fill="#ff7952"/><path data-name="Path 8995" d="M21.377 27.87c-2.8-2.786-8.638-8.756-8.638-8.756s8.606.1 12.232.116c-.405 4.33-1.162 6.926-3.594 8.64z" fill="#bb0e25"/><path data-name="Path 8996" d="M12.805 31.87c-.009-3.95 0-12.7 0-12.7s6.123 6.238 8.675 8.813a16.056 16.056 0 01-8.675 3.887z" fill="#d91a24"/></g></g></g><g data-name="Ember Logo - Dark - Vertical"><text data-name="Ember Logo Text" transform="translate(102.395 23.34)" fill="#fff" font-size="20" font-family="Roboto-Light, Roboto" font-weight="300" letter-spacing=".3em"><tspan x="-53.63" y="0">SITARRI</tspan></text></g></g></svg>