<svg xmlns="http://www.w3.org/2000/svg" width="115.548" height="29.007"><defs><clipPath id="a"><path d="M14.238.246c-7.9.613-11.377 5.842-11.391 11.6a11.306 11.306 0 0011.335 11.419 5.78 5.78 0 005.62-5.59 5.627 5.627 0 00-5.62-5.832c-3.857-.007-4.215.007-5.76 0a5.838 5.838 0 015.76-5.869 11.283 11.283 0 0111.491 11.7c.041 8.674-8.289 11.57-11.152 11.57A14.522 14.522 0 015.263 3.535 13.649 13.649 0 0114.238.246z" transform="translate(.001 -.245)" fill="none" stroke="#707070"/></clipPath><clipPath id="b"><path data-name="Main" d="M27.161.2a14.4 14.4 0 0114.852 14.486 14.357 14.357 0 01-4.726 10.7A14.965 14.965 0 0127.161 29.2c2.239-.012 11.273-2.568 11.339-11.585S30.784 6.039 27.161 6.109a5.611 5.611 0 00-5.6 5.671c-.019 2.7 2.394 5.852 5.6 5.835s3.51-.008 5.622 0a5.547 5.547 0 01-5.552 5.785 11.518 11.518 0 01-11.59-11.624C15.6 6.845 18.641.3 27.161.2z" transform="translate(-15.641 -.197)" fill="none" stroke="#707070"/></clipPath></defs><g data-name="Group 4"><g data-name="Group 9691"><g data-name="Ember Logo - Dark - Vertical"><text data-name="Ember Logo Text" transform="translate(34.548 20.782)" font-size="15" font-family="Roboto-Light, Roboto" font-weight="300" letter-spacing=".3em"><tspan x="0" y="0">SITARRI</tspan></text></g><g data-name="Group 9419"><g transform="translate(0 .007)" clip-path="url(#a)"><g data-name="Group 9333"><path data-name="Path 8984" d="M14.198-.058a14.025 14.025 0 0111.816 5.539c-1.551 1.542-4.44 4.531-7.882 7.919a6.416 6.416 0 00-3.949-1.717c-.006-6.628.008-4.914.015-11.741z" fill="#eb3a0f"/><path data-name="Path 8985" d="M14.213-.053c.008 3.581-.028 11.727-.028 11.727S7.842 5.256 5.528 2.921a14.779 14.779 0 018.685-2.974z" fill="#ff5b2e"/><path data-name="Path 8986" d="M5.523 2.895c2.364 2.371 8.679 8.776 8.679 8.776S3.879 11.625.085 11.646c.254-4.123 4.297-7.984 5.438-8.751z" fill="#3877f4"/><path data-name="Path 8987" d="M2.734 23.232C-.894 18.839-.242 13.236.083 11.627c2.186.008 3.758-.043 8.586-.005a6.761 6.761 0 001.66 4.072c-4.68 4.688-2.699 2.739-7.595 7.538z" fill="#ff7952"/><path data-name="Path 8988" d="M14.268 29.12a14.773 14.773 0 01-11.576-5.86c1.523-1.566 4.262-4.167 7.646-7.614a6.262 6.262 0 003.93 1.657c.115 6.627-.113 4.993 0 11.817z" fill="#ff5b2e"/><path data-name="Path 8989" d="M14.217 29.098c-.017-3.549.063-11.73.063-11.73s6.48 6.58 8.794 8.915a13.552 13.552 0 01-8.857 2.815z" fill="#ff4b13"/><path data-name="Path 8990" d="M23.091 26.33c-2.538-2.526-8.868-9.009-8.868-9.009s11.219.09 14.503.102c-.363 3.93-3.432 7.351-5.635 8.908z" fill="#ff6940"/><path data-name="Path 8991" d="M26.01 5.439a14.516 14.516 0 012.8 11.993c-2.187-.005-4.162.02-8.99-.02a5.775 5.775 0 00-1.742-4.004c4.68-4.687 3.106-3.143 7.932-7.969z" fill="#ff5b2e"/><path data-name="Path 8992" d="M5.523 2.895c2.364 2.371 8.679 8.776 8.679 8.776S3.879 11.625.085 11.646c.254-4.123 4.297-7.984 5.438-8.751z" fill="#ff8764"/><path data-name="Path 8993" d="M14.213-.053c.008 3.581-.028 11.727-.028 11.727S8.443 5.902 6.129 3.565c2.532-2.003 5.419-3.623 8.084-3.618z" fill="#d91a24"/><path data-name="Path 8994" d="M6.185 3.527c2.364 2.371 8.017 8.144 8.017 8.144s-7.248-.047-11.04-.026c.252-4.122 1.882-7.351 3.023-8.118z" fill="#bb0e25"/></g></g><g transform="translate(2.673)" clip-path="url(#b)"><g data-name="Group 9334"><path data-name="Path 8984" d="M11.525-.05a14.025 14.025 0 0111.816 5.539c-1.551 1.542-4.44 4.531-7.882 7.919a6.416 6.416 0 00-3.949-1.717c-.006-6.628.008-4.914.015-11.741z" fill="#ff5b2e"/><path data-name="Path 8985" d="M11.54-.045c.008 3.581-.028 11.727-.028 11.727S5.169 5.264 2.855 2.929A14.779 14.779 0 0111.54-.045z" fill="#ff4b13"/><path data-name="Path 8986" d="M2.85 2.903c2.364 2.371 8.679 8.776 8.679 8.776s-10.323-.046-14.117-.025c.254-4.123 4.297-7.984 5.438-8.751z" fill="#ff6940"/><path data-name="Path 8987" d="M.06 23.24c-3.627-4.393-2.975-9.996-2.65-11.605 2.186.008 3.758-.043 8.586-.005a6.761 6.761 0 001.66 4.072C2.975 20.39 4.956 18.441.06 23.24z" fill="#ff5b2e"/><path data-name="Path 8988" d="M11.595 29.128a14.773 14.773 0 01-11.576-5.86c1.523-1.566 4.262-4.167 7.646-7.614a6.262 6.262 0 003.93 1.657c.115 6.627-.113 4.993 0 11.817z" fill="#eb3a0f"/><path data-name="Path 8989" d="M11.609 29.064c-.008-3.581 0-11.688 0-11.688s6.512 6.598 8.826 8.933a13.41 13.41 0 01-8.826 2.755z" fill="#ff6940"/><path data-name="Path 8990" d="M20.448 26.314c-2.538-2.526-8.898-8.986-8.898-8.986s11.218.091 14.505.106c-.365 3.927-3.404 7.324-5.607 8.88z" fill="#ff8764"/><path data-name="Path 8991" d="M23.337 5.447a14.516 14.516 0 012.8 11.993c-2.187-.005-4.162.02-8.99-.02a5.775 5.775 0 00-1.742-4.004c4.68-4.687 3.106-3.143 7.932-7.969z" fill="#ff7952"/><path data-name="Path 8995" d="M19.38 25.264c-2.539-2.526-7.83-7.937-7.83-7.937s7.802.092 11.089.107c-.366 3.926-1.056 6.277-3.26 7.83z" fill="#bb0e25"/><path data-name="Path 8996" d="M11.61 28.893c-.008-3.581 0-11.517 0-11.517s5.55 5.658 7.864 7.993a14.555 14.555 0 01-7.864 3.524z" fill="#d91a24"/></g></g></g></g></g></svg>