<svg xmlns="http://www.w3.org/2000/svg" width="24" height="24" viewBox="0 0 24 24"><g transform="translate(0 0.346)"><circle cx="12" cy="12" r="12" transform="translate(0 -0.346)" fill="#ffecd1"/><path d="M4.5,6.056H6.056V4.5A1.56,1.56,0,0,0,4.5,6.056Zm0,6.222H6.056V10.722H4.5ZM7.611,18.5H9.167V16.944H7.611ZM4.5,9.167H6.056V7.611H4.5ZM12.278,4.5H10.722V6.056h1.556Zm4.667,0V6.056H18.5A1.56,1.56,0,0,0,16.944,4.5ZM6.056,18.5V16.944H4.5A1.56,1.56,0,0,0,6.056,18.5ZM4.5,15.389H6.056V13.833H4.5ZM9.167,4.5H7.611V6.056H9.167Zm1.556,14h1.556V16.944H10.722Zm6.222-6.222H18.5V10.722H16.944Zm0,6.222A1.56,1.56,0,0,0,18.5,16.944H16.944Zm0-9.333H18.5V7.611H16.944Zm0,6.222H18.5V13.833H16.944ZM13.833,18.5h1.556V16.944H13.833Zm0-12.444h1.556V4.5H13.833ZM7.611,15.389h7.778V7.611H7.611ZM9.167,9.167h4.667v4.667H9.167Z" transform="translate(0.5 0.154)" fill="#f92"/></g></svg>