<svg xmlns="http://www.w3.org/2000/svg" width="24" height="24" viewBox="0 0 24 24"><g transform="translate(0 0.346)"><circle cx="12" cy="12" r="12" transform="translate(0 -0.346)" fill="#ffecd1"/><g transform="translate(4 4)"><path d="M11.514,3A4.011,4.011,0,0,0,7.5,7.014c0,3.01,4.014,7.454,4.014,7.454s4.014-4.444,4.014-7.454A4.011,4.011,0,0,0,11.514,3Zm0,5.447a1.433,1.433,0,1,1,1.433-1.433A1.434,1.434,0,0,1,11.514,8.447Z" transform="translate(-7.5 2.492)" fill="#f92"/><path d="M9.957,3A2.455,2.455,0,0,0,7.5,5.457c0,1.843,2.457,4.563,2.457,4.563S12.414,7.3,12.414,5.457A2.455,2.455,0,0,0,9.957,3Zm0,3.335a.878.878,0,1,1,.878-.878A.878.878,0,0,1,9.957,6.335Z" transform="translate(3.585 -3)" fill="#f92"/><path d="M0,9.556s3.619-1.15,4.381-2.591S4.176,4.1,5.224,2.53A8.79,8.79,0,0,1,8.792,0" transform="translate(4.53 7.212)" fill="none" stroke="#f92" stroke-linecap="round" stroke-width="0.75" stroke-dasharray="1.5"/></g></g></svg>