<svg xmlns="http://www.w3.org/2000/svg" xmlns:xlink="http://www.w3.org/1999/xlink" width="32" height="31.963" viewBox="0 0 32 31.963">
  <defs>
    <clipPath id="clip-path">
      <path id="Main" d="M15.689.246C6.989.922,3.153,6.683,3.137,13.024a12.457,12.457,0,0,0,12.49,12.584,6.368,6.368,0,0,0,6.192-6.158,6.2,6.2,0,0,0-6.192-6.426c-4.249-.008-4.644.008-6.346,0a6.433,6.433,0,0,1,6.346-6.467A12.432,12.432,0,0,1,28.288,19.45C28.332,29.005,19.155,32.2,16,32.2A16,16,0,0,1,5.8,3.87,15.036,15.036,0,0,1,15.689.246Z" transform="translate(0 -0.246)" fill="none" stroke="#707070" stroke-width="1"/>
    </clipPath>
    <clipPath id="clip-path-2">
      <path id="Main-2" data-name="Main" d="M28.334.2A15.865,15.865,0,0,1,44.7,16.159,15.819,15.819,0,0,1,39.49,27.951a16.488,16.488,0,0,1-11.155,4.2c2.472-.013,12.419-2.829,12.5-12.764s-8.506-12.754-12.5-12.68a6.182,6.182,0,0,0-6.17,6.251c-.02,2.979,2.638,6.448,6.17,6.429s3.868-.009,6.194,0a6.112,6.112,0,0,1-6.117,6.37c-8.962-.212-12.723-7.378-12.769-12.807S18.946.312,28.334.2Z" transform="translate(-15.642 -0.196)" fill="none" stroke="#707070" stroke-width="1"/>
    </clipPath>
  </defs>
  <g id="Group_9690" data-name="Group 9690" transform="translate(-108.001 -832.021)">
    <g id="Logo_-_no_text" data-name="Logo - no text" transform="translate(-960 82)">
      <g id="Group_9420" data-name="Group 9420" transform="translate(1068.001 750.021)">
        <g id="Bottom" transform="translate(0 0.009)" clip-path="url(#clip-path)">
          <g id="Group_9333" data-name="Group 9333" transform="translate(-4.842 -0.07)">
            <path id="Path_8984" data-name="Path 8984" d="M85.028-.316a15.453,15.453,0,0,1,13.02,6.1c-1.709,1.7-4.892,4.992-8.684,8.724a7.07,7.07,0,0,0-4.351-1.892C85.008,5.317,85.021,7.2,85.028-.316Z" transform="translate(-64.544 0.323)" fill="#eb3a0f"/>
            <path id="Path_8985" data-name="Path 8985" d="M41.918-.067c.009,3.946-.031,12.921-.031,12.921S34.9,5.782,32.349,3.209A16.283,16.283,0,0,1,41.918-.067Z" transform="translate(-21.417 0.079)" fill="#ff5b2e"/>
            <path id="Path_8986" data-name="Path 8986" d="M6.481,17.189c2.6,2.612,9.562,9.67,9.562,9.67S4.669,26.808.489,26.83C.77,22.289,5.224,18.034,6.481,17.189Z" transform="translate(4.445 -13.93)" fill="#3877f4"/>
            <path id="Path_8987" data-name="Path 8987" d="M.053,0c6.246.6,10.1,5.469,11.1,6.975-1.709,1.7-2.892,2.962-6.685,6.694A7.449,7.449,0,0,0,.01,11.794C0,4.492-.025,7.554.053,0Z" transform="translate(7.89 25.702) rotate(-135)" fill="#ff7952"/>
            <path id="Path_8988" data-name="Path 8988" d="M.227,0a16.277,16.277,0,0,1,12.64,6.677c-1.709,1.7-4.776,4.51-8.568,8.242a6.9,6.9,0,0,0-4.3-1.9C0,5.715.22,7.52.227,0Z" transform="translate(20.789 32.15) rotate(179)" fill="#ff5b2e"/>
            <path id="Path_8989" data-name="Path 8989" d="M9.759.015c.019,3.91-.07,12.925-.07,12.925S2.55,5.69,0,3.117A14.931,14.931,0,0,1,9.759.015Z" transform="translate(30.264 32.145) rotate(180)" fill="#ff4b13"/>
            <path id="Path_8990" data-name="Path 8990" d="M11.329.2c.009,3.946-.111,13.928-.111,13.928S2.55,5.324,0,2.751C3.344-.023,8.4-.3,11.329.2Z" transform="translate(38.439 21.214) rotate(135)" fill="#ff6940"/>
            <path id="Path_8991" data-name="Path 8991" d="M0,0A15.993,15.993,0,0,1,11.525,7.163C9.816,8.862,8.3,10.419,4.5,14.151A6.375,6.375,0,0,0,.028,12.393C.023,5.091-.006,7.52,0,0Z" transform="translate(33.5 6.063) rotate(45)" fill="#ff5b2e"/>
            <path id="Path_8992" data-name="Path 8992" d="M6.481,17.189c2.6,2.612,9.562,9.67,9.562,9.67S4.669,26.808.489,26.83C.77,22.289,5.224,18.034,6.481,17.189Z" transform="translate(4.445 -13.93)" fill="#ff8764"/>
            <path id="Path_8993" data-name="Path 8993" d="M44.774-.067c.009,3.946-.031,12.921-.031,12.921s-6.326-6.359-8.876-8.932C38.656,1.713,41.836-.073,44.774-.067Z" transform="translate(-24.274 0.079)" fill="#d91a24"/>
            <path id="Path_8994" data-name="Path 8994" d="M21.822,20.889c2.6,2.612,8.833,8.973,8.833,8.973s-7.986-.05-12.166-.028C18.77,25.292,20.565,21.734,21.822,20.889Z" transform="translate(-10.166 -16.933)" fill="#bb0e25"/>
          </g>
        </g>
        <g id="Top" transform="translate(2.944 0)" clip-path="url(#clip-path-2)">
          <g id="Group_9334" data-name="Group 9334" transform="translate(-7.787 -0.061)">
            <path id="Path_8984-2" data-name="Path 8984" d="M85.028-.316a15.453,15.453,0,0,1,13.02,6.1c-1.709,1.7-4.892,4.992-8.684,8.724a7.07,7.07,0,0,0-4.351-1.892C85.008,5.317,85.021,7.2,85.028-.316Z" transform="translate(-64.544 0.323)" fill="#ff5b2e"/>
            <path id="Path_8985-2" data-name="Path 8985" d="M41.918-.067c.009,3.946-.031,12.921-.031,12.921S34.9,5.782,32.349,3.209A16.283,16.283,0,0,1,41.918-.067Z" transform="translate(-21.417 0.079)" fill="#ff4b13"/>
            <path id="Path_8986-2" data-name="Path 8986" d="M6.481,17.189c2.6,2.612,9.562,9.67,9.562,9.67S4.669,26.808.489,26.83C.77,22.289,5.224,18.034,6.481,17.189Z" transform="translate(4.445 -13.93)" fill="#ff6940"/>
            <path id="Path_8987-2" data-name="Path 8987" d="M.053,0c6.246.6,10.1,5.469,11.1,6.975-1.709,1.7-2.892,2.962-6.685,6.694A7.449,7.449,0,0,0,.01,11.794C0,4.492-.025,7.554.053,0Z" transform="translate(7.89 25.702) rotate(-135)" fill="#ff5b2e"/>
            <path id="Path_8988-2" data-name="Path 8988" d="M.227,0a16.277,16.277,0,0,1,12.64,6.677c-1.709,1.7-4.776,4.51-8.568,8.242a6.9,6.9,0,0,0-4.3-1.9C0,5.715.22,7.52.227,0Z" transform="translate(20.789 32.15) rotate(179)" fill="#eb3a0f"/>
            <path id="Path_8989-2" data-name="Path 8989" d="M9.724.016c.009,3.946,0,12.877,0,12.877S2.55,5.623,0,3.051A14.775,14.775,0,0,1,9.724.016Z" transform="translate(30.302 32.099) rotate(180)" fill="#ff6940"/>
            <path id="Path_8990-2" data-name="Path 8990" d="M11.287.2c.009,3.946-.068,13.933-.068,13.933S2.55,5.328,0,2.756C3.344-.019,8.359-.3,11.287.2Z" transform="translate(38.442 21.218) rotate(135)" fill="#ff8764"/>
            <path id="Path_8991-2" data-name="Path 8991" d="M0,0A15.993,15.993,0,0,1,11.525,7.163C9.816,8.862,8.3,10.419,4.5,14.151A6.375,6.375,0,0,0,.028,12.393C.023,5.091-.006,7.52,0,0Z" transform="translate(33.5 6.063) rotate(45)" fill="#ff7952"/>
            <path id="Path_8995" data-name="Path 8995" d="M8.641.106c.009,3.946-.084,12.284-.084,12.284S2.55,6.244,0,3.671C3.344.9,5.713-.4,8.641.106Z" transform="translate(35.325 21.865) rotate(135)" fill="#bb0e25"/>
            <path id="Path_8996" data-name="Path 8996" d="M8.665,0c.009,3.946,0,12.689,0,12.689S2.55,6.455,0,3.882A16.037,16.037,0,0,1,8.665,0Z" transform="translate(29.243 31.894) rotate(180)" fill="#d91a24"/>
          </g>
        </g>
      </g>
    </g>
  </g>
</svg>
