<svg xmlns="http://www.w3.org/2000/svg" width="18" height="12.483" viewBox="0 0 18 12.483">
  <path id="food-bike-delivery" d="M12.024,1.073h5.186a.361.361,0,0,1,.36.36V4.452H17.6a.4.4,0,0,1,.4.4V5.29a.4.4,0,0,1-.4.4H14.814c2.068.185,3.25,2.107,3.122,4.608H16.1a2.185,2.185,0,0,1-4.371,0H6.106c0-.039,0-.078,0-.117a5.793,5.793,0,0,1-.05.847l-4.9-2.31L0,8.176A3.3,3.3,0,0,1,3.392,6.986a5.451,5.451,0,0,1,.59.184,5.154,5.154,0,0,0-.6-.188l1.54-5.076-.7-.013h0c-.144,0-.3.037-.4-.034a.523.523,0,0,1-.42-.268,1.046,1.046,0,0,1-.148-.554A1.047,1.047,0,0,1,3.407.482.573.573,0,0,1,3.7.237.144.144,0,0,1,3.7.193c.164-.262.484-.183.768-.183l.277.018a1.575,1.575,0,0,1,.586.2l.317.178h.257L6.77.572c.281.054.322.031.256.378a1,1,0,0,1-.034.131c-.085.254-.152.159-.415.1L5.77,1.018a3.281,3.281,0,0,1-.217,1.189A1.341,1.341,0,0,1,5.908,3.9l-.77,2.375c1.292.917,2.069,1.747,2.113,3.107H8.96c1.054-.8.878-2.219-.276-3.127V5.692h0V4.837c0-.27.146-.393.416-.385h2.564V1.433a.361.361,0,0,1,.36-.36ZM1.158,8.723l1.948.922-.633-.29a.962.962,0,1,0,1.05.488l1.329.63a2.185,2.185,0,1,1-3.695-1.75ZM3.7.614c.009.281.027.643.041.886a.349.349,0,0,1-.068-.08.726.726,0,0,1-.1-.384.727.727,0,0,1,.1-.384A.41.41,0,0,1,3.7.614ZM12.949,10.3h1.924a.962.962,0,0,1-1.924,0Z" transform="translate(0 0.001)" fill="#09253f" fill-rule="evenodd"/>
</svg>
