<svg xmlns="http://www.w3.org/2000/svg" xmlns:xlink="http://www.w3.org/1999/xlink" width="208.726" height="159.763" viewBox="0 0 208.726 159.763"><defs><filter id="a" x="3.991" y="4.313" width="204.734" height="155.45" filterUnits="userSpaceOnUse"><feOffset dy="3" input="SourceAlpha"/><feGaussianBlur stdDeviation="20" result="b"/><feFlood flood-color="#7090b0" flood-opacity="0.2"/><feComposite operator="in" in2="b"/><feComposite in="SourceGraphic"/></filter></defs><g transform="translate(-8537 -5192.728)"><g transform="translate(8600.991 5254.041)"><g transform="matrix(1, 0, 0, 1, -63.99, -61.31)" filter="url(#a)"><path d="M17.724,0H67.008a17.725,17.725,0,1,1,0,35.449H17.724A17.725,17.725,0,1,1,17.724,0Z" transform="translate(63.99 61.31)" fill="#647ede"/></g><path d="M12.646-11.031H4.908v8.144H2.476V-21.328H13.9v2H4.908v6.307h7.738Zm10.93.684H19.245v7.46H16.8V-21.328h6.1A7.219,7.219,0,0,1,27.7-19.91a5.1,5.1,0,0,1,1.678,4.129,4.964,4.964,0,0,1-.931,3,5.559,5.559,0,0,1-2.59,1.912l4.334,7.829v.152H27.579Zm-4.331-1.988h3.736a4.217,4.217,0,0,0,2.882-.937,3.167,3.167,0,0,0,1.07-2.508,3.335,3.335,0,0,0-1.022-2.62,4.322,4.322,0,0,0-2.942-.929H19.245Zm23.963.925H35.217v6.536H44.5v1.988H32.785V-21.328H44.374v2H35.217V-13.4h7.992Zm14.743,0H49.959v6.536h9.284v1.988H47.528V-21.328H59.116v2H49.959V-13.4H57.95Z" transform="translate(11.77 29.69)" fill="#fff" stroke="rgba(0,0,0,0)" stroke-width="1"/></g><g transform="translate(8567.499 5218.925)"><path d="M12.366-.6a4.575,4.575,0,0,1,2.315,2.416c.742,1.8-.1,3.185,1.05,5.175s3.985,1.6,5.314,4c.575,1.043.135,2.122,0,3.444a14.364,14.364,0,0,0,0,2.142" transform="translate(20.09 0.771)" fill="none" stroke="#e3509c" stroke-width="1"/><path d="M0,5.923s6.045,3.151,10.862,0c1.486-.81,2.08-3.942.546-5.226s-6.493-1.99-7.57,3.538c-.565,2.9.68,6.589,3.457,9.514a14.272,14.272,0,0,0,8.392,4.067,8.377,8.377,0,0,0,5.393-1.335" transform="translate(45.92 3.727)" fill="none" stroke="#04b9ba" stroke-width="1"/><path d="M12.045-1.27A6.13,6.13,0,0,1,13.9.356c.721.91,1.582,2.66,2.787,3.6A6.476,6.476,0,0,0,20.759,5.51" transform="translate(-8.544 34.354)" fill="none" stroke="#e3d46e" stroke-width="1"/><path d="M.5,17.193s3.123.822,5.329-.958S6.9,12.44,9.126,10.8s3.825.291,5.447-1.015.438-3.961,2.5-5.768,5.522-1.4,5.522-1.4" transform="translate(-0.5 53.069)" fill="none" stroke="#e0529d" stroke-width="1"/><path d="M13.1-.772A11.841,11.841,0,0,1,18.362,5.24c1.316,3.957,0,9.815,0,9.815" transform="translate(84.272 0.772)" fill="none" stroke="#e3c92c" stroke-width="1"/><path d="M13.12-.869c-.024.3.072.4,1.172,1.167s2.669.73,3.053,2.607-1.524,1.9-1.7,4.936,8.562,5.44,8.562,5.44" transform="translate(57.607 25.462)" fill="none" stroke="#a4d8d9" stroke-width="1"/><path d="M12.976-.772a8.995,8.995,0,0,1,3.108,1.935A5.317,5.317,0,0,1,17.667,4.8c-.078,3.244-2.4,6.8-5.738,7.257S7.52,9.923,8.195,8.83s3.607-1.171,4.781,1.485c1.241,2.334.335,4.281-1.048,6.225A7.557,7.557,0,0,1,6.4,19.656c-2.236.284-3.373-.764-3.578-1.689s1.008-1.15,1.008-1.15" transform="translate(108.099 12.623)" fill="none" stroke="#03b9b9" stroke-width="1"/><path d="M14.859.52a4.483,4.483,0,0,1-2.12,1.171c-.873.263-2.742.287-3.331,1.029-1.229,1.55.027,4.007-.831,5.3s-3.1.052-4.536,1.374.353,2.379-1.2,3.917C1.9,14.24.2,14.13-1.251,14.452c-.45.1-.95.785-.95.785" transform="translate(119.021 49.144)" fill="none" stroke="#df529d" stroke-width="1"/><path d="M.892-.012,4.584.839,2.953,3.79-.625,2.946Z" transform="translate(6.922 79.27)" fill="#e499c5"/><path d="M1.516,0,5.207.851,3.578,3.8,0,2.958Z" transform="translate(142.224 66.085) rotate(53.989)" fill="#e388bb"/><path d="M1.516,0,5.207.851,3.578,3.8,0,2.958Z" transform="translate(101.533 28.154) rotate(113.003)" fill="#deabcf"/><path d="M1.516,0,5.207.851,3.578,3.8,0,2.958Z" transform="translate(95.278 17.899) rotate(3)" fill="#e1e1d3"/></g><rect width="208" height="130" transform="translate(8537 5192.728)" fill="none"/></g></svg>