<svg xmlns="http://www.w3.org/2000/svg" xmlns:xlink="http://www.w3.org/1999/xlink" width="252.618" height="175.483" viewBox="0 0 252.618 175.483"><defs><filter id="a" x="0" y="0" width="252.618" height="175.483" filterUnits="userSpaceOnUse"><feOffset dy="3" input="SourceAlpha"/><feGaussianBlur stdDeviation="20" result="b"/><feFlood flood-color="#7090b0" flood-opacity="0.2"/><feComposite operator="in" in2="b"/><feComposite in="SourceGraphic"/></filter></defs><g transform="translate(-8548.42 -5223.69)"><g transform="translate(8608.42 5280.69)"><g transform="matrix(1, 0, 0, 1, -60, -57)" filter="url(#a)"><path d="M27.741,0h77.135a27.741,27.741,0,0,1,0,55.483H27.741A27.741,27.741,0,0,1,27.741,0Z" transform="translate(60 57)" fill="#647ede"/></g><path d="M18.393-5.212H6.282V7.534H2.476V-21.328h17.88V-18.2H6.282v9.872H18.393ZM35.5-4.142H28.722V7.534H24.9V-21.328H34.45q4.876,0,7.5,2.22a7.988,7.988,0,0,1,2.627,6.462,7.77,7.77,0,0,1-1.457,4.7,8.7,8.7,0,0,1-4.054,2.993L45.849,7.3v.238H41.765ZM28.722-7.254h5.848a6.6,6.6,0,0,0,4.51-1.467,4.956,4.956,0,0,0,1.675-3.925,5.219,5.219,0,0,0-1.6-4.1A6.765,6.765,0,0,0,34.55-18.2H28.722ZM66.227-5.807H53.719V4.422h14.53V7.534H49.913V-21.328H68.051V-18.2H53.719v9.277H66.227Zm23.074,0H76.793V4.422h14.53V7.534H72.987V-21.328H91.125V-18.2H76.793v9.277H89.3Z" transform="translate(19.82 34.416)" fill="#fff" stroke="rgba(0,0,0,0)" stroke-width="1"/></g><g transform="translate(8555.998 5225.728)"><path d="M12.366-.6a7.161,7.161,0,0,1,3.623,3.781c1.162,2.817-.155,4.985,1.643,8.1s6.237,2.508,8.317,6.259c.9,1.632.212,3.321,0,5.391a22.482,22.482,0,0,0,0,3.353" transform="translate(38.434 0.867)" fill="none" stroke="#e3509c" stroke-width="1"/><path d="M0,9.387s9.461,4.932,17,0c2.325-1.268,3.255-6.17.855-8.18S7.693-1.908,6.007,6.744c-.884,4.533,1.065,10.312,5.41,14.89A22.337,22.337,0,0,0,24.551,28a13.111,13.111,0,0,0,8.44-2.09" transform="translate(71.873 5.717)" fill="none" stroke="#04b9ba" stroke-width="1"/><path d="M12.045-1.27a9.594,9.594,0,0,1,2.9,2.545c1.128,1.424,2.476,4.163,4.362,5.63a10.135,10.135,0,0,0,6.376,2.436" transform="translate(-6.563 53.051)" fill="none" stroke="#e3d46e" stroke-width="1"/><path d="M.5,25.45s4.888,1.286,8.34-1.5S10.52,18.012,14,15.45s5.987.455,8.525-1.589.685-6.2,3.912-9.028,8.643-2.19,8.643-2.19" transform="translate(-0.498 84.519)" fill="none" stroke="#e0529d" stroke-width="1"/><path d="M13.1-.772s6.177,3.216,8.236,9.41S21.34,24,21.34,24" transform="translate(139.301 0.772)" fill="none" stroke="#e3c92c" stroke-width="1"/><path d="M13.122-.869c-.037.477.112.623,1.835,1.827s4.178,1.142,4.779,4.08-2.385,2.976-2.654,7.725,13.4,8.514,13.4,8.514" transform="translate(97.577 39.36)" fill="none" stroke="#a4d8d9" stroke-width="1"/><path d="M18.727-.772a14.078,14.078,0,0,1,4.864,3.028,8.322,8.322,0,0,1,2.477,5.7c-.122,5.078-3.749,10.649-8.981,11.358s-6.9-3.347-5.844-5.058,5.646-1.833,7.483,2.324c1.943,3.653.525,6.7-1.64,9.743A11.828,11.828,0,0,1,8.437,31.2c-3.5.444-5.279-1.195-5.6-2.643s1.577-1.8,1.577-1.8" transform="translate(170.772 19.32)" fill="none" stroke="#03b9b9" stroke-width="1"/><path d="M24.5.52a7.017,7.017,0,0,1-3.318,1.832c-1.366.412-4.291.449-5.213,1.61-1.924,2.426.043,6.272-1.3,8.293s-4.855.081-7.1,2.151.552,3.723-1.883,6.131c-1.473,1.457-4.122,1.284-6.4,1.789-.705.163-1.487,1.229-1.487,1.229" transform="translate(185.04 77.211)" fill="none" stroke="#df529d" stroke-width="1"/><path d="M1.749-.012,7.527,1.32,4.975,5.939l-5.6-1.322Z" transform="translate(10.482 124.061)" fill="#e499c5"/><path d="M2.372,0,8.15,1.332,5.6,5.951,0,4.629Z" transform="matrix(0.588, 0.809, -0.809, 0.588, 222.6, 103.432)" fill="#e388bb"/><path d="M2.372,0,8.15,1.332,5.6,5.951,0,4.629Z" transform="matrix(-0.391, 0.921, -0.921, -0.391, 158.913, 44.065)" fill="#deabcf"/><path d="M2.372,0,8.15,1.332,5.6,5.951,0,4.629Z" transform="translate(149.123 28.014) rotate(3)" fill="#e1e1d3"/></g></g></svg>