<svg xmlns="http://www.w3.org/2000/svg" xmlns:xlink="http://www.w3.org/1999/xlink" width="287.812" height="250.35" viewBox="0 0 287.812 250.35"><defs><filter id="a" x="64.083" y="97.471" width="159.641" height="148.202" filterUnits="userSpaceOnUse"><feOffset dy="3" input="SourceAlpha"/><feGaussianBlur stdDeviation="20" result="b"/><feFlood flood-color="#7090b0" flood-opacity="0.2"/><feComposite operator="in" in2="b"/><feComposite in="SourceGraphic"/></filter><filter id="c" x="0" y="0" width="287.812" height="225.002" filterUnits="userSpaceOnUse"><feOffset dy="3" input="SourceAlpha"/><feGaussianBlur stdDeviation="20" result="d"/><feFlood flood-color="#7090b0" flood-opacity="0.2"/><feComposite operator="in" in2="d"/><feComposite in="SourceGraphic"/></filter><filter id="e" x="45.825" y="124.261" width="196.155" height="126.089" filterUnits="userSpaceOnUse"><feOffset dy="3" input="SourceAlpha"/><feGaussianBlur stdDeviation="20" result="f"/><feFlood flood-color="#7090b0" flood-opacity="0.2"/><feComposite operator="in" in2="f"/><feComposite in="SourceGraphic"/></filter><linearGradient id="g" x1="0.5" y1="-0.011" x2="0.5" y2="0.996" gradientUnits="objectBoundingBox"><stop offset="0" stop-color="#fff"/><stop offset="1" stop-color="#fff" stop-opacity="0"/></linearGradient><clipPath id="i"><circle cx="18.391" cy="18.391" r="18.391" transform="translate(0 26.008) rotate(-45)" fill="none"/></clipPath></defs><g transform="translate(40.386 23.877)"><g transform="translate(19.614 33.123)"><g transform="translate(0 0)"><g transform="matrix(1, 0, 0, 1, -60, -57)" filter="url(#a)"><path d="M352.68,376.405H313.04l4.306-16.928.976-3.839,1.895-7.434H345.5l1.895,7.434.976,3.839Z" transform="translate(-188.96 -193.73)" fill="#6280e5"/></g><path d="M352.67,366.894H321.641l.976-3.839h29.077Z" transform="translate(-253.253 -258.149)" fill="#2d4493"/><g transform="matrix(1, 0, 0, 1, -60, -57)" filter="url(#c)"><path d="M352.834,157.654v96.67a4.168,4.168,0,0,1-4.166,4.166H189.189a4.164,4.164,0,0,1-4.166-4.166v-96.67a4.164,4.164,0,0,1,4.166-4.166H348.668A4.168,4.168,0,0,1,352.834,157.654Z" transform="translate(-125.02 -96.49)" fill="#6280e5"/></g><g transform="matrix(1, 0, 0, 1, -60, -57)" filter="url(#e)"><path d="M349.676,407.811H279.61a3.044,3.044,0,0,1-3.044-3.044h0a3.044,3.044,0,0,1,3.044-3.044h70.066a3.044,3.044,0,0,1,3.044,3.044h0A3.044,3.044,0,0,1,349.676,407.811Z" transform="translate(-170.74 -220.46)" fill="#6280e5"/></g><rect width="161.362" height="85.218" transform="translate(3.07 3.058)" fill="#9facdb"/><path d="M348.756,346.009h0a3.88,3.88,0,0,1-3.869-3.868h0a3.88,3.88,0,0,1,3.869-3.869h0a3.88,3.88,0,0,1,3.869,3.869h0A3.88,3.88,0,0,1,348.756,346.009Z" transform="translate(-264.862 -245.772)" fill="#2d4493"/><path d="M365.018,258.414H353.684l29.809-104.926h11.335Z" transform="translate(-269.255 -153.488)" opacity="0.2" fill="url(#g)"/><path d="M409.224,258.414H385.177l29.809-104.926h24.047Z" transform="translate(-284.984 -153.488)" opacity="0.2" fill="url(#g)"/><g transform="translate(41.856 7.898)"><g transform="translate(1.337 27.676)"><path d="M324.759,171.163h-8.218V181.7h8.218a5.268,5.268,0,1,0,0-10.536Z" transform="translate(-259.765 -171.163)" fill="#0077d4"/><path d="M150.79,171.163H100.124a5.268,5.268,0,1,0,0,10.536H150.79Z" transform="translate(-94.856 -171.163)" fill="#fff"/><g transform="translate(60.122 2.565)"><path d="M332.565,184.139a1.735,1.735,0,1,1,0-2.454A1.737,1.737,0,0,1,332.565,184.139Zm-2.09-2.09a1.221,1.221,0,1,0,1.726,0A1.222,1.222,0,0,0,330.475,182.049Z" transform="translate(-329.604 -181.178)" fill="#fff"/><rect width="0.514" height="0.857" transform="translate(2.597 2.961) rotate(-44.998)" fill="#fff"/><path d="M343.874,195.447a.386.386,0,0,1-.545,0l-1.545-1.545a.386.386,0,0,1,.545-.545l1.545,1.545A.386.386,0,0,1,343.874,195.447Z" transform="translate(-338.58 -190.154)" fill="#fff"/></g></g><g transform="translate(7.331 22.94)" opacity="0.5"><rect width="29.746" height="1.042" fill="#ff4b13"/><rect width="29.746" height="1.042" transform="translate(0 2.187)" fill="#ff4b13"/><rect width="29.746" height="1.042" transform="translate(0 4.375)" fill="#ff4b13"/><rect width="29.746" height="1.042" transform="translate(0 6.562)" fill="#ff4b13"/><rect width="29.746" height="1.042" transform="translate(0 8.749)" fill="#ff4b13"/><rect width="29.746" height="1.042" transform="translate(0 10.937)" fill="#ff4b13"/><rect width="21.107" height="1.042" transform="translate(0 13.124)" fill="#ff4b13"/></g><g transform="translate(30.184)"><path d="M219.816,88.371,227.393,63.1l7.381,25.271Z" transform="translate(-216.659 -63.1)" fill="#fff" opacity="0.3"/><path d="M252.548,110.388,259.59,92.7l7.915,17.691Z" transform="translate(-241.008 -85.117)" fill="#fff" opacity="0.3"/><path d="M284.479,118.858l7.31-14.774,7.648,14.774Z" transform="translate(-264.761 -93.587)" fill="#fff" opacity="0.3"/><path d="M320.339,106.444,328.184,87.4l7.114,19.049Z" transform="translate(-291.437 -81.173)" fill="#fff" opacity="0.3"/><g transform="translate(0.801 1.095)"><path d="M210.887,91.817a.267.267,0,0,1-.151-.487c.581-.483,15.853-15.814,23.87-23.877a.267.267,0,0,1,.189-.079h0a.266.266,0,0,1,.189.078l12.824,12.824a.267.267,0,1,1-.378.378L234.8,68.019c-8.862,8.912-23.526,23.638-23.79,23.77A.262.262,0,0,1,210.887,91.817Z" transform="translate(-210.619 -67.374)" fill="#fff"/><g transform="translate(35.807 11.898)"><path d="M350.428,115.676l2.521.676-.675-2.521Z" transform="translate(-350.428 -113.83)" fill="#fff"/></g></g><g transform="translate(0 9.109)"><path d="M226.078,115.035a.266.266,0,0,1-.115-.026l-18.322-8.762a.267.267,0,1,1,.231-.482l18.109,8.66,6.765-10.511a.267.267,0,0,1,.449.289L226.3,114.913A.267.267,0,0,1,226.078,115.035Z" transform="translate(-207.49 -102.48)" fill="#fff"/><g transform="translate(24.177)"><path d="M304.085,101.274l.126-2.607-2.321,1.194Z" transform="translate(-301.889 -98.667)" fill="#fff"/></g></g></g><g transform="translate(6.16 51.085)" opacity="0.5"><path d="M124.1,279.635a8.628,8.628,0,1,1,6.663-10.221A8.637,8.637,0,0,1,124.1,279.635Zm-3.452-16.378a8.11,8.11,0,1,0,9.608,6.263A8.119,8.119,0,0,0,120.645,263.257Z" transform="translate(-113.688 -262.564)" fill="#fff"/><path d="M134.645,280.009c-2.575.542-5.467-2.8-6.449-7.458s.316-8.884,2.89-9.426,5.467,2.8,6.449,7.458S137.219,279.466,134.645,280.009Zm-3.452-16.378c-2.3.484-3.412,4.437-2.49,8.813s3.54,7.542,5.835,7.058,3.412-4.437,2.49-8.812S133.488,263.147,131.193,263.631Z" transform="translate(-124.237 -262.938)" fill="#fff"/><path d="M142.023,280.147c-1.587.334-3.312-7.759-3.384-8.1s-1.761-8.446-.174-8.781,3.311,7.759,3.384,8.1S143.61,279.813,142.023,280.147Zm-3.457-16.377c-.362.2-.49,3.094.579,8.166s2.356,7.673,2.775,7.7c.362-.2.489-3.094-.58-8.166S138.986,263.8,138.567,263.77Z" transform="translate(-131.615 -263.076)" fill="#fff"/><rect width="16.737" height="0.518" transform="translate(0.387 10.101) rotate(-11.901)" fill="#fff"/></g><g transform="translate(21.45 40.225)" opacity="0.5"><path d="M183.447,230.3a5.916,5.916,0,1,1,.079-8.366A5.923,5.923,0,0,1,183.447,230.3Zm-8.038-8.192a5.561,5.561,0,1,0,7.864.075A5.568,5.568,0,0,0,175.409,222.1Z" transform="translate(-173.39 -220.16)" fill="#fff"/><path d="M186.811,233.519c-1.288,1.264-4.195.4-6.479-1.931s-3.1-5.251-1.808-6.515,4.195-.4,6.479,1.931S188.1,232.255,186.811,233.519Zm-8.038-8.192c-1.148,1.127-.335,3.824,1.813,6.012s4.829,3.053,5.977,1.926.335-3.824-1.813-6.012S179.92,224.2,178.772,225.327Z" transform="translate(-176.753 -223.383)" fill="#fff"/><path d="M188.284,234.918c-.794.779-4.777-3.263-4.947-3.435s-4.134-4.232-3.341-5.011,4.777,3.263,4.946,3.435S189.077,234.139,188.284,234.918Zm-8.041-8.19c-.137.246.858,1.969,3.348,4.506s4.193,3.565,4.447,3.428c.137-.246-.858-1.969-3.348-4.506S180.5,226.59,180.242,226.728Z" transform="translate(-178.226 -224.781)" fill="#fff"/><rect width="11.477" height="0.355" transform="matrix(0.714, -0.7, 0.7, 0.714, 1.693, 9.806)" fill="#fff"/></g><g transform="translate(17.757 7.556)"><path d="M168.7,94.3a.243.243,0,0,1-.243-.243V92.845a.243.243,0,1,1,.486,0V94.06A.243.243,0,0,1,168.7,94.3Z" transform="translate(-166.029 -92.602)" fill="#fff"/><path d="M162.753,96.963a.241.241,0,0,1-.172-.071l-.859-.859a.243.243,0,0,1,.344-.344l.859.859a.243.243,0,0,1-.172.415Z" transform="translate(-160.964 -94.845)" fill="#fff"/><path d="M160.428,103.052h-1.215a.243.243,0,1,1,0-.486h1.215a.243.243,0,1,1,0,.486Z" transform="translate(-158.97 -100.014)" fill="#fff"/><path d="M162.23,107.364a.243.243,0,0,1-.172-.415l.859-.859a.243.243,0,1,1,.343.344l-.859.859A.242.242,0,0,1,162.23,107.364Z" transform="translate(-161.214 -102.583)" fill="#fff"/><path d="M169.177,109.011a.243.243,0,0,1-.243-.243v-1.215a.243.243,0,0,1,.486,0v1.215A.243.243,0,0,1,169.177,109.011Z" transform="translate(-166.382 -103.543)" fill="#fff"/><path d="M173.49,107.029a.242.242,0,0,1-.172-.071l-.859-.859a.243.243,0,1,1,.344-.344l.859.86a.243.243,0,0,1-.172.415Z" transform="translate(-168.951 -102.333)" fill="#fff"/><path d="M175.137,102.577h-1.215a.243.243,0,0,1,0-.486h1.215a.243.243,0,1,1,0,.486Z" transform="translate(-169.912 -99.661)" fill="#fff"/><path d="M172.295,96.628a.243.243,0,0,1-.172-.415l.859-.859a.243.243,0,1,1,.344.344l-.859.859A.243.243,0,0,1,172.295,96.628Z" transform="translate(-168.701 -94.596)" fill="#fff"/></g><g transform="translate(9.187 42.463)"><path d="M135.238,230.6a.243.243,0,0,1-.243-.243v-1.215a.243.243,0,0,1,.486,0v1.215A.243.243,0,0,1,135.238,230.6Z" transform="translate(-132.565 -228.896)" fill="#fff"/><path d="M129.289,233.257a.242.242,0,0,1-.172-.071l-.86-.859a.243.243,0,1,1,.344-.344l.859.859a.243.243,0,0,1-.172.415Z" transform="translate(-127.5 -231.139)" fill="#fff"/><path d="M126.964,239.346h-1.215a.243.243,0,1,1,0-.486h1.215a.243.243,0,1,1,0,.486Z" transform="translate(-125.506 -236.308)" fill="#fff"/><path d="M128.765,243.658a.243.243,0,0,1-.172-.415l.859-.859a.243.243,0,0,1,.344.344l-.859.859A.243.243,0,0,1,128.765,243.658Z" transform="translate(-127.749 -238.877)" fill="#fff"/><path d="M135.712,245.305a.243.243,0,0,1-.243-.243v-1.215a.243.243,0,1,1,.486,0v1.215A.243.243,0,0,1,135.712,245.305Z" transform="translate(-132.917 -239.837)" fill="#fff"/><path d="M140.025,243.323a.241.241,0,0,1-.172-.071l-.859-.859a.243.243,0,0,1,.343-.344l.859.859a.243.243,0,0,1-.172.415Z" transform="translate(-135.487 -238.627)" fill="#fff"/><path d="M141.672,238.871h-1.215a.243.243,0,0,1,0-.486h1.215a.243.243,0,0,1,0,.486Z" transform="translate(-136.447 -235.955)" fill="#fff"/><path d="M138.83,232.922a.243.243,0,0,1-.172-.415l.859-.859a.243.243,0,0,1,.344.344l-.859.859A.242.242,0,0,1,138.83,232.922Z" transform="translate(-135.237 -230.89)" fill="#fff"/></g><g transform="translate(0 17.059)"><path d="M99.37,131.408a.243.243,0,0,1-.243-.243V129.95a.243.243,0,1,1,.486,0v1.215A.243.243,0,0,1,99.37,131.408Z" transform="translate(-96.696 -129.707)" fill="#fff"/><path d="M93.421,134.069a.242.242,0,0,1-.172-.071l-.859-.859a.243.243,0,0,1,.344-.344l.859.859a.243.243,0,0,1-.172.415Z" transform="translate(-91.632 -131.951)" fill="#fff"/><path d="M91.1,140.157H89.88a.243.243,0,1,1,0-.486H91.1a.243.243,0,1,1,0,.486Z" transform="translate(-89.637 -137.119)" fill="#fff"/><path d="M92.9,144.469a.243.243,0,0,1-.172-.415l.859-.859a.243.243,0,0,1,.344.344l-.859.859A.243.243,0,0,1,92.9,144.469Z" transform="translate(-91.881 -139.688)" fill="#fff"/><path d="M99.844,146.116a.243.243,0,0,1-.243-.243v-1.215a.243.243,0,0,1,.486,0v1.215A.243.243,0,0,1,99.844,146.116Z" transform="translate(-97.049 -140.648)" fill="#fff"/><path d="M104.157,144.134a.243.243,0,0,1-.172-.071l-.859-.86a.243.243,0,1,1,.344-.344l.859.86a.243.243,0,0,1-.172.415Z" transform="translate(-99.618 -139.438)" fill="#fff"/><path d="M105.8,139.682h-1.215a.243.243,0,1,1,0-.486H105.8a.243.243,0,0,1,0,.486Z" transform="translate(-100.579 -136.766)" fill="#fff"/><path d="M102.962,133.733a.243.243,0,0,1-.172-.415l.859-.859a.243.243,0,0,1,.344.344l-.859.859A.243.243,0,0,1,102.962,133.733Z" transform="translate(-99.368 -131.701)" fill="#fff"/></g><g transform="translate(31.526 55.107)"><path d="M222.463,279.967a.243.243,0,0,1-.243-.243v-1.215a.243.243,0,1,1,.486,0v1.215A.243.243,0,0,1,222.463,279.967Z" transform="translate(-219.789 -278.266)" fill="#fff"/><path d="M216.514,282.628a.242.242,0,0,1-.172-.071l-.859-.859a.243.243,0,0,1,.344-.344l.859.859a.243.243,0,0,1-.172.415Z" transform="translate(-214.725 -280.51)" fill="#fff"/><path d="M214.188,288.716h-1.215a.243.243,0,1,1,0-.486h1.215a.243.243,0,1,1,0,.486Z" transform="translate(-212.73 -285.678)" fill="#fff"/><path d="M215.99,293.028a.243.243,0,0,1-.172-.415l.859-.859a.243.243,0,0,1,.344.344l-.859.859A.243.243,0,0,1,215.99,293.028Z" transform="translate(-214.974 -288.247)" fill="#fff"/><path d="M222.937,294.675a.243.243,0,0,1-.243-.243v-1.215a.243.243,0,0,1,.486,0v1.215A.243.243,0,0,1,222.937,294.675Z" transform="translate(-220.142 -289.207)" fill="#fff"/><path d="M227.25,292.693a.242.242,0,0,1-.172-.071l-.859-.859a.243.243,0,0,1,.343-.344l.86.859a.243.243,0,0,1-.172.415Z" transform="translate(-222.711 -287.997)" fill="#fff"/><path d="M228.9,288.241h-1.215a.243.243,0,0,1,0-.486H228.9a.243.243,0,1,1,0,.486Z" transform="translate(-223.672 -285.325)" fill="#fff"/><path d="M226.055,282.292a.243.243,0,0,1-.172-.415l.859-.859a.243.243,0,0,1,.344.344l-.859.859A.243.243,0,0,1,226.055,282.292Z" transform="translate(-222.461 -280.26)" fill="#fff"/></g><g transform="translate(25.378 8.374)"><rect width="3.579" height="10.681" transform="translate(33.594 43.607) rotate(-28.677)" fill="#4d4d4d"/><path d="M326.507,265.7l-1.927-3.523c-.489.332-1,.646-1.528.936s-1.068.549-1.612.781l1.927,3.523c.541-.243,1.078-.5,1.607-.791S326.011,266.029,326.507,265.7Z" transform="translate(-287.45 -219.568)" fill="#1a1a1a"/><g opacity="0.5"><circle cx="18.391" cy="18.391" r="18.391" transform="translate(0 26.008) rotate(-45)" fill="#dadada"/></g><path d="M227.273,176.6a1.1,1.1,0,0,1-1.616-1.135,16.894,16.894,0,0,1,.9-3.42,1.1,1.1,0,1,1,2.059.782,14.7,14.7,0,0,0-.785,2.974A1.1,1.1,0,0,1,227.273,176.6Z" transform="translate(-216.189 -151.99)" fill="#fff" opacity="0.5" style="mix-blend-mode:screen;isolation:isolate"/><path d="M235.9,217.988a1.1,1.1,0,0,1-1.034.013,16.731,16.731,0,0,1-8.725-11.553,1.1,1.1,0,1,1,2.16-.434,14.526,14.526,0,0,0,7.574,10.03,1.1,1.1,0,0,1,.025,1.945Z" transform="translate(-216.542 -177.128)" fill="#fff" opacity="0.5" style="mix-blend-mode:screen;isolation:isolate"/><path d="M214.468,112.638a22.4,22.4,0,1,0,30.4,8.9A22.4,22.4,0,0,0,214.468,112.638Zm19.572,35.784a18.391,18.391,0,1,1,7.31-24.96A18.391,18.391,0,0,1,234.04,148.422Z" transform="translate(-199.206 -106.279)" fill="#333"/><rect width="6.335" height="31.636" transform="translate(37.51 53.639) rotate(-28.677)" fill="#333"/><rect width="1.254" height="31.636" transform="translate(38.311 53.201) rotate(-28.677)" fill="#4d4d4d"/><rect width="2.083" height="31.636" transform="translate(41.241 51.598) rotate(-28.678)" fill="#1a1a1a"/></g><g transform="translate(52.259 50.568)"><path d="M303.418,262.243a.243.243,0,0,1-.243-.243v-1.215a.243.243,0,1,1,.486,0V262A.243.243,0,0,1,303.418,262.243Z" transform="translate(-300.745 -260.542)" fill="#fff"/><path d="M297.469,264.9a.243.243,0,0,1-.172-.071l-.859-.859a.243.243,0,0,1,.344-.344l.859.859a.243.243,0,0,1-.172.415Z" transform="translate(-295.68 -262.785)" fill="#fff"/><path d="M295.143,270.991h-1.215a.243.243,0,1,1,0-.486h1.215a.243.243,0,0,1,0,.486Z" transform="translate(-293.685 -267.953)" fill="#fff"/><path d="M296.945,275.3a.243.243,0,0,1-.172-.415l.859-.859a.243.243,0,1,1,.344.344l-.859.859A.243.243,0,0,1,296.945,275.3Z" transform="translate(-295.929 -270.523)" fill="#fff"/><path d="M303.892,276.951a.243.243,0,0,1-.243-.243v-1.215a.243.243,0,0,1,.486,0v1.215A.243.243,0,0,1,303.892,276.951Z" transform="translate(-301.097 -271.483)" fill="#fff"/><path d="M308.2,274.969a.242.242,0,0,1-.172-.071l-.86-.859a.243.243,0,0,1,.344-.344l.859.859a.243.243,0,0,1-.172.415Z" transform="translate(-303.666 -270.273)" fill="#fff"/><path d="M309.852,270.517h-1.215a.243.243,0,1,1,0-.486h1.215a.243.243,0,0,1,0,.486Z" transform="translate(-304.627 -267.601)" fill="#fff"/><path d="M307.01,264.568a.243.243,0,0,1-.172-.415l.859-.859a.243.243,0,0,1,.344.343l-.859.859A.243.243,0,0,1,307.01,264.568Z" transform="translate(-303.416 -262.536)" fill="#fff"/></g><g transform="translate(25.378 8.374)"><g transform="translate(0 0)" clip-path="url(#i)"><g transform="translate(-38.159 -15.995)"><g transform="translate(1.635 33.848)"><path d="M327.284,165.508h-10.05v12.885h10.05a6.443,6.443,0,0,0,0-12.885Z" transform="translate(-247.797 -165.508)" fill="#ff4b13"/><path d="M114.521,165.508H52.557a6.443,6.443,0,0,0,0,12.885h61.964Z" transform="translate(-46.114 -165.508)" fill="#fff"/><g transform="translate(73.529 3.137)"><path d="M336.832,181.378a2.122,2.122,0,1,1,0-3A2.124,2.124,0,0,1,336.832,181.378Zm-2.556-2.556a1.493,1.493,0,1,0,2.112,0A1.495,1.495,0,0,0,334.275,178.822Z" transform="translate(-333.211 -177.757)" fill="#fff"/><rect width="0.629" height="1.048" transform="matrix(0.707, -0.707, 0.707, 0.707, 3.177, 3.621)" fill="#fff"/><path d="M350.661,195.207a.471.471,0,0,1-.667,0l-1.889-1.889a.471.471,0,0,1,.667-.667l1.889,1.889A.471.471,0,0,1,350.661,195.207Z" transform="translate(-344.187 -188.733)" fill="#fff"/></g></g><g transform="translate(8.966 28.056)" opacity="0.5"><rect width="36.379" height="1.274" fill="#9798a0"/><rect width="36.379" height="1.274" transform="translate(0 2.675)" fill="#9798a0"/><rect width="36.379" height="1.274" transform="translate(0 5.35)" fill="#9798a0"/><rect width="36.379" height="1.274" transform="translate(0 8.025)" fill="#9798a0"/><rect width="36.379" height="1.274" transform="translate(0 10.7)" fill="#9798a0"/><rect width="36.379" height="1.274" transform="translate(0 13.375)" fill="#9798a0"/><rect width="25.814" height="1.274" transform="translate(0 16.05)" fill="#9798a0"/></g><g transform="translate(36.914)"><path d="M198.939,64.253l9.267-30.906,9.027,30.906Z" transform="translate(-195.078 -33.347)" fill="#fff" opacity="0.3"/><path d="M238.97,91.18l8.613-21.636,9.681,21.636Z" transform="translate(-224.856 -60.274)" fill="#fff" opacity="0.3"/><path d="M278.022,101.54l8.94-18.069,9.354,18.069Z" transform="translate(-253.907 -70.633)" fill="#fff" opacity="0.3"/><path d="M321.879,86.356l9.593-23.3,8.7,23.3Z" transform="translate(-286.532 -55.45)" fill="#fff" opacity="0.3"/><g transform="translate(0.98 1.339)"><path d="M188.018,68.468a.327.327,0,0,1-.185-.6c.711-.59,19.388-19.341,29.194-29.2a.325.325,0,0,1,.231-.1h0a.327.327,0,0,1,.231.1l15.684,15.684a.327.327,0,0,1-.462.462L217.259,39.363c-10.838,10.9-28.772,28.909-29.1,29.071A.324.324,0,0,1,188.018,68.468Z" transform="translate(-187.691 -38.574)" fill="#fff"/><g transform="translate(43.792 14.551)"><path d="M358.677,97.647l3.083.826-.826-3.084Z" transform="translate(-358.677 -95.389)" fill="#fff"/></g></g><g transform="translate(0 11.141)"><path d="M206.6,96.864a.324.324,0,0,1-.141-.032L184.05,86.116a.327.327,0,1,1,.282-.59l22.147,10.592,8.274-12.855a.327.327,0,1,1,.549.353l-8.429,13.1A.327.327,0,0,1,206.6,96.864Z" transform="translate(-183.864 -81.508)" fill="#fff"/><g transform="translate(29.568)"><path d="M302,80.034l.154-3.189-2.839,1.461Z" transform="translate(-299.315 -76.846)" fill="#fff"/></g></g></g><g transform="translate(7.533 62.477)" opacity="0.5"><path d="M81.874,298.168a10.552,10.552,0,1,1,8.149-12.5A10.564,10.564,0,0,1,81.874,298.168Zm-4.221-20.03A9.918,9.918,0,1,0,89.4,285.8,9.929,9.929,0,0,0,77.653,278.139Z" transform="translate(-69.145 -277.291)" fill="#fff"/><path d="M94.775,298.626c-3.149.664-6.687-3.428-7.887-9.121s.386-10.865,3.535-11.528,6.687,3.428,7.886,9.121S97.924,297.962,94.775,298.626ZM90.553,278.6c-2.807.592-4.173,5.426-3.045,10.778s4.329,9.223,7.136,8.632,4.173-5.426,3.045-10.778S93.36,278,90.553,278.6Z" transform="translate(-82.045 -277.748)" fill="#fff"/><path d="M103.8,298.795c-1.941.409-4.05-9.489-4.139-9.911s-2.154-10.33-.213-10.739,4.05,9.49,4.139,9.911S105.739,298.386,103.8,298.795Zm-4.227-20.029c-.443.239-.6,3.784.708,9.987s2.881,9.384,3.395,9.421c.443-.239.6-3.784-.709-9.987S100.085,278.8,99.571,278.766Z" transform="translate(-91.07 -277.917)" fill="#fff"/><rect width="20.47" height="0.634" transform="matrix(0.979, -0.206, 0.206, 0.979, 0.473, 12.354)" fill="#fff"/></g><g transform="translate(26.234 49.195)" opacity="0.5"><path d="M154.46,237.828a7.236,7.236,0,1,1,.1-10.232A7.244,7.244,0,0,1,154.46,237.828Zm-9.831-10.019a6.8,6.8,0,1,0,9.618.091A6.809,6.809,0,0,0,144.63,227.809Z" transform="translate(-142.16 -225.431)" fill="#fff"/><path d="M158.574,241.769c-1.575,1.545-5.13.486-7.924-2.362s-3.786-6.422-2.211-7.967,5.13-.486,7.924,2.362S160.149,240.224,158.574,241.769Zm-9.831-10.019c-1.4,1.378-.41,4.676,2.217,7.353s5.905,3.734,7.309,2.356.41-4.676-2.217-7.353S150.147,230.373,148.743,231.75Z" transform="translate(-146.274 -229.372)" fill="#fff"/><path d="M160.375,243.48c-.971.952-5.843-3.99-6.05-4.2s-5.056-5.176-4.086-6.128,5.842,3.991,6.049,4.2S161.346,242.527,160.375,243.48Zm-9.834-10.017c-.168.3,1.05,2.408,4.095,5.511s5.128,4.361,5.438,4.193c.168-.3-1.05-2.407-4.095-5.511S150.852,233.3,150.541,233.463Z" transform="translate(-148.075 -231.083)" fill="#fff"/><rect width="14.037" height="0.434" transform="translate(2.071 11.993) rotate(-44.456)" fill="#fff"/></g><g transform="translate(21.717 9.241)"><path d="M136.427,71.508a.3.3,0,0,1-.3-.3V69.725a.3.3,0,0,1,.594,0v1.486A.3.3,0,0,1,136.427,71.508Z" transform="translate(-133.158 -69.428)" fill="#fff"/><path d="M129.151,74.762a.3.3,0,0,1-.21-.087l-1.051-1.051a.3.3,0,0,1,.421-.42l1.051,1.051a.3.3,0,0,1-.21.507Z" transform="translate(-126.964 -72.172)" fill="#fff"/><path d="M126.308,82.207h-1.486a.3.3,0,0,1,0-.594h1.486a.3.3,0,0,1,0,.594Z" transform="translate(-124.525 -78.492)" fill="#fff"/><path d="M128.511,87.482a.3.3,0,0,1-.21-.507l1.051-1.051a.3.3,0,0,1,.42.42L128.721,87.4A.3.3,0,0,1,128.511,87.482Z" transform="translate(-127.269 -81.635)" fill="#fff"/><path d="M137.007,89.5a.3.3,0,0,1-.3-.3V87.713a.3.3,0,1,1,.594,0V89.2A.3.3,0,0,1,137.007,89.5Z" transform="translate(-133.589 -82.809)" fill="#fff"/><path d="M142.282,87.072a.3.3,0,0,1-.21-.087l-1.051-1.051a.3.3,0,1,1,.42-.421l1.051,1.051a.3.3,0,0,1-.21.507Z" transform="translate(-136.732 -81.329)" fill="#fff"/><path d="M144.3,81.627H142.81a.3.3,0,1,1,0-.594H144.3a.3.3,0,1,1,0,.594Z" transform="translate(-137.906 -78.061)" fill="#fff"/><path d="M140.821,74.352a.3.3,0,0,1-.21-.507l1.051-1.051a.3.3,0,1,1,.42.421l-1.051,1.051A.3.3,0,0,1,140.821,74.352Z" transform="translate(-136.426 -71.867)" fill="#fff"/></g><g transform="translate(11.235 51.932)"><path d="M95.5,238.2a.3.3,0,0,1-.3-.3v-1.486a.3.3,0,0,1,.594,0V237.9A.3.3,0,0,1,95.5,238.2Z" transform="translate(-92.231 -236.115)" fill="#fff"/><path d="M88.224,241.449a.3.3,0,0,1-.21-.087l-1.051-1.051a.3.3,0,1,1,.421-.42l1.051,1.051a.3.3,0,0,1-.21.507Z" transform="translate(-86.037 -238.859)" fill="#fff"/><path d="M85.381,248.9H83.9a.3.3,0,0,1,0-.594h1.486a.3.3,0,0,1,0,.594Z" transform="translate(-83.598 -245.18)" fill="#fff"/><path d="M87.584,254.169a.3.3,0,0,1-.21-.507l1.051-1.051a.3.3,0,1,1,.42.42l-1.051,1.051A.3.3,0,0,1,87.584,254.169Z" transform="translate(-86.342 -248.321)" fill="#fff"/><path d="M96.08,256.184a.3.3,0,0,1-.3-.3V254.4a.3.3,0,1,1,.595,0v1.486A.3.3,0,0,1,96.08,256.184Z" transform="translate(-92.662 -249.496)" fill="#fff"/><path d="M101.355,253.759a.3.3,0,0,1-.21-.087l-1.051-1.051a.3.3,0,0,1,.42-.421l1.051,1.051a.3.3,0,0,1-.21.507Z" transform="translate(-95.805 -248.016)" fill="#fff"/><path d="M103.369,248.314h-1.486a.3.3,0,1,1,0-.594h1.486a.3.3,0,1,1,0,.594Z" transform="translate(-96.979 -244.748)" fill="#fff"/><path d="M99.894,241.039a.3.3,0,0,1-.21-.507l1.051-1.051a.3.3,0,0,1,.42.421l-1.051,1.051A.3.3,0,0,1,99.894,241.039Z" transform="translate(-95.499 -238.554)" fill="#fff"/></g><g transform="translate(0 20.863)"><path d="M51.633,116.888a.3.3,0,0,1-.3-.3V115.1a.3.3,0,1,1,.594,0v1.486A.3.3,0,0,1,51.633,116.888Z" transform="translate(-48.364 -114.807)" fill="#fff"/><path d="M44.358,120.141a.3.3,0,0,1-.21-.087L43.1,119a.3.3,0,1,1,.42-.42l1.051,1.051a.3.3,0,0,1-.21.507Z" transform="translate(-42.17 -117.551)" fill="#fff"/><path d="M41.514,127.587H40.028a.3.3,0,0,1,0-.594h1.486a.3.3,0,1,1,0,.594Z" transform="translate(-39.731 -123.872)" fill="#fff"/><path d="M43.718,132.862a.3.3,0,0,1-.21-.508l1.051-1.051a.3.3,0,1,1,.42.42l-1.051,1.051A.3.3,0,0,1,43.718,132.862Z" transform="translate(-42.475 -127.014)" fill="#fff"/><path d="M52.214,134.876a.3.3,0,0,1-.3-.3v-1.486a.3.3,0,0,1,.594,0v1.486A.3.3,0,0,1,52.214,134.876Z" transform="translate(-48.796 -128.189)" fill="#fff"/><path d="M57.488,132.451a.3.3,0,0,1-.21-.087l-1.051-1.051a.3.3,0,0,1,.42-.42l1.051,1.051a.3.3,0,0,1-.21.507Z" transform="translate(-51.938 -126.709)" fill="#fff"/><path d="M59.5,127.007H58.016a.3.3,0,1,1,0-.594H59.5a.3.3,0,0,1,0,.594Z" transform="translate(-53.112 -123.441)" fill="#fff"/><path d="M56.027,119.731a.3.3,0,0,1-.21-.507l1.051-1.051a.3.3,0,0,1,.42.42l-1.051,1.051A.3.3,0,0,1,56.027,119.731Z" transform="translate(-51.632 -117.246)" fill="#fff"/></g><g transform="translate(38.556 67.395)"><path d="M202.176,298.575a.3.3,0,0,1-.3-.3v-1.486a.3.3,0,1,1,.594,0v1.486A.3.3,0,0,1,202.176,298.575Z" transform="translate(-198.907 -296.494)" fill="#fff"/><path d="M194.9,301.829a.3.3,0,0,1-.21-.087l-1.051-1.051a.3.3,0,0,1,.42-.421l1.051,1.051a.3.3,0,0,1-.21.507Z" transform="translate(-192.712 -299.238)" fill="#fff"/><path d="M192.057,309.274H190.57a.3.3,0,1,1,0-.594h1.486a.3.3,0,0,1,0,.594Z" transform="translate(-190.273 -305.559)" fill="#fff"/><path d="M194.26,314.549a.3.3,0,0,1-.21-.507l1.051-1.051a.3.3,0,0,1,.42.42l-1.051,1.051A.3.3,0,0,1,194.26,314.549Z" transform="translate(-193.017 -308.701)" fill="#fff"/><path d="M202.756,316.564a.3.3,0,0,1-.3-.3V314.78a.3.3,0,0,1,.594,0v1.486A.3.3,0,0,1,202.756,316.564Z" transform="translate(-199.338 -309.876)" fill="#fff"/><path d="M208.031,314.139a.3.3,0,0,1-.21-.087L206.77,313a.3.3,0,0,1,.42-.42l1.051,1.051a.3.3,0,0,1-.21.507Z" transform="translate(-202.48 -308.396)" fill="#fff"/><path d="M210.045,308.694h-1.486a.3.3,0,0,1,0-.594h1.486a.3.3,0,1,1,0,.594Z" transform="translate(-203.655 -305.128)" fill="#fff"/><path d="M206.57,301.419a.3.3,0,0,1-.21-.507l1.051-1.051a.3.3,0,1,1,.42.42l-1.051,1.051A.3.3,0,0,1,206.57,301.419Z" transform="translate(-202.175 -298.933)" fill="#fff"/></g></g></g></g></g></g></g></g></svg>