<svg xmlns="http://www.w3.org/2000/svg" xmlns:xlink="http://www.w3.org/1999/xlink" width="193.216" height="209.963" viewBox="0 0 193.216 209.963"><defs><filter id="a" x="0" y="0" width="193.216" height="209.963" filterUnits="userSpaceOnUse"><feOffset dy="3" input="SourceAlpha"/><feGaussianBlur stdDeviation="20" result="b"/><feFlood flood-color="#7090b0" flood-opacity="0.2"/><feComposite operator="in" in2="b"/><feComposite in="SourceGraphic"/></filter><linearGradient id="c" x1="0.196" y1="0.889" x2="0.764" y2="0.248" gradientUnits="objectBoundingBox"><stop offset="0" stop-color="#6968a2" stop-opacity="0.396"/><stop offset="1" stop-color="#fff" stop-opacity="0"/></linearGradient></defs><g transform="translate(3.188 17.141)"><g transform="translate(57.327 0.033)"><g transform="translate(0 0)"><g transform="translate(0 37.103)"><g transform="translate(0 0)"><g transform="matrix(1, 0, 0, 1, -60.51, -54.28)" filter="url(#a)"><path d="M-7558.989-5214.973-7575.013-5231l-1.595-1.594q-.292.279-.58.561a3.569,3.569,0,0,1-3.243.955,13.2,13.2,0,0,1-2.451-.8,10.949,10.949,0,0,1-9.111-3.129l-.322-.324a10.945,10.945,0,0,1-3.129-9.11,13.131,13.131,0,0,1-.8-2.45,3.569,3.569,0,0,1,.955-3.244,104.039,104.039,0,0,0,10.474-12.782,1.879,1.879,0,0,0-.2.909,1.879,1.879,0,0,1,.2-.909c.063-.088.126-.175.187-.262l0-.005v0a.123.123,0,0,1,.013-.014,2.067,2.067,0,0,1,1.905-.333q-.447.656-.906,1.308l-.021,0,.021,0c-.008.013-.018.025-.025.037a.032.032,0,0,1,0-.009.039.039,0,0,0,0,.009l0,.006a177.8,177.8,0,0,0,17.987-33.383c-.724-2.566-.631-5.571,1.294-6.912a4.658,4.658,0,0,1,3.031-.692c2.927.188,5.846,1.626,8.337,3.088a72.348,72.348,0,0,1,14.317,11.434,67.781,67.781,0,0,1,12.313,15.892c1.725,3.266,4.679,10.845-1.509,11.58a8.685,8.685,0,0,1-3.765-.54,177.844,177.844,0,0,0-33.5,18.031h0l.02,0-.021,0,.027-.019q.653-.458,1.31-.909a2.069,2.069,0,0,1-.334,1.9.049.049,0,0,1-.014.011c-.02.018-.04.033-.061.049.021-.015.041-.03.061-.047l0,0-.074.053-.014.01a1.273,1.273,0,0,1-.157.112q-.883.62-1.76,1.259l12.14,12.14c2.674,2.675,2.1,11.234-1.354,14.14l-.01.01a2.556,2.556,0,0,1-1.812.75A2.555,2.555,0,0,1-7558.989-5214.973Zm-6.292-27.335h0Zm-.073,0a4.927,4.927,0,0,1-1.36-.247A4.927,4.927,0,0,0-7565.354-5242.308Zm.9-.176h0Zm-20.179-20.7c-.061.087-.124.173-.187.26A1.275,1.275,0,0,1-7584.633-5263.18Z" transform="translate(7656.84 5360.69)" fill="#2d4493" stroke="rgba(0,0,0,0)" stroke-width="1"/></g><g transform="translate(19.357 62.871)"><path d="M127.136,360.735l-1.363,3.394,17.98,17.98a2.562,2.562,0,0,0,3.624,0c3.464-2.9,4.04-11.472,1.363-14.15l-14.414-14.414Z" transform="translate(-125.773 -353.545)" fill="#2d4493"/><path d="M0,0H10.168a0,0,0,0,1,0,0V20.385A7.606,7.606,0,0,1,2.562,27.99h0A2.562,2.562,0,0,1,0,25.428V0A0,0,0,0,1,0,0Z" transform="translate(0 10.584) rotate(-45)" fill="#6280e6"/><path d="M135.428,368.01l-2.465-2.465-7.19,7.19,1.957,1.957C128.611,371.345,131.928,369.15,135.428,368.01Z" transform="translate(-125.773 -362.151)" fill="#2d4493"/></g><path d="M79.2,343.551h0a10.968,10.968,0,0,1-15.511,0l-.323-.323a10.967,10.967,0,0,1,0-15.511h0Z" transform="translate(-59.351 -272.15)" fill="#f1f1f1"/><path d="M62.819,201.129a2.207,2.207,0,0,0-.6,2c.365,1.7,1.587,5.028,5.662,9.1s7.4,5.3,9.1,5.662a2.208,2.208,0,0,0,2-.6c20.4-19.885,52.234-30.917,52.234-30.917l-18.742-18.742L93.736,148.895S82.7,180.73,62.819,201.129Z" transform="translate(-60.804 -143.9)" fill="#fff"/><path d="M144.82,175.18c-1.565,4.275-3.15,9.871-.985,14.269,2.85,5.791,11.086,4.327,15.932,2.672,16.909-5.773,29.261-5.742,29.261-5.742l-37.484-37.484S151.6,156.655,144.82,175.18Z" transform="translate(-118.612 -143.9)" fill="#fbfbfb"/><g transform="translate(28.318)"><path d="M166.019,143.333c-2.487,1.733-1.916,6.245-.476,9a72.961,72.961,0,0,0,13.317,17.676c5.086,5.086,10.885,10.076,17.479,13.1,1.846.847,4.085,1.776,6.169,1.529,6.187-.736,3.234-8.314,1.51-11.581A67.838,67.838,0,0,0,191.7,157.162a72.421,72.421,0,0,0-14.317-11.434c-2.493-1.462-5.411-2.9-8.339-3.088A4.645,4.645,0,0,0,166.019,143.333Z" transform="translate(-162.371 -139.403)" fill="#2d4493"/><ellipse cx="7.709" cy="25.591" rx="7.709" ry="25.591" transform="translate(0 10.902) rotate(-45)" fill="#fff"/><g transform="translate(2.698 8.425)"><ellipse cx="3.659" cy="21.776" rx="3.659" ry="21.776" transform="translate(0 5.175) rotate(-45)" fill="#f0f0f0"/></g></g><g transform="translate(0 42.8)"><path d="M86.937,305.378c-2.641-.815-6.656-3.589-10.562-7.5s-6.676-7.915-7.494-10.556a3.088,3.088,0,0,1-.046-2.313A104.044,104.044,0,0,1,58.36,297.8a3.571,3.571,0,0,0-.955,3.243c.382,1.783,1.674,5.425,6.033,9.785s8,5.651,9.784,6.033a3.571,3.571,0,0,0,3.243-.955A104.072,104.072,0,0,1,89.271,305.41,3.04,3.04,0,0,1,86.937,305.378Z" transform="translate(-57.327 -284.324)" fill="#6280e6"/><path d="M98.682,284.063l-.006.008.007-.008Z" transform="translate(-86.982 -283.642)" fill="#4e35e7"/><path d="M170.964,356.508l0,0c-.022.021-.048.037-.07.056Z" transform="translate(-138.774 -335.596)" fill="#4e35e7"/><path d="M98.021,284.353c.061-.087.124-.173.185-.26A1.224,1.224,0,0,0,98.021,284.353Z" transform="translate(-86.513 -283.663)"/><path d="M170.455,356.7l-.171.122A1.254,1.254,0,0,0,170.455,356.7Z" transform="translate(-138.339 -335.739)"/><path d="M118.537,301.568q-.655.449-1.308.908s0,.011,0,.016-.016,0-.023,0h0c-.912.259-5.29-1.441-11.18-7.331-5.872-5.873-7.58-10.241-7.333-11.171a.108.108,0,0,0,0-.011.108.108,0,0,1,0-.023c.006,0,.015,0,.021,0q.458-.652.907-1.307a2.073,2.073,0,0,0-1.906.332s-.007.01-.012.015L97.7,283c-.061.087-.124.173-.185.26a3.088,3.088,0,0,0,.046,2.313c.818,2.641,3.59,6.654,7.494,10.556s7.921,6.68,10.562,7.5a3.04,3.04,0,0,0,2.334.032l.171-.122c.023-.019.049-.035.07-.056,0,0,.01-.007.015-.012A2.068,2.068,0,0,0,118.537,301.568Z" transform="translate(-86.003 -282.573)" fill="#2d4493"/><path d="M167.67,352.965s0-.011,0-.016l-.027.019C167.652,352.966,167.663,352.967,167.67,352.965Z" transform="translate(-136.447 -333.047)"/><path d="M102.181,287.5l.027-.038c-.006,0-.016,0-.021,0S102.184,287.486,102.181,287.5Z" transform="translate(-89.496 -286.077)"/></g><g transform="translate(40.846 16.103)"><path d="M220.866,197.947a15.319,15.319,0,0,0-9.728-9.729,2.2,2.2,0,0,0-1.995.587,63.171,63.171,0,0,1-7.385,6.1,81.056,81.056,0,0,0,5.568,6.156,80.1,80.1,0,0,0,6.911,6.174,63.037,63.037,0,0,1,6.042-7.3A2.2,2.2,0,0,0,220.866,197.947Z" transform="translate(-201.758 -188.171)" fill="#6280e6"/></g><g transform="translate(48.509 15.658)"><ellipse cx="1.903" cy="6.518" rx="1.903" ry="6.518" transform="translate(0 2.691) rotate(-45)" fill="#2d4493"/></g></g><g transform="translate(26.741 73.897)"><path d="M156.81,397.458h0a1.839,1.839,0,0,1-2.6,0l-1.788-1.788a1.838,1.838,0,0,1,0-2.6h0a1.839,1.839,0,0,1,2.6,0l1.788,1.788A1.839,1.839,0,0,1,156.81,397.458Z" transform="translate(-151.884 -392.533)" fill="#f1f1f1"/><g transform="translate(0.326 0.347)"><path d="M155.354,394.142a1.193,1.193,0,0,0-1.719-.033l-.21.2a1.227,1.227,0,0,0-.385.935h0a1.229,1.229,0,0,0,.357.824l1.9,1.91a1.39,1.39,0,0,0,2.021-.059l.108-.121a1.059,1.059,0,0,0-.013-1.422Z" transform="translate(-153.038 -393.759)" fill="#2d4493"/><path d="M157.83,397.861h0a1.2,1.2,0,0,1-1.728-.033l-1.894-2.046a1.2,1.2,0,0,1,.032-1.662h0a1.2,1.2,0,0,1,1.728.033l1.894,2.046A1.2,1.2,0,0,1,157.83,397.861Z" transform="translate(-153.649 -393.766)" fill="#6280e6"/></g><path d="M159.352,400.966a2.06,2.06,0,0,1,.488-.635,2.028,2.028,0,0,1,.678-.426,2.024,2.024,0,0,1-.488.635A2.051,2.051,0,0,1,159.352,400.966Z" transform="translate(-157.24 -397.821)" fill="#1e009b"/></g></g><path d="M189.089.033,174.195,43.292l.008.01c-1.731,3.723,3.817,13.514,13.135,22.832,8.923,8.923,18.283,14.392,22.33,13.319a66.1,66.1,0,0,1,6.624-1.527l49.833-7.861V.033Z" transform="translate(-140.924 -0.033)" fill="url(#c)"/></g><g transform="translate(40.403 11.716)"><g transform="translate(34.463 48.232)"><g transform="translate(0.927 4.892)"><path d="M339.791,233.425l3.317,2.947-17.768,3.606,0-.014,13.616-4.874-3.3-2.928,0-.023,17.146-2.828,0,.015Z" transform="translate(-325.336 -229.31)" fill="#fff"/></g><path d="M327.756,216.949l2.3.719-7.992,5.746,0-.006,5.654-5.448-2.284-.715,0-.012,7.857-5.222.005.007Z" transform="translate(-322.058 -212.011)" fill="#fff"/></g><path d="M205.067,56.857l-4.37.769,8.21-16.165.013.006-4.637,13.7,4.342-.765.016.017-8.433,15.195-.014-.006Z" transform="translate(-200.195 -41.461)" fill="#fff"/><g transform="translate(2.951 17.405)"><path d="M215.854,109.8l-2.338-.581,7.635-6.212.005.006-5.318,5.775,2.323.577,0,.012-7.531,5.682-.006-.006Z" transform="translate(-210.628 -103.007)" fill="#fff"/></g></g></g></g></svg>