<svg xmlns="http://www.w3.org/2000/svg" width="24" height="24" viewBox="0 0 24 24"><g transform="translate(0 0.346)"><circle cx="12" cy="12" r="12" transform="translate(0 -0.346)" fill="#ffecd1"/><g transform="translate(5 4)"><path d="M8.112,14.134V1.928H6.078V14.134H3.535l3.56,3.56,3.56-3.56Z" transform="translate(-3.535 -1.694)" fill="#f92"/><path d="M16.294,10.32a2.619,2.619,0,0,1-.676,1.8,2.909,2.909,0,0,1-1.756.935v1.2a.214.214,0,0,1-.061.158.211.211,0,0,1-.156.062h-.917a.208.208,0,0,1-.153-.065.212.212,0,0,1-.065-.154v-1.2a4.251,4.251,0,0,1-.866-.212,4.159,4.159,0,0,1-1.192-.634,3.877,3.877,0,0,1-.316-.257q-.085-.082-.119-.123a.209.209,0,0,1-.014-.281l.7-.925a.211.211,0,0,1,.156-.082.168.168,0,0,1,.163.062l.014.014a3.536,3.536,0,0,0,1.65.856,2.353,2.353,0,0,0,.5.055,1.637,1.637,0,0,0,.968-.295.962.962,0,0,0,.418-.836.7.7,0,0,0-.1-.363,1.282,1.282,0,0,0-.228-.288,1.862,1.862,0,0,0-.4-.257q-.272-.14-.448-.219t-.543-.223l-.418-.171q-.153-.062-.418-.182T11.6,8.488q-.16-.092-.384-.243a2.4,2.4,0,0,1-.363-.291,4.257,4.257,0,0,1-.3-.336,1.678,1.678,0,0,1-.241-.4,2.764,2.764,0,0,1-.143-.456,2.4,2.4,0,0,1-.058-.534,2.353,2.353,0,0,1,.666-1.658,3.1,3.1,0,0,1,1.732-.918V2.423a.211.211,0,0,1,.065-.154.208.208,0,0,1,.153-.065h.917a.211.211,0,0,1,.156.062.214.214,0,0,1,.061.158V3.628a3.75,3.75,0,0,1,.75.158,4.329,4.329,0,0,1,.591.229,3.266,3.266,0,0,1,.431.257q.2.144.265.2t.1.1a.2.2,0,0,1,.034.26l-.55,1a.185.185,0,0,1-.156.11.215.215,0,0,1-.183-.048q-.02-.021-.1-.082t-.265-.182a3.5,3.5,0,0,0-.4-.219,3.016,3.016,0,0,0-.506-.178,2.248,2.248,0,0,0-.581-.079,1.754,1.754,0,0,0-1.053.295.9.9,0,0,0-.407.76.912.912,0,0,0,.058.329.771.771,0,0,0,.2.284,3,3,0,0,0,.268.226,2.386,2.386,0,0,0,.38.212q.255.12.411.185t.475.188q.36.137.55.216t.516.24a4.094,4.094,0,0,1,.513.291,4.343,4.343,0,0,1,.421.342,1.77,1.77,0,0,1,.36.435,2.494,2.494,0,0,1,.214.524,2.278,2.278,0,0,1,.088.644Z" transform="translate(-2.554 -1.969)" fill="#f92"/></g></g></svg>