<svg xmlns="http://www.w3.org/2000/svg" width="24" height="24" viewBox="0 0 24 24"><g transform="translate(0 0.346)"><circle cx="12" cy="12" r="12" transform="translate(0 -0.346)" fill="#ffecd1"/><g transform="translate(4.538 4.058)"><path d="M4.586,12.231V0H2.548V12.231H0L3.567,15.8l3.567-3.567Z" transform="translate(7.134 15.798) rotate(180)" fill="#f92"/><path d="M16.7,10.358a2.548,2.548,0,0,1-.719,1.813,3.154,3.154,0,0,1-1.868.939v1.2a.209.209,0,0,1-.065.158.231.231,0,0,1-.166.062h-.976a.228.228,0,0,1-.163-.065.207.207,0,0,1-.069-.155v-1.2a4.746,4.746,0,0,1-.921-.213,4.979,4.979,0,0,1-.734-.306,4.9,4.9,0,0,1-.535-.33A4.086,4.086,0,0,1,10.149,12q-.09-.083-.126-.124a.2.2,0,0,1-.014-.282l.744-.929a.228.228,0,0,1,.166-.083.184.184,0,0,1,.173.062l.014.014a3.845,3.845,0,0,0,1.756.86,2.646,2.646,0,0,0,.535.055,1.815,1.815,0,0,0,1.03-.3.95.95,0,0,0,.444-.84.673.673,0,0,0-.108-.365,1.3,1.3,0,0,0-.242-.289,2,2,0,0,0-.423-.258q-.289-.141-.477-.22t-.578-.224L12.6,8.913q-.163-.062-.444-.182T11.7,8.517q-.17-.093-.408-.244a2.528,2.528,0,0,1-.387-.292,4.366,4.366,0,0,1-.314-.337,1.671,1.671,0,0,1-.257-.4,2.666,2.666,0,0,1-.152-.458,2.326,2.326,0,0,1,.647-2.2,3.362,3.362,0,0,1,1.843-.922V2.424a.207.207,0,0,1,.069-.155.228.228,0,0,1,.163-.065h.976a.231.231,0,0,1,.166.062.209.209,0,0,1,.065.158V3.635a4.2,4.2,0,0,1,.8.158,4.774,4.774,0,0,1,.629.231A3.525,3.525,0,0,1,16,4.282q.217.145.282.2t.108.1a.192.192,0,0,1,.036.262l-.585,1a.2.2,0,0,1-.166.11.239.239,0,0,1-.2-.048q-.022-.021-.1-.083t-.282-.182a3.791,3.791,0,0,0-.423-.22,3.337,3.337,0,0,0-.538-.179,2.525,2.525,0,0,0-.618-.079,1.948,1.948,0,0,0-1.12.3.892.892,0,0,0-.434.764.87.87,0,0,0,.061.33.776.776,0,0,0,.213.286,3.155,3.155,0,0,0,.285.227,2.584,2.584,0,0,0,.4.213q.271.12.437.186t.506.189q.383.138.585.217T15,8.111a4.43,4.43,0,0,1,.546.292A4.582,4.582,0,0,1,16,8.748a1.8,1.8,0,0,1,.383.437,2.429,2.429,0,0,1,.228.526,2.169,2.169,0,0,1,.094.647Z" transform="translate(-2.536 1.262)" fill="#f92"/></g></g></svg>