<svg xmlns="http://www.w3.org/2000/svg" width="24" height="24" viewBox="0 0 24 24"><g transform="translate(0 0.346)"><circle cx="12" cy="12" r="12" transform="translate(0 -0.346)" fill="#ffecd1"/><g transform="translate(4.596 2.42)"><path d="M17.7,12.123a3.2,3.2,0,0,1-.826,2.206,3.555,3.555,0,0,1-2.145,1.143v1.465a.262.262,0,0,1-.075.193.257.257,0,0,1-.191.075h-1.12a.254.254,0,0,1-.187-.08.259.259,0,0,1-.079-.188V15.471a5.2,5.2,0,0,1-1.058-.259,5.083,5.083,0,0,1-1.457-.774,4.738,4.738,0,0,1-.386-.314q-.1-.1-.145-.151a.256.256,0,0,1-.017-.343l.855-1.13a.258.258,0,0,1,.191-.1.2.2,0,0,1,.2.075l.017.017a4.321,4.321,0,0,0,2.017,1.046,2.875,2.875,0,0,0,.614.067,2,2,0,0,0,1.183-.36,1.176,1.176,0,0,0,.51-1.021.854.854,0,0,0-.124-.444,1.566,1.566,0,0,0-.278-.352,2.276,2.276,0,0,0-.486-.314q-.332-.172-.548-.268t-.664-.272l-.51-.209q-.187-.075-.51-.222t-.519-.259q-.2-.113-.469-.3a2.927,2.927,0,0,1-.444-.356,5.2,5.2,0,0,1-.361-.41,2.051,2.051,0,0,1-.295-.485,3.378,3.378,0,0,1-.174-.557,2.929,2.929,0,0,1-.071-.653A2.875,2.875,0,0,1,10.962,5.1a3.787,3.787,0,0,1,2.116-1.122V2.471a.258.258,0,0,1,.079-.188.254.254,0,0,1,.187-.08h1.12a.257.257,0,0,1,.191.075.262.262,0,0,1,.075.193V3.944a4.582,4.582,0,0,1,.917.193,5.29,5.29,0,0,1,.722.28,3.991,3.991,0,0,1,.527.314q.249.176.324.243t.124.117a.244.244,0,0,1,.041.318l-.672,1.222a.226.226,0,0,1-.191.134.263.263,0,0,1-.224-.059q-.025-.025-.12-.1t-.324-.222a4.271,4.271,0,0,0-.486-.268A3.686,3.686,0,0,0,14.75,5.9a2.747,2.747,0,0,0-.71-.1,2.143,2.143,0,0,0-1.286.36,1.1,1.1,0,0,0-.5.929,1.114,1.114,0,0,0,.071.4.942.942,0,0,0,.245.347,3.665,3.665,0,0,0,.328.276,2.916,2.916,0,0,0,.465.259q.311.146.5.226t.581.23q.44.167.672.264t.631.293a5,5,0,0,1,.627.356,5.307,5.307,0,0,1,.515.419,2.163,2.163,0,0,1,.44.532,3.048,3.048,0,0,1,.261.64,2.784,2.784,0,0,1,.108.787Z" transform="translate(-6.554 -0.969)" fill="#f92"/></g></g></svg>