<svg xmlns="http://www.w3.org/2000/svg" width="24" height="24" viewBox="0 0 24 24"><g transform="translate(0 0.346)"><circle cx="12" cy="12" r="12" transform="translate(0 -0.346)" fill="#ffecd1"/><path d="M16.69,5.31H15.167a3.81,3.81,0,0,0-7.619,0H6.024A1.522,1.522,0,0,0,4.508,6.833L4.5,15.976A1.528,1.528,0,0,0,6.024,17.5H16.69a1.528,1.528,0,0,0,1.524-1.524V6.833A1.528,1.528,0,0,0,16.69,5.31ZM11.357,3.024A2.283,2.283,0,0,1,13.643,5.31H9.071A2.283,2.283,0,0,1,11.357,3.024Zm0,7.619a3.811,3.811,0,0,1-3.81-3.81H9.071a2.286,2.286,0,0,0,4.571,0h1.524A3.811,3.811,0,0,1,11.357,10.643Z" transform="translate(0.5 2.154)" fill="#f92"/></g></svg>