<svg xmlns="http://www.w3.org/2000/svg" xmlns:xlink="http://www.w3.org/1999/xlink" width="231.678" height="189.185" viewBox="0 0 231.678 189.185"><defs><filter id="a" x="0" y="0" width="231.678" height="189.185" filterUnits="userSpaceOnUse"><feOffset dy="3" input="SourceAlpha"/><feGaussianBlur stdDeviation="20" result="b"/><feFlood flood-color="#7090b0" flood-opacity="0.2"/><feComposite operator="in" in2="b"/><feComposite in="SourceGraphic"/></filter><linearGradient id="c" y1="0.12" x2="0.933" y2="0.981" gradientUnits="objectBoundingBox"><stop offset="0" stop-color="#fff"/><stop offset="0.34" stop-color="#c9c9c9"/><stop offset="0.704" stop-color="#efefef"/><stop offset="1" stop-color="#fff"/></linearGradient></defs><g transform="translate(-7825.659 -4837.158)"><g transform="translate(7885.659 4894.158)"><g transform="translate(0 0)"><g transform="matrix(1, 0, 0, 1, -60, -57)" filter="url(#a)"><path d="M305.164,299.033a5.762,5.762,0,0,1-5.745,5.779H199.231a5.763,5.763,0,0,1-5.745-5.779V241.408a5.763,5.763,0,0,1,5.745-5.781H299.418a5.762,5.762,0,0,1,5.745,5.781Z" transform="translate(-133.49 -178.63)"/></g></g><g transform="translate(4.463 23.222)"><path d="M8.886,0c.025,17.836.024.007,0,17.772A8.886,8.886,0,0,1,8.886,0Z" transform="translate(98.152)" fill="#fdf036"/><path d="M2.423,0A2.423,2.423,0,0,1,4.847,2.423V7.27c-4.857.014.032-.013-4.847,0V2.423A2.423,2.423,0,0,1,2.423,0Z" transform="translate(83.611 1.616)" fill="#fff"/><path d="M2.423,0A2.423,2.423,0,0,1,4.847,2.423V7.27c-4.857.014.032-.013-4.847,0V2.423A2.423,2.423,0,0,1,2.423,0Z" transform="translate(0 10.908) rotate(-90)" fill="#fff"/><path d="M4.678,2.341C4.606.609,2.864-.344.491-.344A4.7,4.7,0,0,0-3.193,1.181,6.354,6.354,0,0,0-4.707,5.307H3.007A3.927,3.927,0,0,0,4.678,2.341Z" transform="translate(61.326 3.576)" fill="#fff"/><path d="M4.678,2.622C4.606,4.354,2.864,5.308.491,5.308A4.7,4.7,0,0,1-3.193,3.782,6.354,6.354,0,0,1-4.707-.344H3.007A3.927,3.927,0,0,1,4.678,2.622Z" transform="translate(71.02 9.228)" fill="#fff237"/><path d="M2,1.573C1.944.337.7-.344-1-.344A3.357,3.357,0,0,0-3.626.745,4.538,4.538,0,0,0-4.707,3.692H.8A2.8,2.8,0,0,0,2,1.573Z" transform="translate(41.391 5.191)" fill="#fff"/><path d="M1.7,1.681C1.651,2.863.462,3.514-1.159,3.514A3.209,3.209,0,0,1-3.674,2.473,4.338,4.338,0,0,1-4.707-.344H.559A2.681,2.681,0,0,1,1.7,1.681Z" transform="translate(46.785 9.228)" fill="#fff237"/></g><g transform="translate(10.166 19.835)"><g transform="translate(0 11.617)"><path d="M199.778,255.4a2.6,2.6,0,0,0,2.6,2.6h2.755v-2.91h-5.354Z" transform="translate(-199.778 -255.094)" fill="#536e86"/></g><g transform="translate(0 7.725)"><rect width="5.353" height="2.968" fill="#536e86"/></g><path d="M199.778,250.505v.31h5.354V247.9h-2.755A2.6,2.6,0,0,0,199.778,250.505Z" transform="translate(-199.778 -247.904)" fill="#536e86"/><g transform="translate(6.277)"><path d="M210.925,247.9h-7.262V262.43h3.693V250.815h6.169v-.31A2.6,2.6,0,0,0,210.925,247.9Z" transform="translate(-203.663 -247.904)" fill="#536e86"/></g><g transform="translate(0 3.834)"><rect width="5.353" height="2.968" fill="#536e86"/></g><g transform="translate(10.893 3.834)"><rect width="5.246" height="2.968" fill="#536e86"/></g><g transform="translate(10.893 7.725)"><rect width="5.246" height="2.968" fill="#536e86"/></g><g transform="translate(10.893 11.617)"><path d="M206.52,258h2.646a2.6,2.6,0,0,0,2.6-2.6v-.309H206.52Z" transform="translate(-206.52 -255.094)" fill="#536e86"/></g></g><g transform="translate(9.386 19.221)"><path d="M2364.428,2363.03h14.125a1.4,1.4,0,0,1,1.4,1.388v14.036a1.4,1.4,0,0,1-1.4,1.388h-14.125a1.4,1.4,0,0,1-1.4-1.388v-14.036A1.4,1.4,0,0,1,2364.428,2363.03Z" transform="translate(-2363.031 -2363.03)" fill="url(#c)"/><path d="M2364.428,2363.03h14.125a1.4,1.4,0,0,1,1.4,1.388v14.036a1.4,1.4,0,0,1-1.4,1.388h-14.125a1.4,1.4,0,0,1-1.4-1.388v-14.036A1.4,1.4,0,0,1,2364.428,2363.03Zm9.714,15.25h5.509v-3.224h-4.171a1.175,1.175,0,0,1-1.026-.385h-2.931v.985l1.188,1.181a.093.093,0,0,1-.133.132l-1.15-1.143-2.585,2.57,0,1.148h5.164v-1.134l-.86-.854a.093.093,0,0,1,.133-.132Zm5.509.186H2374.2v1.079h4.357A1.1,1.1,0,0,0,2379.652,2378.466Zm-10.994-.015h-5.328a1.1,1.1,0,0,0,1.1,1.094h4.233Zm-5.328-.186h5.381l2.625-2.608v-.985h-2.872a1.176,1.176,0,0,1-1.027.385h-4.107Zm5-3.73a1.144,1.144,0,0,0,.132-.569v-2.431h-5.132v3.335h4.107A.98.98,0,0,0,2368.331,2374.536Zm.23-.049h5.8a1.349,1.349,0,0,1-.088-.52v-5.072a1.693,1.693,0,0,1,.022-.347h-2.937v-1.056l-1.141-1.133a.093.093,0,0,1,.132-.132l1.1,1.095,2.632-2.849v-1.146h-5.219v1.15l.968,1.244a.093.093,0,0,1-.132.131l-.968-1.244h-5.4v3.36h4.521c.557.018.815.29.8.88v5.118A1.433,1.433,0,0,1,2368.561,2374.487Zm2.98-6.995v.87h2.808a.774.774,0,0,1,.762-.394h4.541V2364.6h-5.441Zm2.915,3.859h5.2v-3.2h-4.532c-.542,0-.664.233-.664.746Zm5.2.185h-5.2v2.431c.013.716.349.9,1.024.9h4.171Zm-16.322-.185h5.132v-2.5c.014-.441-.146-.672-.611-.692h-4.521Zm0-6.928h5.344v-1.1h-4.245a1.1,1.1,0,0,0-1.1,1.091Zm10.936-1.1v1.091h5.386a1.1,1.1,0,0,0-1.1-1.091Z" transform="translate(-2363.031 -2363.03)"/></g><path d="M92.1,137.831c-.013,1.053.938,1.64,1.655,1.989.736.358.984.588.981.909-.006.491-.587.707-1.132.715a3.949,3.949,0,0,1-1.941-.462l-.342,1.6a5.691,5.691,0,0,0,2.1.388c1.986,0,3.285-.98,3.292-2.5.008-1.929-2.668-2.036-2.65-2.9.006-.261.256-.54.8-.611a3.559,3.559,0,0,1,1.864.327l.332-1.549a5.068,5.068,0,0,0-1.769-.325c-1.869,0-3.184.994-3.194,2.416m8.157-2.282a.862.862,0,0,0-.8.536l-2.837,6.773H98.6L99,141.766h2.425l.229,1.091H103.4l-1.526-7.309Zm.278,1.974.573,2.745H99.541ZM89.7,135.549l-1.564,7.309h1.891l1.563-7.309Zm-2.8,0-1.968,4.975-.8-4.23a.881.881,0,0,0-.872-.745H80.045l-.045.212a7.871,7.871,0,0,1,1.866.622.8.8,0,0,1,.449.642l1.508,5.833h2l3.064-7.309Z" transform="translate(-4.031 -80.699)" fill="#fff" fill-rule="evenodd"/><path d="M2.148-.137H.7V1.385H.248V-2.061H2.382v.374H.7V-.508H2.148ZM3.334,1.385H2.9V-2.25h.438ZM5.1,1.433a1.119,1.119,0,0,1-.847-.342A1.269,1.269,0,0,1,3.923.176V.1a1.537,1.537,0,0,1,.146-.68,1.135,1.135,0,0,1,.407-.469,1.023,1.023,0,0,1,.567-.169.959.959,0,0,1,.776.329A1.424,1.424,0,0,1,6.1.048V.23H4.361a.91.91,0,0,0,.221.612.7.7,0,0,0,.538.233A.763.763,0,0,0,5.513.981.987.987,0,0,0,5.8.73l.267.208A1.075,1.075,0,0,1,5.1,1.433Zm-.054-2.3A.584.584,0,0,0,4.6-.67a.938.938,0,0,0-.222.541H5.658V-.163a.834.834,0,0,0-.18-.517A.55.55,0,0,0,5.043-.863Zm2.622,2.3a1.119,1.119,0,0,1-.847-.342A1.269,1.269,0,0,1,6.491.176V.1a1.537,1.537,0,0,1,.146-.68,1.135,1.135,0,0,1,.407-.469,1.023,1.023,0,0,1,.567-.169.959.959,0,0,1,.776.329,1.424,1.424,0,0,1,.277.942V.23H6.929A.91.91,0,0,0,7.15.842a.7.7,0,0,0,.538.233A.763.763,0,0,0,8.081.981.987.987,0,0,0,8.363.73L8.63.938A1.075,1.075,0,0,1,7.665,1.433ZM7.61-.863a.584.584,0,0,0-.445.193.938.938,0,0,0-.222.541H8.226V-.163a.834.834,0,0,0-.18-.517A.55.55,0,0,0,7.61-.863ZM9.764-1.8v.62h.478v.338H9.764V.751a.355.355,0,0,0,.064.231.269.269,0,0,0,.218.077,1.06,1.06,0,0,0,.208-.028v.355a1.269,1.269,0,0,1-.336.047.545.545,0,0,1-.443-.178.763.763,0,0,1-.149-.5V-.837H8.86v-.338h.466V-1.8Z" transform="translate(88.227 12.143)" fill="#fff" stroke="rgba(0,0,0,0)" stroke-width="1"/><path d="M.936-.048v1.8H.33V-2.844H2.025a1.7,1.7,0,0,1,1.182.385A1.305,1.305,0,0,1,3.634-1.44a1.288,1.288,0,0,1-.418,1.03,1.779,1.779,0,0,1-1.2.361Zm0-.5H2.025a1.09,1.09,0,0,0,.745-.229.836.836,0,0,0,.259-.661.863.863,0,0,0-.259-.656,1.021,1.021,0,0,0-.71-.256H.936ZM4.12.012a2.017,2.017,0,0,1,.2-.9,1.471,1.471,0,0,1,.549-.618,1.5,1.5,0,0,1,.8-.218A1.44,1.44,0,0,1,6.8-1.244,1.857,1.857,0,0,1,7.228.04V.081a2.034,2.034,0,0,1-.191.895,1.45,1.45,0,0,1-.546.617,1.512,1.512,0,0,1-.816.221,1.436,1.436,0,0,1-1.125-.483A1.848,1.848,0,0,1,4.12.053Zm.587.069A1.461,1.461,0,0,0,4.97.993a.843.843,0,0,0,.705.344A.838.838,0,0,0,6.382.989,1.6,1.6,0,0,0,6.644.012,1.458,1.458,0,0,0,6.378-.9a.848.848,0,0,0-.708-.349.838.838,0,0,0-.7.344A1.585,1.585,0,0,0,4.707.081ZM9.948.845A.43.43,0,0,0,9.77.477,1.716,1.716,0,0,0,9.148.252a2.939,2.939,0,0,1-.7-.227A1,1,0,0,1,8.06-.291a.755.755,0,0,1-.125-.435.886.886,0,0,1,.355-.71,1.386,1.386,0,0,1,.907-.29,1.427,1.427,0,0,1,.942.3A.952.952,0,0,1,10.5-.66H9.914a.527.527,0,0,0-.2-.413A.763.763,0,0,0,9.2-1.247a.8.8,0,0,0-.5.139.437.437,0,0,0-.18.363.354.354,0,0,0,.167.319,2.058,2.058,0,0,0,.6.205A3.149,3.149,0,0,1,10,.012a1.033,1.033,0,0,1,.4.327A.8.8,0,0,1,10.532.8a.874.874,0,0,1-.366.734,1.535,1.535,0,0,1-.95.276,1.719,1.719,0,0,1-.726-.145A1.18,1.18,0,0,1,8,1.263.977.977,0,0,1,7.818.7H8.4a.6.6,0,0,0,.235.465.912.912,0,0,0,.579.172A.941.941,0,0,0,9.748,1.2.412.412,0,0,0,9.948.845ZM12.085-2.49v.827h.637v.451h-.637V.905a.473.473,0,0,0,.085.308.359.359,0,0,0,.29.1,1.413,1.413,0,0,0,.278-.038v.473a1.692,1.692,0,0,1-.448.063.727.727,0,0,1-.59-.237,1.017,1.017,0,0,1-.2-.672V-1.212h-.622v-.451H11.5V-2.49Zm1.868.827.016.379a1.261,1.261,0,0,1,1.013-.442.976.976,0,0,1,.975.549,1.293,1.293,0,0,1,.443-.4,1.309,1.309,0,0,1,.645-.151q1.123,0,1.142,1.19V1.751H17.6V-.5a.784.784,0,0,0-.167-.547.737.737,0,0,0-.562-.181.774.774,0,0,0-.54.194.787.787,0,0,0-.249.522V1.751H15.5V-.487a.651.651,0,0,0-.729-.745.781.781,0,0,0-.786.489V1.751H13.4V-1.664Zm7.223,3.414a1.226,1.226,0,0,1-.082-.36,1.3,1.3,0,0,1-.972.423,1.205,1.205,0,0,1-.828-.286A.924.924,0,0,1,18.97.8a.965.965,0,0,1,.405-.828,1.912,1.912,0,0,1,1.141-.3h.568V-.588a.656.656,0,0,0-.183-.488.736.736,0,0,0-.54-.181.851.851,0,0,0-.524.158.465.465,0,0,0-.211.382H19.04a.806.806,0,0,1,.181-.494,1.238,1.238,0,0,1,.492-.377,1.656,1.656,0,0,1,.683-.139,1.35,1.35,0,0,1,.925.3,1.064,1.064,0,0,1,.347.813V.952a1.921,1.921,0,0,0,.12.748v.05Zm-.969-.445a1.026,1.026,0,0,0,.521-.142.859.859,0,0,0,.357-.369v-.7h-.458q-1.073,0-1.073.628a.531.531,0,0,0,.183.429A.7.7,0,0,0,20.207,1.306Zm3.168-3.8v.827h.637v.451h-.637V.905a.473.473,0,0,0,.085.308.359.359,0,0,0,.29.1,1.413,1.413,0,0,0,.278-.038v.473a1.692,1.692,0,0,1-.448.063.727.727,0,0,1-.59-.237,1.017,1.017,0,0,1-.2-.672V-1.212H22.17v-.451h.622V-2.49Zm2.736,4.3a1.492,1.492,0,0,1-1.13-.456,1.692,1.692,0,0,1-.435-1.22V.031a2.049,2.049,0,0,1,.194-.907,1.514,1.514,0,0,1,.543-.625,1.365,1.365,0,0,1,.756-.226,1.279,1.279,0,0,1,1.035.439,1.9,1.9,0,0,1,.369,1.256V.211H25.13a1.214,1.214,0,0,0,.3.816.927.927,0,0,0,.718.311,1.017,1.017,0,0,0,.524-.126,1.316,1.316,0,0,0,.376-.334l.357.278A1.434,1.434,0,0,1,26.111,1.814Zm-.073-3.061a.779.779,0,0,0-.593.257,1.25,1.25,0,0,0-.3.721h1.71V-.313A1.112,1.112,0,0,0,26.619-1,.733.733,0,0,0,26.039-1.247ZM30.106.845a.43.43,0,0,0-.178-.368,1.716,1.716,0,0,0-.622-.226,2.939,2.939,0,0,1-.7-.227,1,1,0,0,1-.385-.316.755.755,0,0,1-.125-.435.886.886,0,0,1,.355-.71,1.386,1.386,0,0,1,.907-.29,1.427,1.427,0,0,1,.942.3.952.952,0,0,1,.361.767h-.587a.527.527,0,0,0-.2-.413.763.763,0,0,0-.513-.174.8.8,0,0,0-.5.139.437.437,0,0,0-.18.363.354.354,0,0,0,.167.319,2.058,2.058,0,0,0,.6.205,3.149,3.149,0,0,1,.708.234,1.033,1.033,0,0,1,.4.327A.8.8,0,0,1,30.69.8a.874.874,0,0,1-.366.734,1.535,1.535,0,0,1-.95.276,1.719,1.719,0,0,1-.726-.145,1.18,1.18,0,0,1-.494-.405A.977.977,0,0,1,27.976.7h.584a.6.6,0,0,0,.235.465.912.912,0,0,0,.579.172.941.941,0,0,0,.532-.134A.412.412,0,0,0,30.106.845Z" transform="translate(9.112 11.777)" fill="#fff" stroke="rgba(0,0,0,0)" stroke-width="1"/><path d="M2.737-1.741H1.629V1.331H1.177V-1.741H.072v-.374H2.737ZM2.829.027A1.513,1.513,0,0,1,2.977-.65a1.1,1.1,0,0,1,.412-.464,1.121,1.121,0,0,1,.6-.163,1.08,1.08,0,0,1,.846.362A1.393,1.393,0,0,1,5.16.048V.079A1.526,1.526,0,0,1,5.017.75a1.087,1.087,0,0,1-.409.463A1.134,1.134,0,0,1,4,1.378a1.077,1.077,0,0,1-.844-.362A1.386,1.386,0,0,1,2.829.058Zm.44.052a1.1,1.1,0,0,0,.2.684.67.67,0,0,0,1.059,0,1.2,1.2,0,0,0,.2-.732,1.094,1.094,0,0,0-.2-.683.636.636,0,0,0-.531-.262.629.629,0,0,0-.523.258A1.189,1.189,0,0,0,3.269.079ZM6.121-1.23l.012.284a.946.946,0,0,1,.76-.331.732.732,0,0,1,.731.412.97.97,0,0,1,.333-.3.982.982,0,0,1,.484-.114q.843,0,.857.892V1.331H8.859V-.359a.588.588,0,0,0-.125-.411.552.552,0,0,0-.421-.136.581.581,0,0,0-.4.146.59.59,0,0,0-.187.392v1.7h-.44V-.347a.489.489,0,0,0-.547-.559.586.586,0,0,0-.589.367v1.87H5.707V-1.23Zm5.417,2.561a.92.92,0,0,1-.062-.27.977.977,0,0,1-.729.317.9.9,0,0,1-.621-.214A.693.693,0,0,1,9.884.621a.724.724,0,0,1,.3-.621,1.434,1.434,0,0,1,.856-.221h.426v-.2a.492.492,0,0,0-.137-.366.552.552,0,0,0-.4-.136.638.638,0,0,0-.393.118.349.349,0,0,0-.159.286h-.44a.6.6,0,0,1,.136-.37.929.929,0,0,1,.369-.283,1.242,1.242,0,0,1,.512-.1,1.012,1.012,0,0,1,.693.221.8.8,0,0,1,.26.609V.732a1.441,1.441,0,0,0,.09.561v.038ZM10.812,1A.769.769,0,0,0,11.2.891.644.644,0,0,0,11.47.614V.089h-.343q-.8,0-.8.471a.4.4,0,0,0,.137.322A.528.528,0,0,0,10.812,1ZM14.085.652a.322.322,0,0,0-.134-.276,1.287,1.287,0,0,0-.466-.169,2.2,2.2,0,0,1-.528-.17A.751.751,0,0,1,12.669-.2a.566.566,0,0,1-.093-.327.664.664,0,0,1,.266-.533,1.04,1.04,0,0,1,.68-.218,1.07,1.07,0,0,1,.706.225.714.714,0,0,1,.271.575h-.44a.4.4,0,0,0-.153-.31.572.572,0,0,0-.385-.13.6.6,0,0,0-.374.1.328.328,0,0,0-.135.272.266.266,0,0,0,.125.239,1.543,1.543,0,0,0,.453.154,2.361,2.361,0,0,1,.531.175.775.775,0,0,1,.3.245.6.6,0,0,1,.1.349.655.655,0,0,1-.275.55,1.152,1.152,0,0,1-.712.207,1.289,1.289,0,0,1-.544-.109.885.885,0,0,1-.37-.3.733.733,0,0,1-.134-.422h.438A.453.453,0,0,0,13.1.892a.684.684,0,0,0,.434.129.706.706,0,0,0,.4-.1A.309.309,0,0,0,14.085.652Zm2.277.679V-2.115h.973a1.566,1.566,0,0,1,.8.2,1.345,1.345,0,0,1,.534.566,1.841,1.841,0,0,1,.191.843v.22a1.848,1.848,0,0,1-.188.854,1.323,1.323,0,0,1-.537.563,1.666,1.666,0,0,1-.813.2Zm.454-3.072V.96h.478a1.041,1.041,0,0,0,.818-.327A1.349,1.349,0,0,0,18.4-.3V-.5a1.37,1.37,0,0,0-.276-.912.982.982,0,0,0-.782-.33Zm3.131,3.072H19.51V-1.23h.438Zm-.473-3.24a.261.261,0,0,1,.065-.18.244.244,0,0,1,.193-.073.248.248,0,0,1,.194.073.259.259,0,0,1,.066.18.25.25,0,0,1-.066.178.253.253,0,0,1-.194.071.249.249,0,0,1-.193-.071A.253.253,0,0,1,19.474-1.909Zm2.755,3.24a.92.92,0,0,1-.062-.27.977.977,0,0,1-.729.317.9.9,0,0,1-.621-.214.693.693,0,0,1-.243-.543.724.724,0,0,1,.3-.621,1.434,1.434,0,0,1,.856-.221h.426v-.2a.492.492,0,0,0-.137-.366.552.552,0,0,0-.4-.136.638.638,0,0,0-.393.118.349.349,0,0,0-.159.286h-.44a.6.6,0,0,1,.136-.37.929.929,0,0,1,.369-.283,1.242,1.242,0,0,1,.512-.1,1.012,1.012,0,0,1,.693.221.8.8,0,0,1,.26.609V.732a1.441,1.441,0,0,0,.09.561v.038ZM21.5,1a.769.769,0,0,0,.39-.107A.644.644,0,0,0,22.16.614V.089h-.343q-.8,0-.8.471a.4.4,0,0,0,.137.322A.528.528,0,0,0,21.5,1ZM23.7.974h1.5v.357H23.161V1.009L24.574-.868H23.183V-1.23h1.941v.31Z" transform="translate(8.953 60.666)" fill="#fff" stroke="rgba(0,0,0,0)" stroke-width="1"/></g><g transform="translate(7857 4863.5)"><g transform="translate(0 18.348)" fill="rgba(255,255,255,0)" stroke="rgba(0,0,0,0)" stroke-width="1"><rect width="167" height="112" stroke="none"/><rect x="0.5" y="0.5" width="166" height="111" fill="none"/></g><g transform="translate(0 0)"><path d="M.958-9.457h.864L3.1-5.694,4.37-9.457h.854v4.451H4.652V-7.633q0-.136.006-.451t.006-.676L3.395-5.006H2.8L1.519-8.761v.136q0,.164.008.5t.008.492v2.627H.958Zm7.2-.121A2.038,2.038,0,0,1,9.9-8.821a2.455,2.455,0,0,1,.442,1.512,2.646,2.646,0,0,1-.506,1.657,2.007,2.007,0,0,1-1.694.776A2.024,2.024,0,0,1,6.53-5.555a2.563,2.563,0,0,1-.524-1.654,2.631,2.631,0,0,1,.448-1.545A1.943,1.943,0,0,1,8.157-9.579Zm.061,4.163A1.255,1.255,0,0,0,9.37-5.987,2.431,2.431,0,0,0,9.726-7.3a1.874,1.874,0,0,0-.411-1.263,1.4,1.4,0,0,0-1.123-.479,1.462,1.462,0,0,0-1.127.474,2,2,0,0,0-.436,1.4A2.043,2.043,0,0,0,7-5.923,1.407,1.407,0,0,0,8.217-5.415Zm2.938-4.042h.712l2.248,3.606V-9.457h.573v4.451h-.676l-2.282-3.6v3.6h-.576Z" transform="translate(-0.501 126.488)" fill="#202426" opacity="0.6"/><path d="M3.821-9.325v.53h-1.5v3.921H1.709V-8.794H.209v-.53Zm1.3,0v2.751a1.618,1.618,0,0,0,.182.806.955.955,0,0,0,.909.485,1.068,1.068,0,0,0,1.042-.524A1.669,1.669,0,0,0,7.4-6.574V-9.325h.612v2.5a2.892,2.892,0,0,1-.221,1.263,1.554,1.554,0,0,1-1.533.806,1.548,1.548,0,0,1-1.53-.806,2.892,2.892,0,0,1-.221-1.263v-2.5Zm3.977,0h3.245v.545H9.685v1.351h2.457v.515H9.685V-5.4h2.7v.53H9.1Z" transform="translate(28.053 126.355)" fill="#202426" opacity="0.6"/><path d="M.889-9.325,1.729-5.7,2.735-9.325h.654L4.395-5.7l.839-3.621h.661L4.725-4.874H4.092L3.065-8.564,2.032-4.874H1.4L.235-9.325Zm5.714,0H9.848v.545H7.191v1.351H9.648v.515H7.191V-5.4h2.7v.53H6.6Zm5.883,3.936a1.666,1.666,0,0,0,.5-.064,1.106,1.106,0,0,0,.576-.454,1.863,1.863,0,0,0,.258-.691,2.635,2.635,0,0,0,.045-.467,2.173,2.173,0,0,0-.329-1.285,1.214,1.214,0,0,0-1.059-.458h-1.07v3.418ZM10.8-9.325h1.8a1.7,1.7,0,0,1,1.424.651,2.4,2.4,0,0,1,.451,1.506,3,3,0,0,1-.267,1.282A1.645,1.645,0,0,1,12.6-4.874H10.8Z" transform="translate(54.293 126.355)" fill="#202426" opacity="0.6"/><path d="M3.821-9.325v.53h-1.5v3.921H1.709V-8.794H.209v-.53Zm.66,0H5.09v1.839H7.4V-9.325h.609v4.451H7.4V-6.955H5.09v2.082H4.481Zm5.214,0v2.751a1.618,1.618,0,0,0,.182.806.955.955,0,0,0,.909.485,1.068,1.068,0,0,0,1.042-.524,1.669,1.669,0,0,0,.148-.767V-9.325h.612v2.5a2.892,2.892,0,0,1-.221,1.263,1.554,1.554,0,0,1-1.533.806A1.548,1.548,0,0,1,9.3-5.561a2.892,2.892,0,0,1-.221-1.263v-2.5Z" transform="translate(81.992 126.355)" fill="#202426" opacity="0.6"/><path d="M1.111-9.325H4.2v.545H1.714v1.351H3.9v.53H1.714v2.024h-.6Zm5.9,2.039a1.168,1.168,0,0,0,.671-.17.691.691,0,0,0,.247-.612.657.657,0,0,0-.345-.648,1.129,1.129,0,0,0-.494-.091H5.613v1.521Zm-2-2.039H7.07a2.055,2.055,0,0,1,.839.148,1.051,1.051,0,0,1,.627,1.051,1.182,1.182,0,0,1-.165.654,1.193,1.193,0,0,1-.462.409.91.91,0,0,1,.392.279,1,1,0,0,1,.147.561l.021.6a1.835,1.835,0,0,0,.042.379.372.372,0,0,0,.194.273v.1H7.967a.556.556,0,0,1-.048-.148,2.85,2.85,0,0,1-.03-.351l-.036-.742A.624.624,0,0,0,7.527-6.7a1.341,1.341,0,0,0-.542-.082H5.613v1.909h-.6Zm4.638,0h.609v4.451H9.648Z" transform="translate(107.774 126.355)" fill="#202426" opacity="0.6"/><path d="M1.195-6.433a1.216,1.216,0,0,0,.179.615,1.185,1.185,0,0,0,1.057.442,1.872,1.872,0,0,0,.618-.1.687.687,0,0,0,.539-.673.581.581,0,0,0-.227-.518,2.3,2.3,0,0,0-.721-.264l-.6-.136A2.73,2.73,0,0,1,1.2-7.357.931.931,0,0,1,.777-8.19a1.283,1.283,0,0,1,.415-.985A1.665,1.665,0,0,1,2.367-9.56a2.042,2.042,0,0,1,1.189.338,1.219,1.219,0,0,1,.489,1.08H3.479a1.115,1.115,0,0,0-.194-.548,1.127,1.127,0,0,0-.936-.348,1.083,1.083,0,0,0-.767.224.7.7,0,0,0-.233.521.509.509,0,0,0,.273.479,4,4,0,0,0,.809.242l.624.142a1.912,1.912,0,0,1,.7.282,1.055,1.055,0,0,1,.424.906,1.131,1.131,0,0,1-.538,1.057,2.409,2.409,0,0,1-1.25.318,1.869,1.869,0,0,1-1.3-.424A1.431,1.431,0,0,1,.628-6.433ZM7.318-6.82,6.642-8.787,5.924-6.82ZM6.327-9.447h.682L8.623-5H7.963L7.511-6.33H5.751L5.269-5H4.651Zm5.72,0v.53h-1.5V-5H9.935V-8.917h-1.5v-.53Z" transform="translate(130.462 126.478)" fill="#202426" opacity="0.6"/><path d="M1.195-6.433a1.216,1.216,0,0,0,.179.615,1.185,1.185,0,0,0,1.057.442,1.872,1.872,0,0,0,.618-.1.687.687,0,0,0,.539-.673.581.581,0,0,0-.227-.518,2.3,2.3,0,0,0-.721-.264l-.6-.136A2.73,2.73,0,0,1,1.2-7.357.931.931,0,0,1,.777-8.19a1.283,1.283,0,0,1,.415-.985A1.665,1.665,0,0,1,2.367-9.56a2.042,2.042,0,0,1,1.189.338,1.219,1.219,0,0,1,.489,1.08H3.479a1.115,1.115,0,0,0-.194-.548,1.127,1.127,0,0,0-.936-.348,1.083,1.083,0,0,0-.767.224.7.7,0,0,0-.233.521.509.509,0,0,0,.273.479,4,4,0,0,0,.809.242l.624.142a1.912,1.912,0,0,1,.7.282,1.055,1.055,0,0,1,.424.906,1.131,1.131,0,0,1-.538,1.057,2.409,2.409,0,0,1-1.25.318,1.869,1.869,0,0,1-1.3-.424A1.431,1.431,0,0,1,.628-6.433ZM5.687-9.447V-6.7a1.618,1.618,0,0,0,.182.806.955.955,0,0,0,.909.485A1.068,1.068,0,0,0,7.82-5.93,1.669,1.669,0,0,0,7.969-6.7V-9.447h.612v2.5A2.892,2.892,0,0,1,8.36-5.684a1.554,1.554,0,0,1-1.533.806A1.548,1.548,0,0,1,5.3-5.684a2.892,2.892,0,0,1-.221-1.263v-2.5Zm3.92,0h.712l2.248,3.606V-9.447h.573V-5h-.676L10.183-8.6V-5H9.607Z" transform="translate(155.283 126.478)" fill="#202426" opacity="0.6"/><path d="M-511,1429.139l12.769-13.233,13.433,13.233,17.955-22.621,24.027-6.875,15.6-21.633,12.982,8.646,16.551-13.233,23.383-21.869,9.872-9.689L-357.1,1350l14.126-14.641" transform="translate(511 -1326.834)" fill="none" stroke="#6280e6" stroke-width="3"/><line y2="107.4" transform="translate(136.937)" fill="none" stroke="#58c829" stroke-width="0.5"/><g transform="translate(133.654 21.241)" fill="#58c829"><path d="M 3.341344118118286 5.682683944702148 C 2.050324201583862 5.682683944702148 1.000004172325134 4.632364273071289 1.000004172325134 3.341344118118286 C 1.000004172325134 2.050324201583862 2.050324201583862 1.000004172325134 3.341344118118286 1.000004172325134 C 4.632364273071289 1.000004172325134 5.682683944702148 2.050324201583862 5.682683944702148 3.341344118118286 C 5.682683944702148 4.632364273071289 4.632364273071289 5.682683944702148 3.341344118118286 5.682683944702148 Z" stroke="none"/><path d="M 3.341344118118286 2.000004291534424 C 2.601724147796631 2.000004291534424 2.000004291534424 2.601724147796631 2.000004291534424 3.341344118118286 C 2.000004291534424 4.080964088439941 2.601724147796631 4.682683944702148 3.341344118118286 4.682683944702148 C 4.080964088439941 4.682683944702148 4.682683944702148 4.080964088439941 4.682683944702148 3.341344118118286 C 4.682683944702148 2.601724147796631 4.080964088439941 2.000004291534424 3.341344118118286 2.000004291534424 M 3.341344118118286 4.291534423828125e-06 C 5.186714172363281 4.291534423828125e-06 6.682683944702148 1.495974063873291 6.682683944702148 3.341344118118286 C 6.682683944702148 5.186714172363281 5.186714172363281 6.682683944702148 3.341344118118286 6.682683944702148 C 1.495974063873291 6.682683944702148 4.291534423828125e-06 5.186714172363281 4.291534423828125e-06 3.341344118118286 C 4.291534423828125e-06 1.495974063873291 1.495974063873291 4.291534423828125e-06 3.341344118118286 4.291534423828125e-06 Z" stroke="none" fill="#fff"/></g><path d="M.5-5.99a3.114,3.114,0,0,1,.285-1.2,2.309,2.309,0,0,1,.968-.929l.716-.414a3.371,3.371,0,0,0,.675-.477.981.981,0,0,0,.306-.709.989.989,0,0,0-.28-.74,1.02,1.02,0,0,0-.746-.274.975.975,0,0,0-.955.522,1.869,1.869,0,0,0-.157.776H.631a2.4,2.4,0,0,1,.257-1.137,1.615,1.615,0,0,1,1.54-.776,1.669,1.669,0,0,1,1.341.5,1.659,1.659,0,0,1,.423,1.1,1.5,1.5,0,0,1-.451,1.1,4.418,4.418,0,0,1-.936.641l-.511.283a3.309,3.309,0,0,0-.574.384,1.4,1.4,0,0,0-.47.72H4.166v.634ZM5.544-7.351a.931.931,0,0,0,.533.794,1.287,1.287,0,0,0,.552.112,1.036,1.036,0,0,0,.884-.38A1.366,1.366,0,0,0,7.8-7.668a1.1,1.1,0,0,0-.341-.865,1.184,1.184,0,0,0-.819-.306,1.233,1.233,0,0,0-.595.134,1.274,1.274,0,0,0-.423.373l-.582-.034.406-2.875H8.222v.649H5.95L5.723-9.108a1.668,1.668,0,0,1,.354-.213,1.8,1.8,0,0,1,.69-.123,1.765,1.765,0,0,1,1.246.474,1.566,1.566,0,0,1,.511,1.2,2.06,2.06,0,0,1-.468,1.335,1.81,1.81,0,0,1-1.494.578,1.9,1.9,0,0,1-1.154-.367,1.457,1.457,0,0,1-.561-1.128Zm4.03,2.141a.47.47,0,0,0,.362-.362A1.024,1.024,0,0,0,9.991-5.9q0-.026,0-.047A.257.257,0,0,0,9.98-5.99H9.574V-6.8h.8v.753a1.632,1.632,0,0,1-.179.779.816.816,0,0,1-.619.414Zm3.813-6.142a1.475,1.475,0,0,1,1.247.464,1.566,1.566,0,0,1,.352.957h-.664a1.224,1.224,0,0,0-.19-.5.846.846,0,0,0-.735-.336,1.017,1.017,0,0,0-.9.52,3,3,0,0,0-.369,1.49,1.459,1.459,0,0,1,.582-.507,1.677,1.677,0,0,1,.716-.149,1.742,1.742,0,0,1,1.171.429A1.593,1.593,0,0,1,15.1-7.7a1.94,1.94,0,0,1-.474,1.288,1.668,1.668,0,0,1-1.35.561,1.731,1.731,0,0,1-1.294-.569,2.727,2.727,0,0,1-.544-1.915,5.154,5.154,0,0,1,.242-1.689A1.721,1.721,0,0,1,13.387-11.353Zm-.048,4.9a.921.921,0,0,0,.792-.356,1.377,1.377,0,0,0,.263-.841,1.438,1.438,0,0,0-.235-.781A.931.931,0,0,0,13.3-8.8a1.113,1.113,0,0,0-.759.287,1.092,1.092,0,0,0-.326.865,1.262,1.262,0,0,0,.3.852A1.026,1.026,0,0,0,13.339-6.449Zm4.138.6a1.678,1.678,0,0,1-1.374-.52,1.931,1.931,0,0,1-.427-1.266h.7a1.739,1.739,0,0,0,.194.753,1.02,1.02,0,0,0,.943.421,1.237,1.237,0,0,0,.85-.283.931.931,0,0,0,.321-.731.851.851,0,0,0-.337-.772,1.708,1.708,0,0,0-.938-.22l-.136,0-.14.006v-.593q.1.011.175.015t.153,0a1.4,1.4,0,0,0,.619-.119.758.758,0,0,0,.425-.746.728.728,0,0,0-.283-.615,1.057,1.057,0,0,0-.66-.216.979.979,0,0,0-.929.448,1.551,1.551,0,0,0-.16.7h-.664a2.014,2.014,0,0,1,.239-1.014,1.5,1.5,0,0,1,1.443-.746,1.956,1.956,0,0,1,1.264.364A1.278,1.278,0,0,1,19.2-9.921a1.176,1.176,0,0,1-.265.8,1.112,1.112,0,0,1-.425.3,1.159,1.159,0,0,1,.658.446,1.348,1.348,0,0,1,.237.807,1.646,1.646,0,0,1-.5,1.246A1.986,1.986,0,0,1,17.476-5.845Zm4.339,0a1.678,1.678,0,0,1-1.374-.52,1.931,1.931,0,0,1-.427-1.266h.7a1.739,1.739,0,0,0,.194.753,1.02,1.02,0,0,0,.943.421,1.237,1.237,0,0,0,.85-.283.931.931,0,0,0,.321-.731.851.851,0,0,0-.337-.772,1.708,1.708,0,0,0-.938-.22l-.136,0-.14.006v-.593q.1.011.175.015t.153,0a1.4,1.4,0,0,0,.619-.119.758.758,0,0,0,.425-.746.728.728,0,0,0-.283-.615,1.057,1.057,0,0,0-.66-.216.979.979,0,0,0-.929.448,1.551,1.551,0,0,0-.16.7h-.664a2.014,2.014,0,0,1,.239-1.014,1.5,1.5,0,0,1,1.443-.746,1.956,1.956,0,0,1,1.264.364,1.278,1.278,0,0,1,.448,1.053,1.176,1.176,0,0,1-.265.8,1.112,1.112,0,0,1-.425.3,1.159,1.159,0,0,1,.658.446,1.348,1.348,0,0,1,.237.807,1.646,1.646,0,0,1-.5,1.246A1.986,1.986,0,0,1,21.816-5.845ZM24.823-6.8H25.6v.813h-.779Zm3.545.958a1.678,1.678,0,0,1-1.374-.52,1.931,1.931,0,0,1-.427-1.266h.7a1.739,1.739,0,0,0,.194.753,1.02,1.02,0,0,0,.943.421,1.237,1.237,0,0,0,.85-.283.931.931,0,0,0,.321-.731.851.851,0,0,0-.337-.772,1.708,1.708,0,0,0-.938-.22l-.136,0-.14.006v-.593q.1.011.175.015t.153,0a1.4,1.4,0,0,0,.619-.119.758.758,0,0,0,.425-.746.728.728,0,0,0-.283-.615,1.057,1.057,0,0,0-.66-.216.979.979,0,0,0-.929.448,1.551,1.551,0,0,0-.16.7H26.7a2.014,2.014,0,0,1,.239-1.014,1.5,1.5,0,0,1,1.443-.746,1.956,1.956,0,0,1,1.264.364,1.278,1.278,0,0,1,.448,1.053,1.176,1.176,0,0,1-.265.8,1.112,1.112,0,0,1-.425.3,1.159,1.159,0,0,1,.658.446,1.348,1.348,0,0,1,.237.807,1.646,1.646,0,0,1-.5,1.246A1.986,1.986,0,0,1,28.368-5.845Zm4.421-5.486a1.578,1.578,0,0,1,1.5.854,3.821,3.821,0,0,1,.358,1.809,4.355,4.355,0,0,1-.324,1.8,1.588,1.588,0,0,1-1.536,1.022,1.539,1.539,0,0,1-1.432-.835,3.825,3.825,0,0,1-.392-1.872,4.625,4.625,0,0,1,.235-1.563A1.608,1.608,0,0,1,32.789-11.33Zm-.007,4.874a.955.955,0,0,0,.832-.462,3.348,3.348,0,0,0,.31-1.723,4.257,4.257,0,0,0-.224-1.5.851.851,0,0,0-.869-.587.908.908,0,0,0-.867.558,3.85,3.85,0,0,0-.274,1.643,4.034,4.034,0,0,0,.175,1.313A.955.955,0,0,0,32.782-6.456Zm4.74.026a2.814,2.814,0,0,0,.679-.651,1.294,1.294,0,0,0,.257-.774.986.986,0,0,0-.048-.28q-.03-.1-.1-.276h-.824V-8.8h.585a1.361,1.361,0,0,1-.125-.233A3.825,3.825,0,0,1,37.78-9.4a1.723,1.723,0,0,1-.063-.252,1.72,1.72,0,0,1-.026-.308A1.42,1.42,0,0,1,38.164-11a1.868,1.868,0,0,1,1.357-.461,1.644,1.644,0,0,1,1.259.455,1.847,1.847,0,0,1,.438,1.287h-.69a1.242,1.242,0,0,0-.263-.856,1.021,1.021,0,0,0-.8-.293,1.059,1.059,0,0,0-.791.274.916.916,0,0,0-.268.666,1.05,1.05,0,0,0,.084.4q.084.205.356.731h1.223v.388H39.014q.037.172.054.269a1.179,1.179,0,0,1,.017.2,1.392,1.392,0,0,1-.224.737,2.728,2.728,0,0,1-.7.722,3.179,3.179,0,0,1,.507-.207,1.665,1.665,0,0,1,.489-.076,2.619,2.619,0,0,1,.71.132,2.673,2.673,0,0,0,.58.132.756.756,0,0,0,.321-.067,1.916,1.916,0,0,0,.272-.172l.31.5a2.16,2.16,0,0,1-.373.25,1.32,1.32,0,0,1-.578.131,2.856,2.856,0,0,1-.751-.172,2.888,2.888,0,0,0-.833-.172,1.491,1.491,0,0,0-.537.1,2.818,2.818,0,0,0-.384.2Z" transform="translate(91.864 25.8)" fill="#58c829"/></g></g></g></svg>