<svg xmlns="http://www.w3.org/2000/svg" viewBox="0 0 16 16" width="16" height="16">
	<style>
		tspan { white-space:pre }
		.shp0 { fill: none } 
		.shp1 { fill: #ffffff } 
	</style>
	<path id="Layer" class="shp0" d="M0 0L16 0L16 16L0 16L0 0Z" />
	<path id="Layer" fill-rule="evenodd" class="shp1" d="M11.44 10.06L16 14.64L14.64 16L10.06 11.44L10.06 10.71L9.82 10.46C8.77 11.35 7.42 11.89 5.95 11.89C2.66 11.89 0 9.23 0 5.95C0 2.66 2.66 0 5.95 0C9.23 0 11.89 2.66 11.89 5.95C11.89 7.42 11.35 8.77 10.46 9.82L10.71 10.06L11.44 10.06ZM10.06 5.95C10.06 3.67 8.22 1.83 5.95 1.83C3.67 1.83 1.83 3.67 1.83 5.95C1.83 8.22 3.67 10.06 5.95 10.06C8.22 10.06 10.06 8.22 10.06 5.95Z" />
</svg>