<svg xmlns="http://www.w3.org/2000/svg" xmlns:xlink="http://www.w3.org/1999/xlink" width="229.102" height="206.478" viewBox="0 0 229.102 206.478"><defs><filter id="a" x="41.663" y="65.102" width="145.772" height="138.335" filterUnits="userSpaceOnUse"><feOffset dy="3" input="SourceAlpha"/><feGaussianBlur stdDeviation="20" result="b"/><feFlood flood-color="#7090b0" flood-opacity="0.2"/><feComposite operator="in" in2="b"/><feComposite in="SourceGraphic"/></filter><filter id="c" x="0" y="1.732" width="229.102" height="188.267" filterUnits="userSpaceOnUse"><feOffset dy="3" input="SourceAlpha"/><feGaussianBlur stdDeviation="20" result="d"/><feFlood flood-color="#7090b0" flood-opacity="0.2"/><feComposite operator="in" in2="d"/><feComposite in="SourceGraphic"/></filter><filter id="e" x="29.792" y="82.52" width="169.511" height="123.958" filterUnits="userSpaceOnUse"><feOffset dy="3" input="SourceAlpha"/><feGaussianBlur stdDeviation="20" result="f"/><feFlood flood-color="#7090b0" flood-opacity="0.2"/><feComposite operator="in" in2="f"/><feComposite in="SourceGraphic"/></filter><linearGradient id="g" x1="0.5" y1="-0.011" x2="0.5" y2="0.996" gradientUnits="objectBoundingBox"><stop offset="0" stop-color="#fff"/><stop offset="1" stop-color="#fff" stop-opacity="0"/></linearGradient><filter id="i" x="80.825" y="0" width="91.995" height="85.392" filterUnits="userSpaceOnUse"><feOffset dy="3" input="SourceAlpha"/><feGaussianBlur stdDeviation="10" result="j"/><feFlood flood-color="#7090b0" flood-opacity="0.2"/><feComposite operator="in" in2="j"/><feComposite in="SourceGraphic"/></filter><filter id="k" x="3.507" y="40.521" width="84.87" height="70.951" filterUnits="userSpaceOnUse"><feOffset dy="3" input="SourceAlpha"/><feGaussianBlur stdDeviation="10" result="l"/><feFlood flood-color="#7090b0" flood-opacity="0.2"/><feComposite operator="in" in2="l"/><feComposite in="SourceGraphic"/></filter><filter id="m" x="45.212" y="20.016" width="71.556" height="75.719" filterUnits="userSpaceOnUse"><feOffset dy="3" input="SourceAlpha"/><feGaussianBlur stdDeviation="10" result="n"/><feFlood flood-color="#7090b0" flood-opacity="0.2"/><feComposite operator="in" in2="n"/><feComposite in="SourceGraphic"/></filter><filter id="o" x="51.169" y="50.114" width="105.089" height="97.084" filterUnits="userSpaceOnUse"><feOffset dy="3" input="SourceAlpha"/><feGaussianBlur stdDeviation="10" result="p"/><feFlood flood-color="#7090b0" flood-opacity="0.102"/><feComposite operator="in" in2="p"/><feComposite in="SourceGraphic"/></filter></defs><g transform="translate(17.882 10.187)"><g transform="translate(16 16)"><g transform="translate(0 0)"><g transform="translate(0 0)"><g transform="translate(26.118 32.545)"><g transform="matrix(1, 0, 0, 1, -60, -58.73)" filter="url(#a)"><path d="M338.812,366.539H313.04l2.8-11.006.634-2.5,1.232-4.833h16.441l1.232,4.833.634,2.5Z" transform="translate(-211.38 -226.1)" fill="#6280e5"/></g><path d="M341.815,365.551H321.641l.634-2.5h18.9Z" transform="translate(-277.179 -294.851)" fill="#2d4493"/><g transform="matrix(1, 0, 0, 1, -60, -58.73)" filter="url(#c)"><path d="M294.125,156.2v62.85a2.71,2.71,0,0,1-2.709,2.709H187.732a2.707,2.707,0,0,1-2.709-2.709V156.2a2.707,2.707,0,0,1,2.709-2.708H291.416A2.71,2.71,0,0,1,294.125,156.2Z" transform="translate(-125.02 -94.76)" fill="#6280e5"/></g><g transform="matrix(1, 0, 0, 1, -60, -58.73)" filter="url(#e)"><path d="M324.1,405.68H278.545a1.979,1.979,0,0,1-1.979-1.979h0a1.979,1.979,0,0,1,1.979-1.979H324.1a1.979,1.979,0,0,1,1.979,1.979h0A1.979,1.979,0,0,1,324.1,405.68Z" transform="translate(-186.77 -262.2)" fill="#6280e5"/></g><rect width="104.908" height="55.404" transform="translate(1.996 1.988)" fill="#9facdb"/><path d="M347.4,343.3h0a2.523,2.523,0,0,1-2.515-2.515h0a2.523,2.523,0,0,1,2.515-2.515h0a2.523,2.523,0,0,1,2.515,2.515h0A2.523,2.523,0,0,1,347.4,343.3Z" transform="translate(-292.859 -278.134)" fill="#2d4493"/><g transform="translate(33.484 49.684)"><g transform="translate(0.389 0.46)"><rect width="1.865" height="4.07" transform="translate(33.968)" fill="#ff4b13" opacity="0.5"/><rect width="1.865" height="4.07" transform="translate(36.091)" fill="#ff4b13" opacity="0.5"/><rect width="1.865" height="4.07" transform="translate(38.214)" fill="#ff4b13" opacity="0.5"/><rect width="1.865" height="4.07" fill="#ff4b13"/><rect width="1.865" height="4.07" transform="translate(2.123)" fill="#ff4b13"/><rect width="1.865" height="4.07" transform="translate(4.246)" fill="#ff4b13"/><rect width="1.865" height="4.07" transform="translate(6.369)" fill="#ff4b13"/><rect width="1.865" height="4.07" transform="translate(8.492)" fill="#ff4b13"/><rect width="1.865" height="4.07" transform="translate(10.615)" fill="#ff4b13"/><rect width="1.865" height="4.07" transform="translate(12.738)" fill="#ff4b13"/><rect width="1.865" height="4.07" transform="translate(14.861)" fill="#ff4b13"/><rect width="1.865" height="4.07" transform="translate(16.984)" fill="#ff4b13" opacity="0.5"/><rect width="1.865" height="4.07" transform="translate(19.107)" fill="#ff4b13" opacity="0.5"/><rect width="1.865" height="4.07" transform="translate(21.23)" fill="#ff4b13" opacity="0.5"/><rect width="1.865" height="4.07" transform="translate(23.353)" fill="#ff4b13" opacity="0.5"/><rect width="1.865" height="4.07" transform="translate(25.476)" fill="#ff4b13" opacity="0.5"/><rect width="1.865" height="4.07" transform="translate(27.599)" fill="#ff4b13" opacity="0.5"/><rect width="1.865" height="4.07" transform="translate(29.722)" fill="#ff4b13" opacity="0.5"/><rect width="1.865" height="4.07" transform="translate(31.845)" fill="#ff4b13" opacity="0.5"/></g><rect width="41.006" height="4.99" fill="none" stroke="#ff4b13" stroke-miterlimit="10" stroke-width="0.75"/></g><g transform="translate(33.484 4.783)"><path d="M293.067,172.415a.927.927,0,0,0-.927.927v39.087a.927.927,0,0,0,.927.927h39.152a.927.927,0,0,0,.927-.927v-27.25l-12.764-12.764Z" transform="translate(-290.763 -171.038)" fill="#5146af" opacity="0.25"/><path d="M288.836,168.184a.927.927,0,0,0-.927.927V208.2a.927.927,0,0,0,.927.927h39.152a.927.927,0,0,0,.927-.927v-27.25l-12.764-12.764Z" transform="translate(-287.909 -168.184)" fill="#ff4b13"/><path d="M375.614,180.948h11.837l-12.764-12.764v11.837A.927.927,0,0,0,375.614,180.948Z" transform="translate(-346.445 -168.184)" fill="#b5350d"/><path d="M340.693,193.3l-5.778,5.949h2.206v9.77h7.143v-9.77h2.206Z" transform="translate(-319.617 -185.126)" fill="#9f9ff4"/><path d="M341.455,235.625v7.72H320.548v-7.72h3.363v4.452h14.182v-4.452Z" transform="translate(-309.925 -213.676)" fill="#9f9ff4"/></g><path d="M361.053,221.7h-7.369l19.38-68.217h7.369Z" transform="translate(-298.793 -153.488)" opacity="0.2" fill="url(#g)"/><path d="M400.811,221.7H385.177l19.38-68.217h15.634Z" transform="translate(-320.037 -153.488)" opacity="0.2" fill="url(#g)"/></g><g transform="translate(0 0)"><g transform="translate(76.943)"><g transform="matrix(1, 0, 0, 1, -110.82, -26.19)" filter="url(#i)"><path d="M2.949,0H27.624a4.371,4.371,0,0,1,4.371,4.371V24.45a.942.942,0,0,1-.942.942H.942A.942.942,0,0,1,0,24.45V2.949A2.949,2.949,0,0,1,2.949,0Z" transform="translate(110.82 27)" fill="#c5cbe3"/></g><rect width="16.218" height="5.298" rx="2.075" transform="translate(2.323 18.928)" fill="#fff"/><g transform="translate(2.323 4.019)"><path d="M604.072,166.786H588.8a.474.474,0,0,1-.474-.474h0a.474.474,0,0,1,.474-.475h15.269a.474.474,0,0,1,.474.475h0A.474.474,0,0,1,604.072,166.786Z" transform="translate(-588.329 -165.837)" fill="#fff" opacity="0.31"/><path d="M604.072,172.809H588.8a.474.474,0,0,1-.474-.474h0a.474.474,0,0,1,.474-.475h15.269a.474.474,0,0,1,.474.475h0A.474.474,0,0,1,604.072,172.809Z" transform="translate(-588.329 -169.9)" fill="#fff" opacity="0.31"/><path d="M604.072,178.832H588.8a.474.474,0,0,1-.474-.474h0a.474.474,0,0,1,.474-.475h15.269a.474.474,0,0,1,.474.475h0A.474.474,0,0,1,604.072,178.832Z" transform="translate(-588.329 -173.963)" fill="#fff" opacity="0.31"/><path d="M604.072,184.855H588.8a.474.474,0,0,1-.474-.474h0a.474.474,0,0,1,.474-.474h15.269a.474.474,0,0,1,.474.474h0A.474.474,0,0,1,604.072,184.855Z" transform="translate(-588.329 -178.025)" fill="#fff" opacity="0.31"/><path d="M604.072,190.878H588.8a.474.474,0,0,1-.474-.474h0a.474.474,0,0,1,.474-.474h15.269a.474.474,0,0,1,.474.474h0A.474.474,0,0,1,604.072,190.878Z" transform="translate(-588.329 -182.089)" fill="#fff" opacity="0.31"/><path d="M601.685,196.9H588.8a.474.474,0,0,1-.474-.474h0a.474.474,0,0,1,.474-.474h12.882a.474.474,0,0,1,.474.474h0A.474.474,0,0,1,601.685,196.9Z" transform="translate(-588.329 -186.153)" fill="#fff" opacity="0.31"/></g><g transform="translate(19.984 20.849)"><path d="M643.362,217.549l.237.48.53.077-.383.374.09.527-.474-.249-.474.249.09-.527-.383-.374.529-.077Z" transform="translate(-642.596 -217.549)" fill="#f7c148"/><path d="M650.579,217.549l.237.48.53.077-.383.374.09.527-.474-.249-.474.249.091-.527-.383-.374.529-.077Z" transform="translate(-647.464 -217.549)" fill="#f7c148"/><path d="M657.8,217.549l.237.48.529.077-.383.374.09.527-.474-.249-.474.249.091-.527-.383-.374.529-.077Z" transform="translate(-652.332 -217.549)" fill="#f7c148"/><path d="M665.012,217.549l.237.48.529.077-.383.374.091.527-.474-.249-.474.249.09-.527-.383-.374.529-.077Z" transform="translate(-657.2 -217.549)" fill="#f7c148"/><path d="M672.228,217.549l.237.48.53.077-.383.374.09.527-.474-.249-.474.249.09-.527-.383-.374.529-.077Z" transform="translate(-662.067 -217.549)" fill="#f7c148"/></g><path d="M612.862,153.488H581.516a.324.324,0,0,0-.324.324v2.4h31.994v-2.4A.324.324,0,0,0,612.862,153.488Z" transform="translate(-581.192 -153.488)" fill="#2d4493"/><g transform="translate(26.655 1.066)"><path d="M663.686,157.061a.3.3,0,1,1-.3-.3A.3.3,0,0,1,663.686,157.061Z" transform="translate(-663.095 -156.765)" fill="#fff"/><path d="M668.2,157.061a.3.3,0,1,1-.3-.3A.3.3,0,0,1,668.2,157.061Z" transform="translate(-666.14 -156.765)" fill="#fff"/><path d="M672.714,157.061a.3.3,0,1,1-.3-.3A.3.3,0,0,1,672.714,157.061Z" transform="translate(-669.185 -156.765)" fill="#fff"/></g><g transform="translate(20.13 4.02)"><path d="M653.684,166.146v10.133a.31.31,0,0,1-.31.31H643.35a.309.309,0,0,1-.306-.31V166.146a.308.308,0,0,1,.306-.306h10.024A.309.309,0,0,1,653.684,166.146Z" transform="translate(-643.044 -165.84)" fill="#fff"/><path d="M664.79,186.718v1.9a.31.31,0,0,1-.31.31h-4.972l.212-2.209,2.34-2.588Z" transform="translate(-654.15 -178.178)" fill="#2d4493"/><path d="M652.292,186.679H643.35a.309.309,0,0,1-.306-.31v-1.9l3.5-3.672Z" transform="translate(-643.044 -175.93)" fill="#6280e5"/><circle cx="1.234" cy="1.234" r="1.234" transform="translate(6.766 1.674)" fill="#6280e5"/></g></g><g transform="translate(0 41.71)"><g transform="matrix(1, 0, 0, 1, -33.88, -67.9)" filter="url(#k)"><path d="M105.37,191.849h22.759l-2.625-1.942v-7.659a.6.6,0,0,0-.6-.6H105.37a.6.6,0,0,0-.6.6v9A.6.6,0,0,0,105.37,191.849Z" transform="translate(-70.89 -113.75)" fill="#fff" stroke="#d6d4ff" stroke-miterlimit="10" stroke-width="0.75"/></g><rect width="10.419" height="0.997" transform="translate(11.693 2.547) rotate(180)" fill="#a4a4f7" opacity="0.24"/><rect width="10.419" height="0.997" transform="translate(11.693 4.036) rotate(180)" fill="#a4a4f7" opacity="0.24"/><rect width="10.419" height="0.997" transform="translate(11.693 5.526) rotate(180)" fill="#a4a4f7" opacity="0.24"/><rect width="10.419" height="0.997" transform="translate(11.693 6.977) rotate(180)" fill="#a4a4f7" opacity="0.24"/><rect width="7.266" height="0.997" transform="translate(8.54 8.713) rotate(180)" fill="#a4a4f7" opacity="0.24"/><g transform="translate(12.471 1.489)"><path d="M150.241,186.428v6.81a.208.208,0,0,1-.208.208H143.3a.208.208,0,0,1-.206-.208v-6.81a.207.207,0,0,1,.206-.206h6.736A.208.208,0,0,1,150.241,186.428Z" transform="translate(-143.091 -186.222)" fill="#a4a4f7" opacity="0.24"/><path d="M157.705,200.253v1.276a.208.208,0,0,1-.208.208h-3.341l.142-1.484,1.573-1.739Z" transform="translate(-150.555 -194.514)" fill="#2d4493"/><path d="M149.306,200.227H143.3a.208.208,0,0,1-.206-.208v-1.276l2.352-2.468Z" transform="translate(-143.091 -193.003)" fill="#6280e5"/><path d="M158.719,190.509a.829.829,0,1,1-.829-.829A.829.829,0,0,1,158.719,190.509Z" transform="translate(-152.514 -188.555)" fill="#6280e5"/></g></g><g transform="translate(8.995 17.657)"><g transform="translate(134.501 11.031)"><path d="M549.184,144.122a1.812,1.812,0,1,1-1.012-2.355A1.813,1.813,0,0,1,549.184,144.122Z" transform="translate(-545.688 -141.638)" fill="#9999f1"/><path d="M548.885,146.542l.407.907,1.362-.842" transform="translate(-547.844 -144.946)" fill="none" stroke="#fff" stroke-linecap="round" stroke-linejoin="round" stroke-width="1.056"/></g><g transform="translate(17.287 6.949)"><path d="M189.062,130.341a1.812,1.812,0,1,1-2.287-1.158A1.812,1.812,0,0,1,189.062,130.341Z" transform="translate(-185.527 -129.092)" fill="#9999f1"/><path d="M188.85,133.426l.894.435.505-1.519" transform="translate(-187.768 -131.284)" fill="none" stroke="#fff" stroke-linecap="round" stroke-linejoin="round" stroke-width="1.056"/></g><g transform="translate(155.059 48.224)"><path d="M614.388,258.893a2.772,2.772,0,1,1-2.56-2.968A2.772,2.772,0,0,1,614.388,258.893Z" transform="translate(-608.853 -255.918)" fill="#9999f1"/><path d="M613.6,263.065l1.011,1.135,1.6-1.855" transform="translate(-612.057 -260.253)" fill="none" stroke="#fff" stroke-linecap="round" stroke-linejoin="round" stroke-width="1.616"/></g><path d="M596.974,262.75a.666.666,0,1,1-.667-.666A.667.667,0,0,1,596.974,262.75Z" transform="translate(-444.882 -211.853)" fill="#9999f1"/><path d="M528.023,121.91a.666.666,0,1,1-.666-.667A.666.666,0,0,1,528.023,121.91Z" transform="translate(-398.371 -116.849)" fill="#9999f1" opacity="0.3"/><path d="M163.5,234.195a1.064,1.064,0,1,1-1.064-1.064A1.064,1.064,0,0,1,163.5,234.195Z" transform="translate(-151.945 -192.323)" fill="#9999f1"/><path d="M483.673,116.627a1.636,1.636,0,1,1-1.636-1.636A1.636,1.636,0,0,1,483.673,116.627Z" transform="translate(-367.147 -112.632)" fill="#9999f1" opacity="0.3"/><path d="M137.607,270.285a1.636,1.636,0,1,1-1.636-1.636A1.636,1.636,0,0,1,137.607,270.285Z" transform="translate(-133.708 -216.282)" fill="#9999f1" opacity="0.3"/><path d="M339.357,117.814a1.064,1.064,0,1,1-1.064-1.064A1.063,1.063,0,0,1,339.357,117.814Z" transform="translate(-270.571 -113.818)" fill="#9999f1" opacity="0.3"/><path d="M369.281,139.433a1.064,1.064,0,1,1-1.064-1.064A1.064,1.064,0,0,1,369.281,139.433Z" transform="translate(-290.756 -128.401)" fill="#9999f1" opacity="0.3"/><path d="M420.265,121.082a1.064,1.064,0,1,1-1.063-1.064A1.063,1.063,0,0,1,420.265,121.082Z" transform="translate(-325.148 -116.023)" fill="#9999f1" opacity="0.2"/><g transform="translate(0 37.682)"><g transform="translate(0.75)"><path d="M134.925,225.449a.213.213,0,0,1-.212-.213v-1.5a.213.213,0,0,1,.425,0v1.5A.213.213,0,0,1,134.925,225.449Z" transform="translate(-134.713 -223.525)" fill="#9999f1"/></g><g transform="translate(0 0.75)"><path d="M134.121,226.253h-1.5a.213.213,0,0,1,0-.425h1.5a.213.213,0,1,1,0,.425Z" transform="translate(-132.409 -225.828)" fill="#9999f1"/></g></g><g transform="translate(11.765)" opacity="0.3"><g transform="translate(0.75)"><path d="M171.075,109.666a.213.213,0,0,1-.213-.213v-1.5a.213.213,0,1,1,.425,0v1.5A.212.212,0,0,1,171.075,109.666Z" transform="translate(-170.862 -107.742)" fill="#9999f1"/></g><g transform="translate(0 0.75)"><path d="M170.271,110.47h-1.5a.213.213,0,1,1,0-.425h1.5a.213.213,0,1,1,0,.425Z" transform="translate(-168.559 -110.045)" fill="#9999f1"/></g></g><g transform="translate(136.513 17.945)"><g transform="translate(0)"><g transform="translate(0.75)"><path d="M554.385,164.805a.213.213,0,0,1-.213-.213v-1.5a.213.213,0,0,1,.425,0v1.5A.213.213,0,0,1,554.385,164.805Z" transform="translate(-554.172 -162.881)" fill="#9999f1"/></g><g transform="translate(0 0.75)"><path d="M553.581,165.609h-1.5a.213.213,0,1,1,0-.425h1.5a.213.213,0,1,1,0,.425Z" transform="translate(-551.869 -165.184)" fill="#9999f1"/></g></g></g><g transform="translate(49.645 4.669)"><g transform="translate(0.75)"><path d="M287.467,124.012a.213.213,0,0,1-.213-.213v-1.5a.213.213,0,1,1,.425,0v1.5A.213.213,0,0,1,287.467,124.012Z" transform="translate(-287.255 -122.088)" fill="#9999f1"/></g><g transform="translate(0 0.75)"><path d="M286.664,124.816h-1.5a.213.213,0,0,1,0-.425h1.5a.213.213,0,0,1,0,.425Z" transform="translate(-284.952 -124.391)" fill="#9999f1"/></g></g></g><path d="M541.972,74.757h-7.05a.448.448,0,0,0-.448.448v7.05a.448.448,0,0,0,.448.448h7.05a.448.448,0,0,0,.448-.448v-7.05A.448.448,0,0,0,541.972,74.757Zm-2.118,3.889v2.511H537.04V78.646h-.868l2.275-2.344,2.275,2.344Z" transform="translate(-394.627 -67.835)" fill="#9999f1"/><g transform="translate(59.645 11.056)"><path d="M305.776,87.87v6.667a.45.45,0,0,1-.088.269.46.46,0,0,1-.383.2h-9.794a.48.48,0,0,1-.324-.128V88.69a.411.411,0,0,1,.412-.408h6.882a.411.411,0,0,0,.408-.412.411.411,0,0,1,.408-.412h2.067A.414.414,0,0,1,305.776,87.87Z" transform="translate(-292.861 -87.458)" fill="#383493"/><path d="M300.867,98.38a.46.46,0,0,1-.383.2h-9.794a.479.479,0,0,1-.324-.128.455.455,0,0,1-.1-.138.121.121,0,0,1-.015-.033l-2.18-4.975a.393.393,0,0,1,.361-.55h9.71a.393.393,0,0,1,.361.233l2.041,4.658Z" transform="translate(-288.04 -91.032)" fill="#5146af"/></g><path d="M197.645,67.1c-.011-.053-.022-.109-.038-.162a5.1,5.1,0,0,0-.176-.635,5.6,5.6,0,0,0-.658-1.315l.642-.639-1.537-1.537-.03.03-.609.613a5.717,5.717,0,0,0-2.113-.876v-.906h-2.173v.906a5.717,5.717,0,0,0-2.112.876l-.639-.643-1.537,1.537.643.639a5.714,5.714,0,0,0-.876,2.112h-.906v2.172h.91a5.643,5.643,0,0,0,.872,2.112l-.643.639,1.537,1.537.639-.643a5.651,5.651,0,0,0,2.112.872V74.7h2.173v-.909a5.651,5.651,0,0,0,2.113-.872l.609.613.03.03.925-.925.612-.613-.612-.609-.03-.03c.011-.015.019-.03.03-.045a5.625,5.625,0,0,0,.842-2.067h.91V67.1Zm-5.6,4.713a3.627,3.627,0,1,1,3.627-3.627A3.627,3.627,0,0,1,192.041,71.816Z" transform="translate(-159.245 -59.011)" fill="#9999f1" opacity="0.3"/><g transform="matrix(1, 0, 0, 1, -33.88, -26.19)" filter="url(#m)"><path d="M237.545,117.489l-5.778,5.949h2.206v9.77h7.144v-9.77h2.206Z" transform="translate(-156.55 -70.47)" fill="#2d4493"/></g><path d="M644.326,253.129l-3.783,3.895h1.444v6.4h4.677v-6.4h1.444Z" transform="translate(-544.284 -220.701)" fill="#2d4493"/><g transform="translate(106.392 27.574)"><path d="M434.559,142.394a2.87,2.87,0,0,1,.92.153,4.464,4.464,0,0,1,8.925.131c0,.113-.006.224-.014.335a2.47,2.47,0,0,1,4.533,1.82,1.773,1.773,0,1,1,.861,3.323H434.559a2.881,2.881,0,1,1,0-5.762Z" transform="translate(-431.678 -138.214)" fill="#2d4493"/><path d="M453.555,146.542l-1.974,2.033h.754v3.339h2.441v-3.339h.754Z" transform="translate(-445.103 -143.832)" fill="#2d4493"/></g><path d="M123.171,301.044l-3.783,3.895h1.444v6.4h4.677v-6.4h1.444Z" transform="translate(-114.631 -220.477)" fill="#9999f1"/></g><g transform="translate(113.234 38.138)"><g transform="translate(0 0)"><g transform="translate(0 0)"><g transform="translate(30.758 87.874)"><g transform="translate(0)"><path d="M159.07,442.5v-2.784l5.008-.034.041,4.206-.311.023c-1.382.089-7.03.218-7.956-.067C154.821,443.527,159.07,442.5,159.07,442.5Z" transform="translate(-155.692 -439.683)" fill="#e8505b"/></g><g transform="translate(0.043 3.817)"><g transform="translate(0)"><path d="M155.744,451.5c0,.047,1.874.085,4.184.085s4.184-.038,4.184-.085-1.873-.084-4.184-.084S155.744,451.449,155.744,451.5Z" transform="translate(-155.744 -451.411)" fill="#263238"/></g></g><g transform="translate(2.909 2.875)"><g transform="translate(0)"><path d="M171.749,449.028c.041-.022.006-.169-.1-.313s-.238-.223-.271-.19.035.156.134.29S171.707,449.05,171.749,449.028Z" transform="translate(-171.368 -448.517)" fill="#263238"/></g></g><g transform="translate(2.618 2.96)"><g transform="translate(0)"><path d="M172.686,449.389c.043-.016.021-.181-.078-.355s-.228-.278-.265-.25.025.171.117.333S172.641,449.406,172.686,449.389Z" transform="translate(-172.333 -448.78)" fill="#263238"/></g></g><g transform="translate(6.898 2.911)"><g transform="translate(0)"><path d="M155.944,449.606c.02.014.094-.059.2-.182a3.3,3.3,0,0,1,.439-.438,1.156,1.156,0,0,1,.542-.236c.153-.02.252,0,.261-.021s-.085-.088-.265-.1a1,1,0,0,0-.642.221,1.819,1.819,0,0,0-.433.5C155.964,449.5,155.925,449.593,155.944,449.606Z" transform="translate(-155.939 -448.629)" fill="#263238"/></g></g><g transform="translate(3.271 2.842)"><g transform="translate(0)"><path d="M169.992,448.436c-.024.039.061.136.2.188s.271.035.278-.011-.094-.1-.22-.147S170.017,448.4,169.992,448.436Z" transform="translate(-169.988 -448.416)" fill="#263238"/></g></g><g transform="translate(3.354 2.513)"><g transform="translate(0)"><path d="M169.394,447.485c0,.047.129.087.3.089s.3-.034.3-.081-.137-.086-.3-.089S169.4,447.439,169.394,447.485Z" transform="translate(-169.394 -447.405)" fill="#263238"/></g></g></g><g transform="translate(18.425 87.874)"><g transform="translate(0)"><path d="M196.823,442.5v-2.784l5.008-.034.041,4.164-.31.023c-1.382.089-7.03.261-7.956-.024C192.573,443.527,196.823,442.5,196.823,442.5Z" transform="translate(-193.444 -439.683)" fill="#e8505b"/></g><g transform="translate(0.043 3.823)"><g transform="translate(0)"><path d="M193.5,451.514c0,.047,1.874.085,4.184.085s4.184-.038,4.184-.085-1.873-.085-4.184-.085S193.5,451.467,193.5,451.514Z" transform="translate(-193.496 -451.429)" fill="#263238"/></g></g><g transform="translate(2.909 2.875)"><g transform="translate(0)"><path d="M209.5,449.028c.041-.022.006-.169-.1-.313s-.238-.223-.271-.19.035.156.134.29S209.459,449.05,209.5,449.028Z" transform="translate(-209.12 -448.517)" fill="#263238"/></g></g><g transform="translate(2.618 2.96)"><g transform="translate(0)"><path d="M210.438,449.389c.043-.016.021-.181-.078-.355s-.228-.278-.265-.25.025.171.117.333S210.393,449.406,210.438,449.389Z" transform="translate(-210.084 -448.78)" fill="#263238"/></g></g><g transform="translate(6.898 2.911)"><g transform="translate(0)"><path d="M193.7,449.606c.019.014.094-.059.2-.182a3.3,3.3,0,0,1,.439-.438,1.155,1.155,0,0,1,.542-.236c.152-.02.252,0,.261-.021s-.084-.088-.265-.1a1,1,0,0,0-.642.221,1.819,1.819,0,0,0-.433.5C193.716,449.5,193.677,449.593,193.7,449.606Z" transform="translate(-193.691 -448.629)" fill="#263238"/></g></g><g transform="translate(3.271 2.842)"><g transform="translate(0)"><path d="M207.744,448.436c-.024.039.061.136.2.188s.271.035.278-.011-.094-.1-.219-.147S207.769,448.4,207.744,448.436Z" transform="translate(-207.74 -448.416)" fill="#263238"/></g></g><g transform="translate(3.354 2.513)"><g transform="translate(0)"><path d="M207.145,447.485c0,.047.129.087.3.089s.3-.034.3-.081-.137-.086-.3-.089S207.15,447.439,207.145,447.485Z" transform="translate(-207.145 -447.405)" fill="#263238"/></g></g></g><path d="M130.974,195.041s7.471,6.592,7.986,7.079c.463.437,9.728-.517,11.584-.714a12.909,12.909,0,0,1,1.91-.13c.805.035.949.149,1.754.16a39.772,39.772,0,0,1,6.055.53,5.008,5.008,0,0,1,3.94,3.4c1.873,5.825,6.112,19.614,6.867,27.361a32.319,32.319,0,0,1,1.53,3.148c.525,1.424.4,1.472.221,1.505-.475.088-1.019-2.469-1.221-1.853s1.03,3.051.53,3.122c-.652.093-1.172-2.594-1.233-2.819s-.388-.144-.322.055c.094.287,1.014,3.323.374,3.42-.354.054-.393-.589-.393-.589s-.65-2.9-.95-2.848.019,1.775.17,2.346-.061.865-.367.723a9.5,9.5,0,0,1-.846-2.405c-.136-.569-.479-2.135-.941-1.225a2.623,2.623,0,0,1-1.448,1.447.319.319,0,0,1-.16-.581,3.716,3.716,0,0,0,.631-.812,2.431,2.431,0,0,0,.314-.762,8.419,8.419,0,0,0,.228-1.647l.053-.335c-.731-3.61-2.84-14.2-5.869-20.969l-1.247,2.557-.542,1.893,3.324,8.181-14.182-.186,2.114-8.116-2.569-8.463h0c-2.78.062-9.92.165-11.12-.369-1.5-.666-9.154-10.418-9.154-10.418Z" transform="translate(-122.932 -186.785)" fill="#ffbe9d"/><path d="M0,1.757c.013-.39.525-.24.677.07A2.242,2.242,0,0,1,.769,2.1C.675,1.463.607.945.611.817c.012-.37.483-.268.662.008C1.243.57,1.225.376,1.226.294c.007-.474.524-.316.681.063A5.634,5.634,0,0,1,2.07,1,3.124,3.124,0,0,1,2.04.642c.013-.39.465-.324.617-.014a4.867,4.867,0,0,1,.191.739c.088.384.23.792.312,1.179.074.351.627,1.986,1.47,2.1,1.293.167.3-1.976,1.159-2.545.268-.179.709,1.51.809,2.477A10.772,10.772,0,0,1,6.7,6.6a13.259,13.259,0,0,0-.208,1.752,7.165,7.165,0,0,0,.861,1.64l-3.147,1A12.988,12.988,0,0,0,2.881,8.912,7.358,7.358,0,0,1,.655,5.637,14.262,14.262,0,0,1,.074,3.071S0,1.884,0,1.757Z" transform="matrix(0.978, -0.208, 0.208, 0.978, 0, 1.529)" fill="#ffbe9d"/><g transform="translate(16.523 13.835)"><path d="M161.916,229.825c-.41-1.4-2.525-8.317-2.525-8.317s-1.038,5.64-.765,6.32a11.942,11.942,0,0,0,.892,1.678c2.4,3.638,2.083,5.456,2.083,5.456l-14.485-.44a36.666,36.666,0,0,1,1.415-7.458c.251-.748-.581-3.2-.581-3.2s-1.637-1.656-1.573-2.509a13.727,13.727,0,0,1,.285-2.272l-8.814.324.277-5.958,12.67-1.263c.438,1.243,4.428.634,4.428.634,4.307.141,4.568.93,6.364,2.316s4.754,13.285,4.754,13.285Z" transform="translate(-137.848 -212.185)" fill="#ff4b13"/><g transform="translate(15.502 15.707)"><g transform="translate(0)"><path d="M161.8,260.974a3.121,3.121,0,0,0,.763.038c.472,0,1.123-.032,1.839-.1s1.361-.173,1.824-.264a3.1,3.1,0,0,0,.74-.189,3.8,3.8,0,0,0-.76.071c-.466.06-1.109.141-1.821.213s-1.358.119-1.827.153A3.785,3.785,0,0,0,161.8,260.974Z" transform="translate(-161.8 -260.449)" fill="#263238"/></g></g><g transform="translate(14.51 15.001)"><g transform="translate(0)"><path d="M163.458,258.282a3.405,3.405,0,0,0,.791.269,14.412,14.412,0,0,0,3.994.473,3.378,3.378,0,0,0,.832-.077,5.1,5.1,0,0,0-.831-.043c-.512-.016-1.219-.053-1.994-.145s-1.471-.22-1.973-.324A5.082,5.082,0,0,0,163.458,258.282Z" transform="translate(-163.458 -258.277)" fill="#263238"/></g></g><g transform="translate(9.631 9.531)"><g transform="translate(0)"><path d="M191.859,241.471a3.108,3.108,0,0,0,.1.736c.084.45.217,1.068.384,1.747s.337,1.288.471,1.726a3.123,3.123,0,0,0,.254.7,3.33,3.33,0,0,0-.138-.729l-.422-1.735-.432-1.732A3.339,3.339,0,0,0,191.859,241.471Z" transform="translate(-191.852 -241.471)" fill="#263238"/></g></g><g transform="translate(23.916 15.605)"><g transform="translate(0)"><path d="M138.334,261.34a30.8,30.8,0,0,0,4.418-1.2,31.035,31.035,0,0,0-4.418,1.2Z" transform="translate(-138.334 -260.134)" fill="#263238"/></g></g><g transform="translate(8.654 0.339)"><g transform="translate(0)"><path d="M186.219,219.71a1.2,1.2,0,0,0,.375,0,3.821,3.821,0,0,0,1-.237,4.181,4.181,0,0,0,1.3-.789,4.057,4.057,0,0,0,1.063-1.525,4.176,4.176,0,0,0,.293-1.834,2.873,2.873,0,0,0-.447-1.452,1.508,1.508,0,0,0-.827-.607,1.021,1.021,0,0,0-.279-.037c-.064,0-.1.008-.1.014s.136.008.356.086a1.511,1.511,0,0,1,.747.611,3.7,3.7,0,0,1,.1,3.156,4.028,4.028,0,0,1-1.011,1.473,4.272,4.272,0,0,1-1.239.793A6.449,6.449,0,0,1,186.219,219.71Z" transform="translate(-186.219 -213.227)" fill="#263238"/></g></g><g transform="translate(0.948 1.104)"><g transform="translate(0)"><path d="M221.734,221.575a53.093,53.093,0,0,0-.012-6,52.883,52.883,0,0,0,.012,6Z" transform="translate(-221.642 -215.577)" fill="#263238"/></g></g></g><g transform="translate(26.338 1.611)"><g transform="translate(1.136 1.188)"><path d="M172.36,189.673c-.036-.726-.112-1.547-.112-1.547a2.18,2.18,0,0,1-1.912-2.053c-.109-1.855,0-6.133,0-6.133l3.283-1.666,3.612,2.84-.547,9.276-3.324.211A.957.957,0,0,1,172.36,189.673Z" transform="translate(-170.287 -178.274)" fill="#ffbe9d"/></g><g transform="translate(2.882 6.465)"><g transform="translate(0)"><path d="M183.9,195.541c-.005,0-.006.035.028.08a.256.256,0,0,0,.207.091c.209-.01.411-.24.485-.522a.889.889,0,0,0,.009-.412.353.353,0,0,0-.2-.28.178.178,0,0,0-.138,0,.158.158,0,0,0-.074.075c-.024.055-.006.089,0,.086s.006-.031.033-.065a.121.121,0,0,1,.155-.033.292.292,0,0,1,.134.232.868.868,0,0,1-.015.368c-.065.252-.241.458-.4.477a.236.236,0,0,1-.176-.048C183.919,195.565,183.907,195.538,183.9,195.541Z" transform="translate(-183.897 -194.486)" fill="#eb996e"/></g></g><g transform="translate(0)"><path d="M144.248,176.475a2.628,2.628,0,0,1,1.992-1.513,6.312,6.312,0,0,1,3.866-.062c1.235.453,2.719,1.249,2.718,2.607.729-.06,1.145.576,1.434,1.364a5.192,5.192,0,0,1,.31,1.5l.012,0c.094,1.778.591,4.228,1.748,5.542.639.726,1.559,1.228,1.931,2.132.324.786.156,1.715.462,2.508a9.091,9.091,0,0,0,1.3,1.807,4.818,4.818,0,0,1,.311,4.683,5.96,5.96,0,0,1-3.556,3.061,8.361,8.361,0,0,1-4.691.044,7.852,7.852,0,0,1-3.142-1.551,5.242,5.242,0,0,1-1.8-3.034,10.806,10.806,0,0,1,.418-4c.869-4.177.621-4.395-.476-8.269-.025-.068-.04-.139-.059-.21l-.043-.153h0a2.38,2.38,0,0,1-.051-.463.9.9,0,0,0,.944-.2.981.981,0,0,0,.223-.974,1.413,1.413,0,0,0-.842-.791c-.362-.152-.752-.227-1.108-.4a3.689,3.689,0,0,1-1.633-1.877A2.56,2.56,0,0,1,144.248,176.475Z" transform="translate(-144.183 -174.623)" fill="#263238"/></g><g transform="translate(2.185 7.599)"><g transform="translate(0)"><path d="M185.436,197.972a1.476,1.476,0,0,0-.172.322c-.1.205-.227.5-.372.829l-.027.063.069.006.333.029c.228.015.418.042.639.039a.116.116,0,0,0,.084-.074.191.191,0,0,0,.005-.09c-.01-.051-.021-.089-.031-.132l-.057-.23a2.186,2.186,0,0,0-.138-.451,2.151,2.151,0,0,0,.067.466l.045.233c.017.078.045.2,0,.187-.162-.007-.394-.034-.609-.05l-.333-.026.042.069c.14-.335.258-.63.339-.842A1.473,1.473,0,0,0,185.436,197.972Z" transform="translate(-184.866 -197.972)" fill="#e8505b"/></g></g></g><g transform="translate(19.491 36.172)"><g transform="translate(0)"><path d="M170.992,281.259l-14.485-.44-6.3,24.519,1.16,28.125h7.667l-.95-27.526,5.6-17.069-.863,45.685,7.74.114.816-42.942a47.742,47.742,0,0,0,.281-5.07Z" transform="translate(-150.207 -280.819)" fill="#263238"/></g><g transform="translate(11.551 7.44)"><g transform="translate(0)"><path d="M166.109,304.636a2.8,2.8,0,0,0,.711-.042c.436-.051,1.035-.143,1.692-.274s1.245-.278,1.667-.4a2.783,2.783,0,0,0,.672-.235c-.013-.047-1.065.207-2.372.468S166.1,304.588,166.109,304.636Z" transform="translate(-166.109 -303.68)" fill="#455a64"/></g></g><g transform="translate(1.23 51.017)"><g transform="translate(0)"><path d="M188.481,437.662c0,.047,1.736.085,3.876.085s3.877-.038,3.877-.085-1.735-.084-3.877-.084S188.481,437.616,188.481,437.662Z" transform="translate(-188.481 -437.578)" fill="#455a64"/></g></g><g transform="translate(12.686 52.463)"><g transform="translate(0)"><path d="M154.122,442.106c0,.047,1.684.085,3.761.085s3.761-.038,3.761-.085-1.683-.085-3.761-.085S154.122,442.059,154.122,442.106Z" transform="translate(-154.122 -442.021)" fill="#455a64"/></g></g><g transform="translate(13.674 7.837)"><g transform="translate(0)"><path d="M171.811,349.493c.047,0,.251-9.982.455-22.294s.332-22.3.285-22.3-.251,9.98-.455,22.3S171.764,349.493,171.811,349.493Z" transform="translate(-171.801 -304.9)" fill="#455a64"/></g></g><g transform="translate(1.144 0.44)"><g transform="translate(0)"><path d="M194.213,332.832a.788.788,0,0,0,0-.133l-.007-.39c-.01-.352-.025-.855-.044-1.5-.045-1.31-.111-3.19-.192-5.51-.179-4.66-.426-11.082-.7-18.176,0-.065-.005-.131-.008-.191l0,.024c1.717-6.848,3.268-13.038,4.393-17.526l1.311-5.309.348-1.445.086-.377a.74.74,0,0,0,.024-.13.826.826,0,0,0-.04.126l-.1.373-.379,1.437-1.363,5.3c-1.138,4.485-2.707,10.671-4.442,17.514l0,.012v.012c0,.06.005.126.008.191.292,7.093.556,13.515.748,18.174l.246,5.508c.032.643.058,1.146.075,1.5.01.165.018.294.024.389A.758.758,0,0,0,194.213,332.832Z" transform="translate(-193.097 -282.171)" fill="#455a64"/></g></g><g transform="translate(4.758 24.618)"><g transform="translate(0)"><path d="M190.758,356.475a8.928,8.928,0,0,0,1.694.376c.7.121,1.313.2,1.579.218V357c-.088.024-.136.043-.134.055s.053.015.144.011l.2-.009-.2-.057c-.255-.075-.857-.2-1.561-.319A8.933,8.933,0,0,0,190.758,356.475Z" transform="translate(-190.758 -356.463)" fill="#455a64"/></g></g><g transform="translate(4.905 25.286)"><g transform="translate(0)"><path d="M191.652,358.794a23.726,23.726,0,0,0,3.042-.236,9.709,9.709,0,0,0-3.042.236Z" transform="translate(-191.652 -358.515)" fill="#455a64"/></g></g><g transform="translate(6.3)"><path d="M166.707,281.777a1.992,1.992,0,0,1-1.43.758,6.5,6.5,0,0,1-1.757-.033,91.464,91.464,0,0,1-11.363-1.683c4.74.265,9.745.175,14.485.44,0,0,.041.325.05.4" transform="translate(-152.158 -280.819)" opacity="0.2"/></g><g transform="translate(13.293 7.614)" opacity="0.2"><path d="M169.784,304.214l-2.67,10.327.187-9.892Z" transform="translate(-167.114 -304.214)"/></g></g></g></g></g></g><g transform="translate(25.06 44.362)"><g transform="translate(0 0)"><g transform="translate(6.993 6.565)"><g transform="translate(10.258 7.83)"><path d="M492.993,201.2a4.119,4.119,0,0,1,3.651,1.275c1.481,1.5,7.652,6.995,7.652,6.995l8.943-1.811,1.234,4.038s-10.562,3.323-11.332,3.038-6.5-4.21-6.5-4.21Z" transform="translate(-492.993 -201.143)" fill="#ff4b13"/></g><g transform="translate(19.527 0) rotate(7.75)"><g transform="matrix(0.99, -0.13, 0.13, 0.99, -95.08, -64.89)" filter="url(#o)"><path d="M41.174.907v30a1.086,1.086,0,0,1-1.2.917H1.185A1.081,1.081,0,0,1,0,30.906v-30A1.081,1.081,0,0,1,1.185,0h38.79A1.086,1.086,0,0,1,41.174.907Z" transform="translate(85.46 77.11) rotate(7.75)" fill="#fff"/></g><path d="M15.258,7.476v5.486a.894.894,0,0,1-.9.9H0L.611,7.476,7.371,0Z" transform="translate(25.916 17.965)" fill="#2d4493"/><path d="M37.152,16.99H1.23c-.673,0-1.23-.4-1.23-.9V10.609L14.058,0Z" transform="translate(0 14.833)" fill="#6280e5"/><circle cx="3.564" cy="3.564" r="3.564" transform="translate(29.981 4.992)" fill="#6280e5"/></g><g transform="translate(0 7.269)"><path d="M553.87,204.311c-.406-2.831.894-3.711,2.936-4.567,2.551-1.069,7.407-.537,9.048.96l1.88,5.588a3.459,3.459,0,0,1,.207,3.47,36.422,36.422,0,0,0-1.521,3.315c-.653,2.263-.2,4.266-.04,6.618.036.543.449,1.546.052,1.913a1.912,1.912,0,0,1-1.408.33,27.969,27.969,0,0,1-11.248-2.881c1.331-2.721,2.8-5.869,1.944-7.955A29.149,29.149,0,0,1,553.87,204.311Z" transform="translate(-553.776 -199.182)" fill="#ff4b13"/></g><g transform="translate(0.087 8.915)"><path d="M555.653,214.208l1.259,4.349s-6.594,2.426-10.166,2.382c-3.346-.042-4.3-.425-5.483-3.159a41.831,41.831,0,0,1-2.794-7.682,9.872,9.872,0,0,1-.424-1.843c-.49-3.71,3.972-4.687,4.623-1l.531,1.974s1.215,2.778,1.273,2.932c.538,1.44,1.467,3.748,2.141,4S555.653,214.208,555.653,214.208Z" transform="translate(-538.008 -204.93)" fill="#ff4b13"/></g><g transform="translate(1.627 12.557)"><g transform="translate(0)"><path d="M537.687,223.47a.651.651,0,0,0,.035.1l.115.3c.1.26.261.642.49,1.123a15.706,15.706,0,0,0,.928,1.7,10.189,10.189,0,0,0,1.609,2,6.509,6.509,0,0,0,.562.472c.2.148.423.279.647.412l.361.164c.061.027.121.057.184.082l.2.055.4.111.415.05a13.814,13.814,0,0,0,3.55-.255,58.14,58.14,0,0,0,7.9-2.09l.067-.022-.02-.07-.159-.549-1.1-3.8-.02-.069-.069.019c-2.412.652-4.693,1.222-6.771,1.6-.519.091-1.027.174-1.52.213a3.4,3.4,0,0,1-.721,0,.7.7,0,0,1-.162-.038.229.229,0,0,1-.115-.093,2.263,2.263,0,0,1-.189-.289c-.463-.81-.819-1.61-1.157-2.325-.663-1.439-1.171-2.6-1.523-3.4l-.4-.918-.107-.237a.452.452,0,0,0-.04-.078.423.423,0,0,0,.028.084l.095.242.382.928c.337.806.832,1.976,1.484,3.422.334.72.681,1.519,1.147,2.343a2.309,2.309,0,0,0,.2.305.343.343,0,0,0,.159.126.806.806,0,0,0,.187.047,3.509,3.509,0,0,0,.748.006c.5-.037,1.011-.118,1.533-.208,2.087-.375,4.37-.94,6.787-1.59l-.089-.05,1.1,3.8.159.55.047-.092a59.214,59.214,0,0,1-7.876,2.1,13.792,13.792,0,0,1-3.514.268l-.406-.046-.385-.107-.19-.052c-.061-.024-.12-.053-.179-.079l-.353-.158c-.219-.129-.437-.255-.636-.4a6.466,6.466,0,0,1-.556-.46,10.238,10.238,0,0,1-1.61-1.97,16.429,16.429,0,0,1-.945-1.685c-.236-.475-.4-.854-.513-1.11l-.129-.291A.543.543,0,0,0,537.687,223.47Z" transform="translate(-537.687 -217.647)" fill="#263238"/></g></g><g transform="translate(12.966 13.32)"><g transform="translate(0)"><path d="M554.15,220.311a7.375,7.375,0,0,0,.459.789,5.808,5.808,0,0,1,.812,2.006,3.824,3.824,0,0,1-.35,2.11,8.765,8.765,0,0,0-.357.841.782.782,0,0,0,.138-.2c.08-.137.191-.337.314-.593a4.969,4.969,0,0,0,.345-.941,3.118,3.118,0,0,0,.056-1.235,5.317,5.317,0,0,0-.869-2.04A4.486,4.486,0,0,0,554.15,220.311Z" transform="translate(-554.149 -220.311)" fill="#263238"/></g></g><g transform="translate(3.512 22.018)" opacity="0.2"><g transform="translate(0)"><path d="M570.086,253.072a1.74,1.74,0,0,1-.568,1.321,3.113,3.113,0,0,1-1.286.691,5.564,5.564,0,0,1-4.445-.611,6.152,6.152,0,0,1-2.572-3.8s.831,1.057,1.376,1.607a4.163,4.163,0,0,0,2.545,1.229,14.617,14.617,0,0,0,4.987-.442" transform="translate(-561.215 -250.676)"/></g></g><g transform="translate(11.176 9.252)"><g transform="translate(0)"><path d="M561.113,206.108a3.664,3.664,0,0,0-.461.223l-1.157.614-.1.055.1.066.8.528.745.482.109.07v-.127c.005-.557,0-1.035,0-1.373a2.412,2.412,0,0,0-.034-.539,2.44,2.44,0,0,0-.053.537c-.018.338-.036.816-.052,1.373l.109-.057-.744-.491-.809-.523,0,.121A10.17,10.17,0,0,0,561.113,206.108Z" transform="translate(-559.392 -206.108)" fill="#fafafa"/></g></g><g transform="translate(14.326 12.089)"><g transform="translate(0)"><path d="M549.991,216.013a3.673,3.673,0,0,0-.461.223l-1.157.614-.1.055.1.067.8.528.745.482.108.07v-.127c.005-.557,0-1.035,0-1.373a2.441,2.441,0,0,0-.033-.538,2.4,2.4,0,0,0-.053.537c-.018.338-.037.816-.052,1.372l.11-.057-.744-.491-.809-.523,0,.121A10.183,10.183,0,0,0,549.991,216.013Z" transform="translate(-548.27 -216.013)" fill="#fafafa"/></g></g><g transform="translate(5.739 11.11)"><g transform="translate(0)"><path d="M580.029,214.541a3.8,3.8,0,0,0-.034-.516c-.038-.371-.083-.814-.134-1.315l-.012-.117-.1.07-.782.555-.719.521-.1.076.116.048c.509.212.948.389,1.261.509a2.355,2.355,0,0,0,.507.169,2.4,2.4,0,0,0-.473-.249c-.3-.143-.735-.338-1.24-.559l.011.124.727-.516.781-.566-.11-.048A10.387,10.387,0,0,0,580.029,214.541Z" transform="translate(-578.146 -212.593)" fill="#fafafa"/></g></g><g transform="translate(11.233 14.926)"><g transform="translate(0)"><path d="M560.467,227.395a3.675,3.675,0,0,0-.324-.4l-.864-.991-.077-.089-.04.115-.317.912-.286.846-.042.123.122-.029c.536-.127.995-.241,1.319-.327a2.365,2.365,0,0,0,.509-.16,2.363,2.363,0,0,0-.528.075c-.329.062-.792.158-1.33.275l.081.094.294-.848.31-.919-.117.026A10.266,10.266,0,0,0,560.467,227.395Z" transform="translate(-558.517 -225.915)" fill="#fafafa"/></g></g><g transform="translate(6.952 14.906)"><g transform="translate(0)"><path d="M575.743,227.794a3.793,3.793,0,0,0-.034-.516l-.134-1.315-.012-.117-.1.07-.782.555-.719.521-.1.076.116.048c.509.212.948.389,1.261.509a2.358,2.358,0,0,0,.507.169,2.4,2.4,0,0,0-.473-.249c-.3-.143-.735-.338-1.24-.559l.011.124.727-.516.781-.566-.11-.048A10.429,10.429,0,0,0,575.743,227.794Z" transform="translate(-573.86 -225.846)" fill="#fafafa"/></g></g><g transform="translate(8.498 17.588)"><g transform="translate(0)"><path d="M570.286,237.159a3.8,3.8,0,0,0-.034-.516c-.038-.371-.083-.814-.134-1.315l-.012-.118-.1.07-.782.555-.719.52-.1.076.116.048c.509.212.948.389,1.261.509a2.39,2.39,0,0,0,.507.169,2.357,2.357,0,0,0-.473-.25c-.3-.143-.735-.337-1.241-.559l.012.124.727-.516.781-.566-.11-.048A10.43,10.43,0,0,0,570.286,237.159Z" transform="translate(-568.403 -235.211)" fill="#fafafa"/></g></g><g transform="translate(5.289 26.607)"><g transform="translate(0)"><path d="M581.618,268.646a3.729,3.729,0,0,0-.034-.516l-.133-1.315-.012-.117-.1.07-.782.555-.719.521-.1.076.116.048c.509.212.948.389,1.261.51a2.35,2.35,0,0,0,.507.169,2.369,2.369,0,0,0-.473-.25c-.3-.143-.735-.337-1.241-.559l.012.124.727-.517.781-.566-.11-.048A10.422,10.422,0,0,0,581.618,268.646Z" transform="translate(-579.734 -266.698)" fill="#fafafa"/></g></g><g transform="translate(2.498 8.787)"><g transform="translate(0)"><path d="M591.473,206.433a3.747,3.747,0,0,0-.034-.516l-.133-1.315-.012-.118-.1.07-.782.555-.719.52-.1.076.116.048c.509.212.948.389,1.261.51a2.355,2.355,0,0,0,.507.169,2.363,2.363,0,0,0-.473-.25c-.3-.143-.735-.337-1.24-.559l.012.124.727-.517.781-.566-.11-.048A10.43,10.43,0,0,0,591.473,206.433Z" transform="translate(-589.59 -204.485)" fill="#fafafa"/></g></g><g transform="translate(9.457 11.946)"><g transform="translate(0)"><path d="M566.9,217.462a3.759,3.759,0,0,0-.034-.516l-.134-1.315-.012-.118-.1.07-.782.555-.719.52-.1.076.116.048c.509.212.948.389,1.261.51a2.36,2.36,0,0,0,.507.169,2.363,2.363,0,0,0-.473-.25c-.3-.143-.735-.337-1.241-.559l.012.124.727-.517.781-.566-.11-.048A10.43,10.43,0,0,0,566.9,217.462Z" transform="translate(-565.016 -215.514)" fill="#fafafa"/></g></g><g transform="translate(9.062 25.864)"><g transform="translate(0)"><path d="M568.293,266.051a3.77,3.77,0,0,0-.034-.516l-.133-1.315-.012-.117-.1.07-.782.555-.719.521-.1.076.116.048c.509.212.948.389,1.261.509a2.352,2.352,0,0,0,.507.169,2.377,2.377,0,0,0-.473-.249c-.3-.143-.735-.338-1.24-.559l.011.124.727-.517.781-.565-.11-.048A10.359,10.359,0,0,0,568.293,266.051Z" transform="translate(-566.41 -264.103)" fill="#fafafa"/></g></g><g transform="translate(1.606 14.23)"><g transform="translate(0)"><path d="M594.624,225.433a3.775,3.775,0,0,0-.034-.516l-.133-1.315-.012-.117-.1.07-.782.555-.719.521-.1.076.116.048c.509.212.948.389,1.261.509a2.346,2.346,0,0,0,.507.169,2.372,2.372,0,0,0-.473-.249c-.3-.143-.735-.338-1.24-.559l.011.124.727-.517.781-.565-.11-.048A10.363,10.363,0,0,0,594.624,225.433Z" transform="translate(-592.741 -223.485)" fill="#fafafa"/></g></g><g transform="translate(4.835 20.715)"><g transform="translate(0)"><path d="M583.22,248.075a3.725,3.725,0,0,0-.034-.516l-.133-1.315-.012-.118-.1.07-.782.556-.719.52-.1.076.116.048c.509.212.948.389,1.261.509a2.38,2.38,0,0,0,.507.169,2.363,2.363,0,0,0-.473-.25c-.3-.143-.735-.337-1.24-.559l.011.124.727-.516.781-.566-.11-.048A10.432,10.432,0,0,0,583.22,248.075Z" transform="translate(-581.336 -246.127)" fill="#fafafa"/></g></g><g transform="translate(2.14 23.719)"><g transform="translate(0)"><path d="M592.738,258.562a3.722,3.722,0,0,0-.034-.516l-.133-1.315-.012-.117-.1.07-.782.555-.719.521-.1.076.116.048c.509.212.948.389,1.261.509a2.354,2.354,0,0,0,.507.169,2.362,2.362,0,0,0-.473-.25c-.3-.143-.735-.337-1.241-.559l.012.124.727-.517.781-.566-.11-.048A10.425,10.425,0,0,0,592.738,258.562Z" transform="translate(-590.854 -256.614)" fill="#fafafa"/></g></g><g transform="translate(3.985 17.418)"><g transform="translate(0)"><path d="M586.222,236.564a3.793,3.793,0,0,0-.034-.516c-.038-.371-.083-.815-.134-1.315l-.012-.117-.1.07-.782.555-.719.521-.1.076.116.048c.509.212.948.389,1.261.509a2.358,2.358,0,0,0,.507.169,2.375,2.375,0,0,0-.473-.249c-.3-.143-.735-.338-1.24-.559l.011.124.727-.517.781-.566-.11-.048A10.43,10.43,0,0,0,586.222,236.564Z" transform="translate(-584.339 -234.616)" fill="#fafafa"/></g></g><g transform="translate(12.622 21.279)"><g transform="translate(0)"><path d="M555.72,250.046a3.747,3.747,0,0,0-.034-.516l-.133-1.315-.012-.118-.1.07-.782.555-.719.52-.1.076.116.048c.509.212.948.389,1.261.509a2.37,2.37,0,0,0,.507.169,2.361,2.361,0,0,0-.473-.25c-.3-.143-.735-.337-1.24-.559l.012.124.727-.517.781-.566-.11-.048A10.43,10.43,0,0,0,555.72,250.046Z" transform="translate(-553.836 -248.098)" fill="#fafafa"/></g></g><g transform="translate(8.364 20.372)"><g transform="translate(0)"><path d="M570.756,246.88a3.793,3.793,0,0,0-.034-.516c-.038-.371-.083-.815-.134-1.315l-.012-.117-.1.07-.782.555-.719.521-.1.076.116.048c.509.212.948.389,1.261.509a2.357,2.357,0,0,0,.507.169,2.376,2.376,0,0,0-.473-.249c-.3-.143-.735-.338-1.24-.559l.011.124.727-.517.781-.565-.11-.048A10.43,10.43,0,0,0,570.756,246.88Z" transform="translate(-568.873 -244.932)" fill="#fafafa"/></g></g><g transform="translate(15.773 19.347)"><g transform="translate(0)"><path d="M544.593,243.3a3.817,3.817,0,0,0-.034-.516l-.134-1.315-.012-.117-.1.07-.782.555-.719.52-.1.076.116.048c.509.212.948.389,1.261.51a2.357,2.357,0,0,0,.507.169,2.38,2.38,0,0,0-.473-.25c-.3-.143-.735-.337-1.24-.559l.011.124.727-.517.781-.566-.11-.048A10.415,10.415,0,0,0,544.593,243.3Z" transform="translate(-542.71 -241.352)" fill="#fafafa"/></g></g><g transform="translate(0.953 10.977)"><g transform="translate(0)"><path d="M595.131,214.135a3.731,3.731,0,0,0,.495-.129l1.253-.376.112-.033-.086-.085-.684-.675-.639-.618-.093-.09-.025.124c-.112.545-.2,1.014-.262,1.348a.271.271,0,1,0,.085.019c.083-.329.192-.793.313-1.336l-.118.034.636.627.694.672.026-.119A10.084,10.084,0,0,0,595.131,214.135Z" transform="translate(-595.127 -212.128)" fill="#fafafa"/></g></g></g><g transform="translate(29.09 77.445)"><g transform="translate(0)"><g transform="translate(0)"><path d="M499.78,423.7l-1.243-2.431L494.02,423.6l1.781,3.577.289-.126c1.282-.572,6.478-3,7.183-3.683C504.059,422.6,499.78,423.7,499.78,423.7Z" transform="translate(-494.02 -421.27)" fill="#e8505b"/><g transform="translate(1.111 4.312)" opacity="0.5"><g transform="translate(0)"><path d="M517.317,437.036a1.756,1.756,0,0,0-1.067-.677,1.692,1.692,0,0,0-1.223.211l.642,1.277Z" transform="translate(-515.027 -436.325)" fill="#fff"/></g></g></g><g transform="translate(1.737 1.831)" opacity="0.4"><g transform="translate(0)"><path d="M500.08,427.792s1.543-.3,1.488.011-5.215,2.963-7.592,3.931l-.044-.106,6.044-3.042S499.823,427.938,500.08,427.792Z" transform="translate(-493.932 -427.661)" fill="#fff"/></g></g><g transform="translate(1.664 1.894)"><g transform="translate(0)"><path d="M494.067,431.819a.456.456,0,0,0,.082-.031l.23-.1.839-.386c.707-.331,1.676-.8,2.736-1.346s2.009-1.057,2.69-1.438l.8-.457.217-.128a.044.044,0,1,0-.006-.011l-.222.118-.813.439c-.686.371-1.638.878-2.7,1.422s-2.025,1.02-2.727,1.361l-.831.4-.225.112A.536.536,0,0,0,494.067,431.819Z" transform="translate(-494.067 -427.883)" fill="#263238"/></g></g><g transform="translate(7.706 1.889)"><g transform="translate(0)"><path d="M499.278,428.8a1.367,1.367,0,0,1,.074-.937.836.836,0,0,0-.074.938Z" transform="translate(-499.167 -427.864)" fill="#263238"/></g></g><g transform="translate(6.124 2.325)"><g transform="translate(0)"><path d="M505.153,429.889a1.054,1.054,0,0,0,.048-.5,1.054,1.054,0,0,0-.048.5Z" transform="translate(-505.138 -429.386)" fill="#263238"/></g></g><g transform="translate(5.669 2.419)"><g transform="translate(0)"><path d="M506.444,430.116c.016.006.063-.079.1-.189s.064-.206.048-.212-.063.079-.105.189S506.428,430.109,506.444,430.116Z" transform="translate(-506.439 -429.714)" fill="#263238"/></g></g><g transform="translate(5.226 2.267)"><g transform="translate(0)"><g transform="translate(0)"><path d="M506.9,429.425a.6.6,0,0,0,.251-.091c.131-.066.231-.131.224-.147a.591.591,0,0,0-.251.091C507,429.344,506.9,429.41,506.9,429.425Z" transform="translate(-506.903 -429.185)" fill="#263238"/></g></g></g><g transform="translate(4.994 2.008)"><g transform="translate(0)"><path d="M507.438,428.517a.507.507,0,0,0,.3-.058.517.517,0,0,0,.253-.176,22.7,22.7,0,0,1-.555.234Z" transform="translate(-507.437 -428.281)" fill="#263238"/></g></g><g transform="translate(6.092 1.583)"><g transform="translate(0)"><path d="M502.935,427.565a.94.94,0,0,0,.289-.151,1.941,1.941,0,0,0,.275-.228.961.961,0,0,0,.14-.165.18.18,0,0,0,.026-.128.129.129,0,0,0-.1-.095.61.61,0,0,0-.576.741c.014.056.029.084.032.083a.945.945,0,0,1,.007-.318.6.6,0,0,1,.166-.29.5.5,0,0,1,.358-.154c.063.011.073.075.037.132a.967.967,0,0,1-.128.154,2.258,2.258,0,0,1-.26.233C503.041,427.5,502.931,427.556,502.935,427.565Z" transform="translate(-502.935 -426.798)" fill="#263238"/></g></g><g transform="translate(5.553 1.873)"><g transform="translate(0)"><path d="M505.844,428.262a.329.329,0,0,0-.069-.221.538.538,0,0,0-.187-.174.324.324,0,0,0-.317-.025.132.132,0,0,0-.021.182.362.362,0,0,0,.115.106.991.991,0,0,0,.227.107.463.463,0,0,0,.226.034c0-.01-.084-.023-.211-.075a1.144,1.144,0,0,1-.21-.114c-.071-.042-.154-.139-.088-.19a.288.288,0,0,1,.254.026.536.536,0,0,1,.178.149A1.244,1.244,0,0,1,505.844,428.262Z" transform="translate(-505.223 -427.808)" fill="#263238"/></g></g><g transform="translate(1.128 4.21)"><g transform="translate(0)"><path d="M515.1,436.291c.006.01.123-.079.34-.16a1.575,1.575,0,0,1,1.663.346c.167.16.24.289.25.282a.3.3,0,0,0-.046-.092,1.356,1.356,0,0,0-.173-.221,1.529,1.529,0,0,0-1.709-.356,1.316,1.316,0,0,0-.245.134C515.121,436.262,515.094,436.288,515.1,436.291Z" transform="translate(-515.096 -435.969)" fill="#263238"/></g></g><g transform="translate(0.64 2.389)"><g transform="translate(0)"><path d="M521.522,429.611a18.027,18.027,0,0,0,.92,1.891,18.075,18.075,0,0,0-.92-1.891Z" transform="translate(-521.521 -429.611)" fill="#263238"/></g></g><g transform="translate(3.746 3.618)"><g transform="translate(0)"><path d="M509.122,434.57a4.147,4.147,0,0,0,1.327-.666c-.01-.015-.3.155-.661.338S509.116,434.553,509.122,434.57Z" transform="translate(-509.122 -433.903)" fill="#263238"/></g></g><g transform="translate(2.859 4.733)"><g transform="translate(0)"><path d="M516.054,437.8c-.005.017.056.051.121.1s.111.105.127.1-.013-.084-.088-.145S516.059,437.783,516.054,437.8Z" transform="translate(-516.054 -437.793)" fill="#263238"/></g></g><g transform="translate(2.314 4.482)"><g transform="translate(0)"><path d="M517.957,436.926c-.005.016.048.049.119.073s.132.03.138.014-.048-.049-.119-.073S517.962,436.91,517.957,436.926Z" transform="translate(-517.957 -436.917)" fill="#263238"/></g></g><g transform="translate(1.739 4.452)"><g transform="translate(0)"><path d="M519.832,436.906c.011.014.071-.018.149-.028s.144,0,.151-.016-.063-.06-.159-.046S519.821,436.894,519.832,436.906Z" transform="translate(-519.831 -436.813)" fill="#263238"/></g></g><g transform="translate(1.355 4.588)"><g transform="translate(0)"><path d="M521.679,437.329c0,.017.039.027.084.023s.08-.022.078-.039-.039-.027-.084-.023S521.677,437.312,521.679,437.329Z" transform="translate(-521.679 -437.289)" fill="#263238"/></g></g></g></g><g transform="translate(0 76.27)"><g transform="translate(0.018)"><g transform="translate(0)"><path d="M607.17,421.748l1.077-2.511-4.638-2.07L602,420.823l.279.147c1.248.643,6.392,3.181,7.362,3.3C610.719,424.4,607.17,421.748,607.17,421.748Z" transform="translate(-601.996 -417.166)" fill="#e8505b"/></g><g transform="translate(0.034 2.282)" opacity="0.5"><g transform="translate(0)"><path d="M625.193,427.221a1.8,1.8,0,0,0-.156-1.264,1.713,1.713,0,0,0-.935-.825l-.573,1.31Z" transform="translate(-623.529 -425.132)" fill="#fff"/></g></g></g><g transform="translate(0.018 3.555)" opacity="0.4"><g transform="translate(0)"><path d="M608.858,431.973s1.205,1.02.932,1.173-5.566-2.214-7.811-3.465l.053-.1,6.151,2.814S608.583,431.863,608.858,431.973Z" transform="translate(-601.98 -429.579)" fill="#fff"/></g></g><g transform="translate(0 3.52)"><path d="M602,429.455a.479.479,0,0,0,.076.044l.223.116.827.414c.7.344,1.674.807,2.76,1.293s2.08.906,2.8,1.2l.858.341.235.089a.468.468,0,0,0,.084.027.443.443,0,0,0-.079-.039l-.231-.1-.85-.36c-.718-.3-1.708-.729-2.794-1.215s-2.062-.943-2.767-1.277l-.835-.4-.228-.106A.449.449,0,0,0,602,429.455Z" transform="translate(-601.996 -429.455)" fill="#263238"/></g><g transform="translate(6.188 5.901)"><g transform="translate(0)"><path d="M605.212,438.31a1.34,1.34,0,0,1,.765-.534.677.677,0,0,0-.465.147A.688.688,0,0,0,605.212,438.31Z" transform="translate(-605.21 -437.769)" fill="#263238"/></g></g><g transform="translate(5.128 4.845)"><g transform="translate(0)"><path d="M610.19,434.366c.01.014.11-.037.225-.115s.2-.152.191-.166-.11.037-.225.114S610.181,434.351,610.19,434.366Z" transform="translate(-610.189 -434.083)" fill="#263238"/></g></g><g transform="translate(4.841 4.62)"><g transform="translate(0)"><path d="M611.247,433.436c.005.016.1,0,.211-.037s.2-.08.193-.1-.1,0-.211.037S611.242,433.419,611.247,433.436Z" transform="translate(-611.247 -433.296)" fill="#263238"/></g></g><g transform="translate(4.797 4.207)"><g transform="translate(0)"><path d="M611.127,431.859c-.007.016.1.078.228.139a.591.591,0,0,0,.254.083c.007-.016-.1-.078-.228-.139A.591.591,0,0,0,611.127,431.859Z" transform="translate(-611.127 -431.855)" fill="#263238"/></g></g><g transform="translate(4.851 3.861)"><g transform="translate(0)"><path d="M610.763,430.647c-.011.012.083.118.235.2a.509.509,0,0,0,.3.087,1.667,1.667,0,0,0-.266-.142A1.625,1.625,0,0,0,610.763,430.647Z" transform="translate(-610.763 -430.646)" fill="#263238"/></g></g><g transform="translate(5.464 4.581)"><g transform="translate(0)"><path d="M606.939,433.369a.933.933,0,0,0,.3.131,1.892,1.892,0,0,0,.348.071.939.939,0,0,0,.215.005.176.176,0,0,0,.115-.061.131.131,0,0,0,.007-.141.592.592,0,0,0-.746-.14.577.577,0,0,0-.185.158c-.035.046-.046.076-.043.078a.924.924,0,0,1,.248-.2.581.581,0,0,1,.328-.054.5.5,0,0,1,.344.183c.032.056-.011.1-.078.113a.966.966,0,0,1-.2,0,2.224,2.224,0,0,1-.342-.056C607.057,433.41,606.943,433.36,606.939,433.369Z" transform="translate(-606.939 -433.161)" fill="#263238"/></g></g><g transform="translate(5.329 4.12)"><g transform="translate(0)"><path d="M609.9,432.269a.325.325,0,0,0,.126-.194.548.548,0,0,0,.015-.257.332.332,0,0,0-.181-.264.129.129,0,0,0-.153.1.358.358,0,0,0-.008.157,1.009,1.009,0,0,0,.061.245.481.481,0,0,0,.117.2c.008-.005-.036-.081-.076-.213a1.152,1.152,0,0,1-.046-.237c-.013-.082.009-.209.089-.189s.121.135.141.216a.547.547,0,0,1,0,.234A1.241,1.241,0,0,1,609.9,432.269Z" transform="translate(-609.695 -431.549)" fill="#263238"/></g></g><g transform="translate(0.655 2.278)"><g transform="translate(0)"><path d="M623.3,425.12c0,.011.138.047.337.166a1.647,1.647,0,0,1,.611.646,1.672,1.672,0,0,1,.175.876c-.017.233-.069.371-.058.374a.285.285,0,0,0,.042-.094,1.364,1.364,0,0,0,.06-.276,1.6,1.6,0,0,0-.164-.909,1.573,1.573,0,0,0-.644-.655,1.322,1.322,0,0,0-.258-.107A.3.3,0,0,0,623.3,425.12Z" transform="translate(-623.297 -425.119)" fill="#263238"/></g></g><g transform="translate(1.122 0.542)"><g transform="translate(0)"><path d="M623.611,419.06a17.9,17.9,0,0,0-.867,1.917,17.9,17.9,0,0,0,.867-1.917Z" transform="translate(-622.744 -419.06)" fill="#263238"/></g></g><g transform="translate(2.499 4.174)"><g transform="translate(0)"><path d="M616.181,431.738a4.148,4.148,0,0,0,1.349.619c.006-.017-.305-.134-.677-.3S616.19,431.723,616.181,431.738Z" transform="translate(-616.181 -431.737)" fill="#263238"/></g></g><g transform="translate(1.583 3.766)"><g transform="translate(0)"><path d="M623.955,430.316c-.016.007,0,.076,0,.16s-.01.154.006.16.056-.064.055-.161S623.97,430.309,623.955,430.316Z" transform="translate(-623.947 -430.315)" fill="#263238"/></g></g><g transform="translate(1.429 3.182)"><g transform="translate(0)"><path d="M624.338,428.277c-.016.006-.007.068.019.139s.061.123.076.117.007-.068-.019-.139S624.354,428.27,624.338,428.277Z" transform="translate(-624.33 -428.276)" fill="#263238"/></g></g><g transform="translate(1.033 2.758)"><g transform="translate(0)"><path d="M625.312,426.8c0,.017.058.044.116.1s.09.113.107.108.006-.087-.066-.154S625.313,426.787,625.312,426.8Z" transform="translate(-625.311 -426.795)" fill="#263238"/></g></g><g transform="translate(0.721 2.514)"><g transform="translate(0)"><path d="M626.793,425.946c-.012.012,0,.048.036.08s.067.049.08.037,0-.048-.036-.08S626.805,425.933,626.793,425.946Z" transform="translate(-626.789 -425.942)" fill="#263238"/></g></g></g><g transform="translate(0.458 33.011)"><g transform="translate(0)"><g transform="translate(0 7.62)"><path d="M563.373,329.94l6.527,3.753,9.148-18.545c1.359-4.957,2.668-22.41,2.668-22.41l-7.539.582s-1.161,12.53-2.986,18.986Z" transform="translate(-563.373 -292.738)" fill="#263238"/></g><g transform="translate(6.373)"><path d="M506.2,266.135c-.182-.011-1.5,5.164.108,8.283.157.3,1.314,2,1.314,2,4.108,4.9,8.271,14.414,9.433,16.912,2.384,5.125,11.172,21.985,11.172,21.985l5.644-3.269-8.253-21.464-7.077-21.062Z" transform="translate(-505.516 -266.135)" fill="#263238"/><g transform="translate(4.387 13.247)"><path d="M570.163,312.385a3.221,3.221,0,0,1,.238.422l.611,1.171c.515.989,1.24,2.348,2.042,3.848s1.515,2.869,2.007,3.87c.246.5.442.908.571,1.192a.243.243,0,1,1-.049.025l-.611-1.171c-.515-.989-1.239-2.348-2.043-3.848s-1.514-2.868-2.007-3.869c-.246-.5-.442-.908-.571-1.192A3.17,3.17,0,0,1,570.163,312.385Z" transform="translate(-570.162 -312.385)" fill="#455a64"/></g></g></g></g><g transform="translate(25.039 22.561)"><g transform="translate(0)"><path d="M520.333,235.053a27.13,27.13,0,0,0,2.973-.412c1.21-.3,1.188-.408,1.133-.546-.147-.371-2.146.439-1.81.011s2.552-.7,2.382-1.082c-.221-.5-2.3.39-2.481.452s-.269-.2-.1-.25c.239-.067,2.732-.839,2.52-1.329-.118-.272-.577,0-.577,0s-2.285.9-2.377.662,1.231-.811,1.691-.973.569-.444.338-.591a7.724,7.724,0,0,0-2.027.529c-.451.17-1.68.659-1.255-.084a2.27,2.27,0,0,0,.365-1.68c-.118-.206-.443-.106-.47.158a3.245,3.245,0,0,1-.284.817,2.1,2.1,0,0,1-.388.573c-.139.145-.266.268-.382.377l-1.009.964.7,2.5Z" transform="translate(-518.572 -229.65)" fill="#ffbe9d"/></g></g><g transform="translate(7.971)"><g transform="translate(0.799)"><path d="M558.33,151.674a2.029,2.029,0,0,1,1.8-.79,4.279,4.279,0,0,1,4.009,3.446,17.293,17.293,0,0,0,.3,2.342,6.539,6.539,0,0,0,.816,1.493,4,4,0,0,1,.685,1.549,1.562,1.562,0,0,1-.563,1.518,1.971,1.971,0,0,1,.323,2.213,1.925,1.925,0,0,1-1.983.991c-.413-.072-.855-.278-1.225-.08a2.041,2.041,0,0,0-.454.433,2.122,2.122,0,0,1-2.269.387,3.981,3.981,0,0,1-1.795-1.609c-.118-.181-.274-.392-.487-.371a.669.669,0,0,0-.323.182,1.961,1.961,0,0,1-2.564-.2,2.017,2.017,0,0,1-.046-2.6,2.212,2.212,0,0,1-1.432-1.452,3.26,3.26,0,0,1,.08-2.094,8.361,8.361,0,0,1,1.757-2.6c.635-.722.822-1.837,1.457-2.559a2.033,2.033,0,0,1,1.183-.8,2.316,2.316,0,0,1,1.359.308" transform="translate(-552.981 -150.884)" fill="#263238"/></g><g transform="translate(4.025 1.133)"><g transform="translate(0)"><g transform="translate(0)"><path d="M565.873,154.84a3.569,3.569,0,0,0-3.547,3.627l.1,9.809a2.294,2.294,0,0,0,2.416,2.2h0a2.426,2.426,0,0,0,2.426-2.338c0-1.326.032-2.722.032-2.722a2.761,2.761,0,0,0,2.039-2.512c.088-.56.094-2.616.078-4.511a3.567,3.567,0,0,0-3.547-3.557Z" transform="translate(-562.326 -154.84)" fill="#ffbe9d"/><g transform="translate(5.537 4.302)"><g transform="translate(0.491 0.362)"><g transform="translate(0)"><path d="M564.689,171.382a.285.285,0,0,1-.272.288.272.272,0,0,1-.291-.258.284.284,0,0,1,.272-.288A.272.272,0,0,1,564.689,171.382Z" transform="translate(-564.125 -171.123)" fill="#263238"/></g></g><g transform="translate(0)"><g transform="translate(0)"><path d="M565.009,170.159c-.035.037-.249-.123-.553-.122s-.527.155-.56.117c-.016-.017.02-.084.117-.156a.769.769,0,0,1,.448-.14.738.738,0,0,1,.44.144C564.995,170.075,565.026,170.143,565.009,170.159Z" transform="translate(-563.892 -169.859)" fill="#263238"/></g></g></g><g transform="translate(2.548 4.359)"><g transform="translate(0.437 0.305)"><g transform="translate(0)"><path d="M575.437,171.382a.284.284,0,0,1-.272.288.271.271,0,0,1-.291-.258.284.284,0,0,1,.272-.288A.271.271,0,0,1,575.437,171.382Z" transform="translate(-574.873 -171.123)" fill="#263238"/></g></g><g transform="translate(0)"><g transform="translate(0)"><path d="M575.564,170.359c-.035.037-.249-.123-.553-.122s-.527.155-.56.117c-.016-.017.019-.084.117-.156a.771.771,0,0,1,.448-.14.74.74,0,0,1,.44.144C575.55,170.276,575.581,170.343,575.564,170.359Z" transform="translate(-574.448 -170.059)" fill="#263238"/></g></g></g><g transform="translate(4.626 4.378)"><g transform="translate(0)"><path d="M567.973,172.687a1.994,1.994,0,0,1,.494-.09c.078-.008.151-.024.164-.077a.407.407,0,0,0-.052-.233l-.23-.6a10.374,10.374,0,0,1-.516-1.564,10.375,10.375,0,0,1,.639,1.519l.22.6a.461.461,0,0,1,.04.308.2.2,0,0,1-.128.115.517.517,0,0,1-.132.019A1.942,1.942,0,0,1,567.973,172.687Z" transform="translate(-567.83 -170.124)" fill="#263238"/></g></g><g transform="translate(2.028 9.784)"><g transform="translate(0)"><path d="M572.775,189.794a5.551,5.551,0,0,1-2.951-.8,2.787,2.787,0,0,0,2.921,1.322Z" transform="translate(-569.825 -188.998)" fill="#eb996e"/></g></g><g transform="translate(3.733 7.473)"><g transform="translate(0)"><path d="M571.82,181.138a.545.545,0,0,0-.491-.206.5.5,0,0,0-.345.187.324.324,0,0,0-.024.367.366.366,0,0,0,.4.1,1.151,1.151,0,0,0,.388-.235.335.335,0,0,0,.087-.091.1.1,0,0,0,0-.115" transform="translate(-570.913 -180.93)" fill="#eb996e"/></g></g><g transform="translate(3.824 7.153)"><g transform="translate(0)"><path d="M570.353,179.814c.049,0,.05.331.332.568s.634.2.637.247c0,.021-.078.065-.227.069a.817.817,0,0,1-.531-.187.727.727,0,0,1-.258-.476C570.293,179.895,570.33,179.812,570.353,179.814Z" transform="translate(-570.303 -179.814)" fill="#263238"/></g></g></g><g transform="translate(2.29 3.568)"><g transform="translate(0)"><path d="M575.8,167.527c-.03.084-.334.044-.69.087s-.645.142-.693.067c-.021-.036.029-.115.145-.2a1.2,1.2,0,0,1,1.054-.117C575.747,167.422,575.813,167.488,575.8,167.527Z" transform="translate(-574.412 -167.297)" fill="#263238"/></g></g><g transform="translate(5.507 3.394)"><g transform="translate(0)"><path d="M565.311,167.006c-.053.07-.263,0-.515-.006s-.465.047-.514-.026c-.021-.036.012-.105.105-.172a.739.739,0,0,1,.829.026C565.305,166.9,565.334,166.972,565.311,167.006Z" transform="translate(-564.275 -166.688)" fill="#263238"/></g></g></g></g><g transform="translate(3.181 0.721)"><path d="M560.39,157.38a4.592,4.592,0,0,1,1.93-3.421,7.29,7.29,0,0,1,5.366.527,3.776,3.776,0,0,1,1.135,2.352,5.484,5.484,0,0,1-.4,2.616l-.17-2.258a5.3,5.3,0,0,1-2.842-2.642,4.685,4.685,0,0,1-3.339,3.29,3.885,3.885,0,0,1-1.309,3.577A12.845,12.845,0,0,1,560.39,157.38Z" transform="translate(-560.343 -153.402)" fill="#263238"/></g><g transform="translate(0.054 4.876)"><path d="M587.809,169.067a5.985,5.985,0,0,0,.338,2.594,3.4,3.4,0,0,1-.108,2.567,1.351,1.351,0,0,0-.306.683,2.531,2.531,0,0,0,.229.633,1,1,0,0,1-.44,1.074,1.591,1.591,0,0,1-1.19.173,4.742,4.742,0,0,1-1.144-.456l-1.074-.541a1.843,1.843,0,0,1-.451-.285,1.542,1.542,0,0,1-.391-.809,4.952,4.952,0,0,1,.573-3.42c.574-1.03.319-2.741,1.306-3.374" transform="translate(-583.174 -167.906)" fill="#263238"/></g><g transform="translate(0 0.951)"><path d="M576.414,166.2a2.127,2.127,0,0,1-.575-.229,1.8,1.8,0,0,1-.521-.5,1.829,1.829,0,0,1-.328-.89,2.33,2.33,0,0,1,.192-1.137,2.7,2.7,0,0,1,.328-.557c.137-.176.3-.344.463-.518a4.779,4.779,0,0,0,.485-.571,1.658,1.658,0,0,0,.293-.744c.067-.549-.138-1.091-.051-1.617a1.006,1.006,0,0,1,.39-.64,2.432,2.432,0,0,1,.69-.337,5.168,5.168,0,0,0,1.38-.622,9.391,9.391,0,0,0,1.884-1.734c.475-.554.821-1.034,1.056-1.367.117-.167.206-.3.263-.389a.666.666,0,0,0,.083-.142.693.693,0,0,0-.107.125l-.285.372c-.249.321-.606.79-1.088,1.331a9.627,9.627,0,0,1-1.879,1.688,5.09,5.09,0,0,1-1.353.6,2.556,2.556,0,0,0-.732.357,1.154,1.154,0,0,0-.446.732c-.091.587.117,1.123.052,1.626a2.246,2.246,0,0,1-.733,1.237,6.988,6.988,0,0,0-.468.533,2.834,2.834,0,0,0-.338.588,2.417,2.417,0,0,0-.183,1.2,1.891,1.891,0,0,0,.366.928,1.8,1.8,0,0,0,.559.5,1.438,1.438,0,0,0,.441.164A.543.543,0,0,0,576.414,166.2Z" transform="translate(-574.872 -154.203)" fill="#455a64"/></g><g transform="translate(2.222 0.771)"><g transform="translate(0)"><path d="M576.357,156.968a.751.751,0,0,0,.235-.049,6.293,6.293,0,0,0,.617-.209,9.466,9.466,0,0,0,3.529-2.427,6.421,6.421,0,0,0,.419-.5.763.763,0,0,0,.131-.2c-.019-.015-.238.245-.625.634a11.36,11.36,0,0,1-3.494,2.4C576.67,156.834,576.35,156.944,576.357,156.968Z" transform="translate(-576.357 -153.576)" fill="#455a64"/></g></g><g transform="translate(7.529 0.077)"><g transform="translate(0)"><path d="M568.857,151.8c.011-.015-.1-.139-.323-.295a1.842,1.842,0,0,0-1-.349,1.264,1.264,0,0,0-.583.124,1.068,1.068,0,0,0-.378.311c-.17.23-.166.418-.151.417a2.911,2.911,0,0,1,.23-.349,1.137,1.137,0,0,1,.879-.353,2.054,2.054,0,0,1,.945.29A1.885,1.885,0,0,0,568.857,151.8Z" transform="translate(-566.418 -151.151)" fill="#455a64"/></g></g></g></g></g></g></g></g></svg>