<svg xmlns="http://www.w3.org/2000/svg" xmlns:xlink="http://www.w3.org/1999/xlink" width="228.442" height="204.234" viewBox="0 0 228.442 204.234"><defs><filter id="a" x="4.465" y="77.072" width="108.729" height="80.235" filterUnits="userSpaceOnUse"><feOffset dy="3" input="SourceAlpha"/><feGaussianBlur stdDeviation="10" result="b"/><feFlood flood-color="#7090b0" flood-opacity="0.2"/><feComposite operator="in" in2="b"/><feComposite in="SourceGraphic"/></filter><filter id="c" x="99.638" y="20.877" width="122.207" height="121.999" filterUnits="userSpaceOnUse"><feOffset dy="3" input="SourceAlpha"/><feGaussianBlur stdDeviation="10" result="d"/><feFlood flood-color="#7090b0" flood-opacity="0.102"/><feComposite operator="in" in2="d"/><feComposite in="SourceGraphic"/></filter><filter id="e" x="41.412" y="62.987" width="145.616" height="138.225" filterUnits="userSpaceOnUse"><feOffset dy="3" input="SourceAlpha"/><feGaussianBlur stdDeviation="20" result="f"/><feFlood flood-color="#7090b0" flood-opacity="0.2"/><feComposite operator="in" in2="f"/><feComposite in="SourceGraphic"/></filter><filter id="g" x="0" y="0" width="228.442" height="187.854" filterUnits="userSpaceOnUse"><feOffset dy="3" input="SourceAlpha"/><feGaussianBlur stdDeviation="20" result="h"/><feFlood flood-color="#7090b0" flood-opacity="0.2"/><feComposite operator="in" in2="h"/><feComposite in="SourceGraphic"/></filter><filter id="i" x="29.613" y="80.3" width="169.212" height="123.935" filterUnits="userSpaceOnUse"><feOffset dy="3" input="SourceAlpha"/><feGaussianBlur stdDeviation="20" result="j"/><feFlood flood-color="#7090b0" flood-opacity="0.2"/><feComposite operator="in" in2="j"/><feComposite in="SourceGraphic"/></filter><linearGradient id="k" x1="0.5" y1="-0.011" x2="0.5" y2="0.996" gradientUnits="objectBoundingBox"><stop offset="0" stop-color="#fff"/><stop offset="1" stop-color="#fff" stop-opacity="0"/></linearGradient></defs><g transform="translate(14.129 20.804)"><g transform="translate(16 16)"><g transform="translate(0 0)"><g transform="translate(115.665 60.589)"><path d="M356.033,252.038H303.026V221.357h53.007Zm-52.684-.323h52.36V221.68H303.35Z" transform="translate(-303.026 -221.357)" fill="#d0d4f2"/><g transform="translate(7.093 16.359)"><rect width="34.98" height="1.026" fill="#cad0ee"/></g><g transform="translate(7.093 20.183)"><rect width="37.389" height="1.12" fill="#cad0ee"/></g><g transform="translate(7.093 24.052)"><rect width="37.389" height="1.12" fill="#cad0ee"/></g><g transform="translate(7.093 10.805)"><rect width="12.225" height="2.662" fill="#f0f0f0"/></g><g transform="translate(0.162 0.162)"><rect width="52.684" height="4.884" fill="#d1d5f3"/></g><g transform="translate(48.787 0.888)"><path d="M453.847,227.53a16.721,16.721,0,0,1,3.276-3.424,16.765,16.765,0,0,1-3.276,3.424Z" transform="translate(-453.843 -224.102)" fill="#fff"/><path d="M457.123,227.53a16.743,16.743,0,0,1-3.276-3.424,16.765,16.765,0,0,1,3.276,3.424Z" transform="translate(-453.843 -224.102)" fill="#fff"/></g></g><g transform="translate(20.277)"><rect width="52.684" height="30.357" fill="#c5cbe3"/><g transform="translate(6.932 16.197)"><rect width="34.98" height="1.026" fill="#f0f0f0"/></g><g transform="translate(6.932 20.021)"><rect width="37.389" height="1.119" fill="#f0f0f0"/></g><g transform="translate(6.932 23.89)"><rect width="37.389" height="1.119" fill="#f0f0f0"/></g><g transform="translate(6.932 10.643)"><rect width="12.225" height="2.662" fill="#f0f0f0"/></g><rect width="52.684" height="4.884" fill="#2d4493"/><g transform="translate(48.444 0.702)"><g transform="translate(0)"><path d="M252.126,39.654a8.478,8.478,0,0,1,1.516-1.829,8.491,8.491,0,0,1,1.76-1.6,8.47,8.47,0,0,1-1.516,1.829A8.484,8.484,0,0,1,252.126,39.654Z" transform="translate(-252.122 -36.226)" fill="#fff"/></g><path d="M255.4,39.654a8.487,8.487,0,0,1-1.759-1.6,8.47,8.47,0,0,1-1.517-1.829,8.49,8.49,0,0,1,1.76,1.6A8.466,8.466,0,0,1,255.4,39.654Z" transform="translate(-252.122 -36.226)" fill="#fff"/></g></g><g transform="translate(0 25.714)"><path d="M92.688,144.225H39.681V113.544H92.688ZM40,143.9h52.36V113.867H40Z" transform="translate(-39.681 -113.544)" fill="#cad0ee"/><g transform="translate(7.093 16.359)"><rect width="34.98" height="1.026" fill="#cad0ee"/></g><g transform="translate(7.093 20.183)"><rect width="37.389" height="1.119" fill="#cad0ee"/></g><g transform="translate(7.093 24.052)"><rect width="37.389" height="1.119" fill="#cad0ee"/></g><g transform="translate(7.093 10.805)"><rect width="12.225" height="2.662" fill="#cad0ee"/></g><g transform="translate(0.162 0.162)"><rect width="52.684" height="4.884" fill="#cad0ee"/></g></g><g transform="translate(4.336 67.268)"><g transform="matrix(1, 0, 0, 1, -34.46, -104.07)" filter="url(#a)"><rect width="48.729" height="20.235" transform="translate(34.46 104.07)" fill="#c1c8e0"/></g><rect width="48.729" height="5.516" fill="#304894"/><g transform="translate(1.978 1.632)"><path d="M67.541,182.007a1.024,1.024,0,1,1-1.023-1.069A1.047,1.047,0,0,1,67.541,182.007Z" transform="translate(-65.495 -180.938)" fill="#fff"/></g><g transform="translate(6.128 1.632)"><path d="M80.37,182.007a1.024,1.024,0,1,1-1.023-1.069A1.047,1.047,0,0,1,80.37,182.007Z" transform="translate(-78.324 -180.938)" fill="#fff"/></g><g transform="translate(10.278 1.632)"><path d="M93.2,182.007a1.024,1.024,0,1,1-1.023-1.069A1.047,1.047,0,0,1,93.2,182.007Z" transform="translate(-91.153 -180.938)" fill="#fff"/></g></g><g transform="translate(99.509 11.073)"><g transform="matrix(1, 0, 0, 1, -129.64, -47.88)" filter="url(#c)"><rect width="62.207" height="61.999" transform="translate(129.64 47.88)" fill="#fff"/></g><rect width="62.207" height="7.262" fill="#2d4493"/><g transform="translate(45.375 2.149)"><path d="M263.824,76.335a1.348,1.348,0,1,1-1.347-1.408A1.379,1.379,0,0,1,263.824,76.335Z" transform="translate(-261.13 -74.927)" fill="#fff"/></g><g transform="translate(50.808 2.179)"><path d="M280.254,75.446a1.348,1.348,0,1,1-1.948-.043A1.378,1.378,0,0,1,280.254,75.446Z" transform="translate(-277.924 -75.021)" fill="#fff"/></g><g transform="translate(56.302 2.149)"><path d="M297.6,76.335a1.348,1.348,0,1,1-1.347-1.408A1.379,1.379,0,0,1,297.6,76.335Z" transform="translate(-294.909 -74.927)" fill="#fff"/></g></g><g transform="translate(112.607 1.503)"><path d="M331.893,45.488l-1.667.6-.713-2.177a7.3,7.3,0,0,0-9.348-4.79,7.791,7.791,0,0,0-4.578,9.772l.713,2.177-1.672.6a2.66,2.66,0,0,0-1.559,3.325l4.637,14.166a2.5,2.5,0,0,0,3.189,1.653l17.266-6.176a2.673,2.673,0,0,0,1.573-3.356L335.1,47.109A2.5,2.5,0,0,0,331.893,45.488Zm-13.16,2.275a4.27,4.27,0,0,1,2.509-5.356,4,4,0,0,1,5.122,2.626l.713,2.177-7.631,2.73Zm9.707,12.568,1.184,3.618a.291.291,0,0,1-.185.362l-1.657.593a.268.268,0,0,1-.339-.175l-1.185-3.618a3.234,3.234,0,0,1-2.92-2.266,3.4,3.4,0,0,1,2-4.264,3.184,3.184,0,0,1,4.08,2.088A3.456,3.456,0,0,1,328.441,60.331Z" transform="translate(-312.934 -38.702)" fill="#ff4b13"/></g><g transform="translate(13.364 43.546)"><path d="M105.057,168.672a.88.88,0,0,1-.15.017l-.44.032a4.893,4.893,0,0,0-.71.095c-.139.028-.292.039-.449.085l-.5.139a8.261,8.261,0,0,0-2.385,1.183,8.454,8.454,0,0,0-2.347,2.612,8.918,8.918,0,0,0-.823,1.879,9.469,9.469,0,0,0-.337,3.365c.011.2.053.4.079.6a4.218,4.218,0,0,0,.114.6,8.537,8.537,0,0,0,4.846,5.928,7.676,7.676,0,0,0,2.778.624,7.505,7.505,0,0,0,2.9-.418l.284-.1.038-.014.034.017,4.08,2.071-.121.1-1.263-3.921-.016-.048.036-.036a8.71,8.71,0,0,0,2.142-3.561,8.949,8.949,0,0,0,.311-3.792,8.725,8.725,0,0,0-2.914-5.468,8.962,8.962,0,0,0-2-1.276,8.8,8.8,0,0,0-1.693-.533l-.635-.108-.468-.033-.287-.022a.482.482,0,0,1-.1-.013.536.536,0,0,1,.1,0l.288.008.471.019.641.1a8.612,8.612,0,0,1,1.715.514,8.953,8.953,0,0,1,2.039,1.27,8.792,8.792,0,0,1,1.883,2.273,8.89,8.89,0,0,1,1.1,3.257,9.078,9.078,0,0,1-.3,3.856,8.852,8.852,0,0,1-2.173,3.633l.02-.085,1.269,3.919.064.2-.185-.094-4.081-2.069.071,0-.29.107a7.677,7.677,0,0,1-2.965.426,7.851,7.851,0,0,1-2.839-.641,8.68,8.68,0,0,1-4.928-6.052,4.318,4.318,0,0,1-.113-.61c-.025-.2-.068-.4-.078-.606a9.566,9.566,0,0,1,.357-3.417,8.993,8.993,0,0,1,.845-1.9,8.5,8.5,0,0,1,2.4-2.629,8.209,8.209,0,0,1,2.423-1.169l.508-.132c.158-.044.313-.053.453-.078a4.605,4.605,0,0,1,.716-.079l.443-.015A.983.983,0,0,1,105.057,168.672Z" transform="translate(-96.733 -168.669)" fill="#ff4b13"/><g transform="translate(5.124 4.544)"><path d="M117.618,185.727h-.6l-1.3-1.818v-1.193s-.924-.057-.816,1.506-.009,1.165-.009,1.165a9.694,9.694,0,0,0-2.125.178,20.128,20.128,0,0,0-.192,3.13,1.144,1.144,0,0,0,.811,1.153.863.863,0,0,0,.211.028c.489,0,2.99-.4,2.99-.4h1.033Z" transform="translate(-112.573 -182.715)" fill="#ff4b13"/><g transform="translate(5.365 2.684)"><path d="M130.548,191.013l-.368,4.089h-1.024V191.1Z" transform="translate(-129.157 -191.013)" fill="#ff4b13"/></g></g></g><g transform="translate(29.871 20.196)"><g transform="matrix(1, 0, 0, 1, -60, -57)" filter="url(#e)"><path d="M338.656,366.428H313.04l2.782-10.939.631-2.481,1.224-4.8h16.342l1.224,4.8.631,2.481Z" transform="translate(-211.63 -228.22)" fill="#6381e6"/></g><path d="M341.693,365.536H321.641l.631-2.481h18.79Z" transform="translate(-277.447 -295.263)" fill="#2d4493"/><g transform="matrix(1, 0, 0, 1, -60, -57)" filter="url(#g)"><path d="M293.466,156.18v62.47a2.693,2.693,0,0,1-2.692,2.692H187.715a2.691,2.691,0,0,1-2.692-2.692V156.18a2.691,2.691,0,0,1,2.692-2.692H290.773A2.693,2.693,0,0,1,293.466,156.18Z" transform="translate(-125.02 -96.49)" fill="#6280e6"/></g><g transform="matrix(1, 0, 0, 1, -60, -57)" filter="url(#i)"><path d="M323.811,405.657H278.533a1.967,1.967,0,0,1-1.967-1.967h0a1.967,1.967,0,0,1,1.967-1.967h45.278a1.967,1.967,0,0,1,1.967,1.967h0A1.967,1.967,0,0,1,323.811,405.657Z" transform="translate(-186.95 -264.42)" fill="#6583e6"/></g><rect width="104.275" height="55.069" transform="translate(1.984 1.976)" fill="#9facdb"/><path d="M347.387,343.272h0a2.507,2.507,0,0,1-2.5-2.5h0a2.507,2.507,0,0,1,2.5-2.5h0a2.508,2.508,0,0,1,2.5,2.5h0A2.507,2.507,0,0,1,347.387,343.272Z" transform="translate(-293.174 -278.497)" fill="#2d4493"/><path d="M361.008,221.293h-7.325l19.263-67.8h7.325Z" transform="translate(-299.125 -153.488)" opacity="0.2" fill="url(#k)"/><path d="M400.716,221.293H385.177l19.263-67.8h15.539Z" transform="translate(-320.43 -153.488)" opacity="0.2" fill="url(#k)"/><g transform="translate(30.974 5.349)"><g transform="translate(0.234 10.587)"><rect width="8.319" height="1.526" transform="translate(0.007 0) rotate(0.264)" fill="#ff4b13"/><rect width="8.319" height="1.526" transform="translate(0.007 0) rotate(0.264)" opacity="0.1"/></g><g transform="translate(0.121 14.321)"><path d="M266.922,180.966a1.4,1.4,0,0,0,.265-.044.572.572,0,0,0,.437-.435c0-.516,0-1.266-.006-2.228q0-.727,0-1.612,0-.221,0-.451a.486.486,0,0,0-.126-.424.772.772,0,0,0-.533-.2h-.707l-6.514-.009-37.718-.1a.712.712,0,0,0-.5.18c-.125.115-.12.249-.117.423q0,.493-.006.982-.006.978-.012,1.943,0,.483-.006.961a2.074,2.074,0,0,0,.018.455.522.522,0,0,0,.352.291.926.926,0,0,0,.279.034h.33l.658,0,1.308,0,10.015.038,16.957.074,11.432.065,3.108.026.808.011c.183,0,.276.01.276.01s-.093.005-.276.008l-.808.006-3.108.005-11.432-.011-16.957-.038-10.014-.028-1.308,0-.658,0h-.33a1.236,1.236,0,0,1-.368-.047.719.719,0,0,1-.487-.4.692.692,0,0,1-.028-.258v-.239q0-.479.006-.961,0-.965.011-1.943,0-.489.005-.982a1.629,1.629,0,0,1,.012-.258.517.517,0,0,1,.151-.263.987.987,0,0,1,.688-.25l37.717.15,6.514.034.707,0a.909.909,0,0,1,.631.237.549.549,0,0,1,.145.475c0,.153,0,.3,0,.451-.008.588-.014,1.127-.02,1.611-.017.964-.03,1.715-.038,2.231a.606.606,0,0,1-.476.449A.736.736,0,0,1,266.922,180.966Z" transform="translate(-221.146 -175.295)" fill="#e0e0e0"/></g><g transform="translate(2.467 16.459)"><rect width="15.218" height="1.427" transform="translate(0.007 0) rotate(0.265)" fill="#ff4b13"/><rect width="15.218" height="1.427" transform="translate(0.007 0) rotate(0.265)" fill="#fff" opacity="0.2"/></g><g transform="translate(0.175 24.518)"><rect width="8.319" height="1.526" transform="translate(0.007 0) rotate(0.264)" fill="#ff4b13"/><rect width="8.319" height="1.526" transform="translate(0.007 0) rotate(0.264)" opacity="0.1"/></g><g transform="translate(0.061 28.252)"><path d="M266.524,224.03a2.473,2.473,0,0,0,.267-.036.912.912,0,0,0,.571-.367.656.656,0,0,0,.078-.41q0-.235,0-.514c0-.373,0-.8,0-1.283s0-1.019,0-1.606v-.45a.546.546,0,0,0-.132-.427.9.9,0,0,0-.49-.272,3.844,3.844,0,0,0-.681-.028l-6.492-.009-37.587-.1a.783.783,0,0,0-.823.521c-.014.308-.007.648-.012.969q-.006.975-.012,1.937,0,.481-.006.958a1.471,1.471,0,0,0,.028.452.649.649,0,0,0,.329.332,1.175,1.175,0,0,0,.561.1l.656,0,1.3,0,9.98.038,16.9.074,11.392.065,3.1.026.805.011c.182,0,.275.01.275.01s-.093.005-.275.008l-.805.005-3.1.006-11.392-.011-16.9-.038-9.98-.028-1.3,0-.656,0a1.484,1.484,0,0,1-.69-.132.831.831,0,0,1-.423-.425,1.5,1.5,0,0,1-.037-.5q0-.477,0-.958.006-.962.011-1.937c.005-.329,0-.641.013-.987a1,1,0,0,1,1.057-.669l37.587.149,6.491.034a3.906,3.906,0,0,1,.718.036,1.022,1.022,0,0,1,.557.313.615.615,0,0,1,.144.473c0,.153,0,.3,0,.45-.007.587-.014,1.123-.02,1.606s-.013.91-.019,1.283c0,.185-.005.356-.008.514a.683.683,0,0,1-.093.424.953.953,0,0,1-.608.369A1.007,1.007,0,0,1,266.524,224.03Z" transform="translate(-220.963 -218.36)" fill="#e0e0e0"/></g><g transform="translate(0.114 39.046)"><rect width="8.319" height="1.526" transform="translate(0.007 0) rotate(0.263)" fill="#ff4b13"/><rect width="8.319" height="1.526" transform="translate(0.007 0) rotate(0.263)" opacity="0.1"/></g><g transform="translate(0 42.781)"><path d="M266.333,268.943a2.465,2.465,0,0,0,.267-.036.913.913,0,0,0,.571-.367.655.655,0,0,0,.078-.41q0-.236,0-.514c0-.373,0-.8,0-1.282s0-1.02,0-1.606c0-.147,0-.3,0-.45a.55.55,0,0,0-.132-.427.907.907,0,0,0-.49-.273,3.913,3.913,0,0,0-.682-.028l-6.491-.009-37.587-.1a.783.783,0,0,0-.823.521c-.014.308-.007.648-.012.969q-.005.975-.012,1.937,0,.481-.006.958a1.46,1.46,0,0,0,.028.452.649.649,0,0,0,.329.332,1.171,1.171,0,0,0,.561.1l.656,0,1.3,0,9.98.038,16.9.074,11.391.064,3.1.026.805.011c.181,0,.274.009.274.009s-.093.006-.274.008l-.805.005-3.1.006-11.392-.011-16.9-.038-9.98-.028-1.3,0-.656,0a1.487,1.487,0,0,1-.691-.132.832.832,0,0,1-.423-.425,1.5,1.5,0,0,1-.037-.5q0-.477.005-.958.005-.962.011-1.937c.005-.329,0-.641.013-.988a1,1,0,0,1,1.058-.669l37.587.149,6.491.034a3.914,3.914,0,0,1,.718.036,1.024,1.024,0,0,1,.556.313.616.616,0,0,1,.145.473q0,.229-.005.45c-.007.586-.014,1.123-.019,1.606s-.013.91-.018,1.283q0,.278-.009.514a.68.68,0,0,1-.093.424.95.95,0,0,1-.607.369A1.029,1.029,0,0,1,266.333,268.943Z" transform="translate(-220.773 -263.273)" fill="#e0e0e0"/></g><g transform="translate(2.408 30.389)"><rect width="15.218" height="1.427" transform="translate(0.007 0) rotate(0.265)" fill="#ff4b13"/><rect width="15.218" height="1.427" transform="translate(0.007 0) rotate(0.265)" fill="#fff" opacity="0.2"/></g><g transform="translate(2.466 45.097)"><path d="M229.729,271.147a.667.667,0,1,1-.662-.713A.688.688,0,0,1,229.729,271.147Z" transform="translate(-228.398 -270.434)" fill="#ff4b13"/><g transform="translate(2.062 0.009)"><path d="M236.1,271.176a.667.667,0,1,1-.662-.713A.688.688,0,0,1,236.1,271.176Z" transform="translate(-234.771 -270.463)" fill="#ff4b13"/></g><g transform="translate(4.123 0.019)"><path d="M242.474,271.206a.667.667,0,1,1-.662-.713A.688.688,0,0,1,242.474,271.206Z" transform="translate(-241.144 -270.493)" fill="#ff4b13"/></g><g transform="translate(6.185 0.028)"><path d="M248.847,271.235a.666.666,0,1,1-.662-.713A.688.688,0,0,1,248.847,271.235Z" transform="translate(-247.517 -270.522)" fill="#ff4b13"/></g><g transform="translate(8.246 0.038)"><path d="M255.219,271.264a.667.667,0,1,1-.662-.713A.687.687,0,0,1,255.219,271.264Z" transform="translate(-253.889 -270.551)" fill="#ff4b13"/></g><g transform="translate(10.307 0.048)"><path d="M261.592,271.294a.667.667,0,1,1-.662-.713A.687.687,0,0,1,261.592,271.294Z" transform="translate(-260.262 -270.581)" fill="#ff4b13"/></g><g transform="translate(12.369 0.057)"><path d="M267.966,271.323a.667.667,0,1,1-.663-.712A.689.689,0,0,1,267.966,271.323Z" transform="translate(-266.635 -270.611)" fill="#ff4b13"/></g><g transform="translate(14.431 0.067)"><path d="M274.339,271.352a.667.667,0,1,1-.662-.712A.688.688,0,0,1,274.339,271.352Z" transform="translate(-273.008 -270.64)" fill="#ff4b13"/></g><g transform="translate(16.492 0.076)"><path d="M280.711,271.382a.667.667,0,1,1-.662-.713A.688.688,0,0,1,280.711,271.382Z" transform="translate(-279.38 -270.669)" fill="#ff4b13"/></g><g opacity="0.2"><path d="M229.729,271.147a.667.667,0,1,1-.662-.713A.688.688,0,0,1,229.729,271.147Z" transform="translate(-228.398 -270.434)" fill="#fff"/><g transform="translate(2.062 0.009)"><path d="M236.1,271.176a.667.667,0,1,1-.662-.713A.688.688,0,0,1,236.1,271.176Z" transform="translate(-234.771 -270.463)" fill="#fff"/></g><g transform="translate(4.123 0.019)"><path d="M242.474,271.206a.667.667,0,1,1-.662-.713A.688.688,0,0,1,242.474,271.206Z" transform="translate(-241.144 -270.493)" fill="#fff"/></g><g transform="translate(6.185 0.028)"><path d="M248.847,271.235a.666.666,0,1,1-.662-.713A.688.688,0,0,1,248.847,271.235Z" transform="translate(-247.517 -270.522)" fill="#fff"/></g><g transform="translate(8.246 0.038)"><path d="M255.219,271.264a.667.667,0,1,1-.662-.713A.687.687,0,0,1,255.219,271.264Z" transform="translate(-253.889 -270.551)" fill="#fff"/></g><g transform="translate(10.307 0.048)"><path d="M261.592,271.294a.667.667,0,1,1-.662-.713A.687.687,0,0,1,261.592,271.294Z" transform="translate(-260.262 -270.581)" fill="#fff"/></g><g transform="translate(12.369 0.057)"><path d="M267.966,271.323a.667.667,0,1,1-.663-.712A.689.689,0,0,1,267.966,271.323Z" transform="translate(-266.635 -270.611)" fill="#fff"/></g><g transform="translate(14.431 0.067)"><path d="M274.339,271.352a.667.667,0,1,1-.662-.712A.688.688,0,0,1,274.339,271.352Z" transform="translate(-273.008 -270.64)" fill="#fff"/></g><g transform="translate(16.492 0.076)"><path d="M280.711,271.382a.667.667,0,1,1-.662-.713A.688.688,0,0,1,280.711,271.382Z" transform="translate(-279.38 -270.669)" fill="#fff"/></g></g></g><g transform="translate(15.564 0)"><g transform="translate(5.733)"><path d="M269.038,123.444a1.254,1.254,0,0,0,.747-1.161,1.179,1.179,0,1,0-2.353-.011,1.253,1.253,0,0,0,.75,1.171,2.144,2.144,0,0,0-1.728,2.24l4.281.02S270.832,123.715,269.038,123.444Z" transform="translate(-266.453 -121.023)" fill="#ff4b13"/><path d="M269.038,123.444a1.254,1.254,0,0,0,.747-1.161,1.179,1.179,0,1,0-2.353-.011,1.253,1.253,0,0,0,.75,1.171,2.144,2.144,0,0,0-1.728,2.24l4.281.02S270.832,123.715,269.038,123.444Z" transform="translate(-266.453 -121.023)" opacity="0.1"/></g><g transform="translate(0 5.898)"><rect width="15.266" height="1.825" transform="matrix(1, 0.005, -0.005, 1, 0.008, 0)" fill="#ff4b13"/><rect width="15.266" height="1.825" transform="matrix(1, 0.005, -0.005, 1, 0.008, 0)" fill="#fff" opacity="0.2"/></g></g></g></g><g transform="translate(30.013 40.296)"><g transform="translate(0 0)"><g transform="translate(10.749 85.743)"><path d="M160.692,442.484v-2.767l-4.959-.033-.041,4.181.308.023c1.368.089,6.961.217,7.878-.067C164.9,443.5,160.692,442.484,160.692,442.484Z" transform="translate(-155.692 -439.683)" fill="#e8505b"/><g transform="translate(0.017 3.794)"><path d="M164.03,451.495c0,.047-1.855.084-4.143.084s-4.143-.038-4.143-.084,1.855-.084,4.143-.084S164.03,451.449,164.03,451.495Z" transform="translate(-155.744 -451.411)" fill="#263238"/></g><g transform="translate(5.071 2.858)"><path d="M171.385,449.025c-.041-.021-.006-.168.1-.312s.236-.222.268-.189-.035.155-.133.289S171.426,449.047,171.385,449.025Z" transform="translate(-171.368 -448.517)" fill="#263238"/></g><g transform="translate(5.383 2.943)"><path d="M172.354,449.385c-.043-.016-.021-.18.077-.353s.226-.277.262-.248-.025.17-.115.331S172.4,449.4,172.354,449.385Z" transform="translate(-172.333 -448.78)" fill="#263238"/></g><g transform="translate(0.08 2.894)"><path d="M157.37,449.6c-.019.014-.093-.059-.2-.181a3.272,3.272,0,0,0-.435-.436,1.142,1.142,0,0,0-.536-.234c-.151-.02-.25,0-.258-.021s.084-.087.262-.1a.986.986,0,0,1,.635.22,1.806,1.806,0,0,1,.428.5C157.351,449.492,157.389,449.587,157.37,449.6Z" transform="translate(-155.939 -448.629)" fill="#263238"/></g><g transform="translate(4.624 2.825)"><path d="M170.466,448.436c.024.039-.061.135-.2.187s-.268.034-.275-.011.093-.1.217-.146S170.441,448.4,170.466,448.436Z" transform="translate(-169.988 -448.416)" fill="#263238"/></g><g transform="translate(4.432 2.498)"><path d="M169.987,447.485c0,.046-.128.086-.3.088s-.3-.034-.3-.08.135-.086.3-.088S169.982,447.439,169.987,447.485Z" transform="translate(-169.394 -447.405)" fill="#263238"/></g></g><g transform="translate(22.961 85.743)"><path d="M198.444,442.484v-2.767l-4.959-.033-.041,4.139.307.023c1.368.089,6.962.26,7.878-.024C202.652,443.5,198.444,442.484,198.444,442.484Z" transform="translate(-193.444 -439.683)" fill="#e8505b"/><g transform="translate(0.017 3.8)"><path d="M201.782,451.513c0,.046-1.855.084-4.143.084s-4.143-.038-4.143-.084,1.855-.084,4.143-.084S201.782,451.467,201.782,451.513Z" transform="translate(-193.496 -451.429)" fill="#263238"/></g><g transform="translate(5.071 2.858)"><path d="M209.136,449.025c-.041-.021-.006-.168.1-.312s.236-.222.268-.189-.035.155-.133.289S209.178,449.047,209.136,449.025Z" transform="translate(-209.12 -448.517)" fill="#263238"/></g><g transform="translate(5.383 2.943)"><path d="M210.105,449.385c-.043-.016-.021-.18.077-.353s.226-.277.262-.248-.025.17-.116.331S210.149,449.4,210.105,449.385Z" transform="translate(-210.084 -448.78)" fill="#263238"/></g><g transform="translate(0.08 2.894)"><path d="M195.122,449.6c-.019.014-.093-.059-.2-.181a3.273,3.273,0,0,0-.435-.436,1.142,1.142,0,0,0-.537-.234c-.151-.02-.25,0-.258-.021s.083-.087.262-.1a.987.987,0,0,1,.636.22,1.806,1.806,0,0,1,.428.5C195.1,449.492,195.141,449.587,195.122,449.6Z" transform="translate(-193.691 -448.629)" fill="#263238"/></g><g transform="translate(4.624 2.825)"><path d="M208.218,448.436c.024.039-.061.135-.2.187s-.268.034-.275-.011.093-.1.217-.146S208.193,448.4,208.218,448.436Z" transform="translate(-207.74 -448.416)" fill="#263238"/></g><g transform="translate(4.432 2.498)"><path d="M207.738,447.485c0,.046-.127.086-.3.088s-.3-.034-.3-.08.136-.086.3-.088S207.733,447.439,207.738,447.485Z" transform="translate(-207.145 -447.405)" fill="#263238"/></g></g><g transform="translate(0 2.051)"><path d="M168.693,185.325c-.129-.133-.447-.071-.447-.071a1.717,1.717,0,0,0,0-.561c-.059-.183-.466-.148-.466-.148a1.9,1.9,0,0,1,.011-.46.163.163,0,0,0-.095-.163,1.506,1.506,0,0,0-.609-.111c-.25-.179.76-1.592,1.135-2.044s.308-.8-.026-.8a9.478,9.478,0,0,0-1.768,1.815c-.36.456-1.325,1.724-1.358.712a2.6,2.6,0,0,0-.694-1.908c-.254-.13-.529.176-.388.457a3.689,3.689,0,0,1,.226,1,2.425,2.425,0,0,1-.037.818,9.435,9.435,0,0,1-.435,1.461l-.025-.014s-7.061,6.77-7.57,7.253c-.458.435-9.632-.514-11.47-.709a12.735,12.735,0,0,0-1.891-.129c-.8.035-.939.148-1.737.159a39.236,39.236,0,0,0-6,.527,4.965,4.965,0,0,0-3.9,3.384c-1.855,5.79-6.052,19.5-6.8,27.2a32.184,32.184,0,0,0-1.515,3.129c-.52,1.415-.393,1.463-.218,1.5.47.087,1.009-2.455,1.21-1.842s-1.02,3.032-.524,3.1c.646.092,1.16-2.579,1.221-2.8s.384-.143.319.055c-.093.285-1,3.3-.371,3.4.351.054.389-.586.389-.586s.644-2.886.941-2.831-.019,1.764-.168,2.332.06.86.363.718a9.469,9.469,0,0,0,.837-2.391c.134-.565.475-2.122.931-1.218a2.6,2.6,0,0,0,1.434,1.438.317.317,0,0,0,.159-.578,3.689,3.689,0,0,1-.625-.807,2.422,2.422,0,0,1-.311-.758,8.4,8.4,0,0,1-.225-1.637l-.053-.333c.724-3.588,2.812-14.116,5.812-20.842l1.235,2.542.536,1.881-3.292,8.132,14.043-.185-2.093-8.067,2.544-8.412h0c2.753.061,9.823.164,11.011-.367,1.482-.662,9.148-10.326,9.148-10.326h0a18.283,18.283,0,0,0,1.433-1.243S168.974,185.613,168.693,185.325Z" transform="translate(-122.462 -180.964)" fill="#ffbe9d"/></g><g transform="translate(4.977 12.151)"><path d="M142.229,229.718c.406-1.391,2.5-8.267,2.5-8.267s1.027,5.606.757,6.281a11.884,11.884,0,0,1-.883,1.668c-2.374,3.616-2.063,5.423-2.063,5.423l14.343-.437a36.565,36.565,0,0,0-1.4-7.413c-.248-.743.575-3.182.575-3.182s1.621-1.646,1.558-2.493a13.693,13.693,0,0,0-.282-2.258l8.728.322-.274-5.922-12.546-1.255c-.434,1.235-4.385.63-4.385.63-4.265.14-4.524.925-6.3,2.3s-4.707,13.2-4.707,13.2Z" transform="translate(-137.848 -212.185)" fill="#ff4b13"/><g transform="translate(7.748 15.613)"><path d="M166.916,260.971a3.079,3.079,0,0,1-.756.038c-.467,0-1.112-.032-1.821-.1s-1.347-.172-1.806-.262a3.061,3.061,0,0,1-.733-.188,3.759,3.759,0,0,1,.752.071c.461.06,1.1.14,1.8.212s1.345.119,1.809.152A3.736,3.736,0,0,1,166.916,260.971Z" transform="translate(-161.8 -260.449)" fill="#263238"/></g><g transform="translate(8.284 14.91)"><path d="M169.019,258.282a3.364,3.364,0,0,1-.783.267,14.218,14.218,0,0,1-3.955.47,3.332,3.332,0,0,1-.824-.076,5.032,5.032,0,0,1,.823-.043c.507-.016,1.207-.053,1.975-.144s1.456-.219,1.953-.323A5.009,5.009,0,0,1,169.019,258.282Z" transform="translate(-163.458 -258.277)" fill="#263238"/></g><g transform="translate(17.47 9.473)"><path d="M193.053,241.471a3.1,3.1,0,0,1-.1.732c-.083.447-.214,1.062-.38,1.736s-.334,1.28-.467,1.715a3.111,3.111,0,0,1-.251.694,3.323,3.323,0,0,1,.137-.725l.418-1.724.427-1.722A3.326,3.326,0,0,1,193.053,241.471Z" transform="translate(-191.852 -241.471)" fill="#263238"/></g><g transform="translate(0.157 15.511)"><path d="M142.708,261.333a30.418,30.418,0,0,1-4.374-1.193,30.632,30.632,0,0,1,4.374,1.193Z" transform="translate(-138.334 -260.134)" fill="#263238"/></g><g transform="translate(15.647 0.337)"><path d="M190.216,219.67a1.181,1.181,0,0,1-.371,0,3.772,3.772,0,0,1-.987-.235,4.137,4.137,0,0,1-1.287-.784,4.032,4.032,0,0,1-1.053-1.516,4.165,4.165,0,0,1-.29-1.823,2.863,2.863,0,0,1,.443-1.443,1.494,1.494,0,0,1,.819-.6,1.008,1.008,0,0,1,.276-.037c.064,0,.1.008.1.014s-.134.008-.353.086a1.5,1.5,0,0,0-.739.607,3.694,3.694,0,0,0-.1,3.137,4,4,0,0,0,1,1.464,4.227,4.227,0,0,0,1.227.788A6.366,6.366,0,0,0,190.216,219.67Z" transform="translate(-186.219 -213.227)" fill="#263238"/></g><g transform="translate(27.106 1.097)"><path d="M221.72,221.539a52.973,52.973,0,0,1,.012-5.962,52.771,52.771,0,0,1-.012,5.962Z" transform="translate(-221.642 -215.577)" fill="#263238"/></g></g><g transform="translate(7.026)"><g transform="translate(8.444 1.181)"><path d="M175.111,189.6c.035-.722.111-1.538.111-1.538a2.162,2.162,0,0,0,1.893-2.041c.108-1.844,0-6.1,0-6.1l-3.251-1.656-3.576,2.822.542,9.22,3.291.209A.949.949,0,0,0,175.111,189.6Z" transform="translate(-170.287 -178.274)" fill="#ffbe9d"/></g><g transform="translate(12.847 6.426)"><path d="M184.639,195.535c.005,0,.006.034-.028.079a.253.253,0,0,1-.205.09c-.207-.01-.407-.239-.48-.519a.887.887,0,0,1-.009-.41.351.351,0,0,1,.194-.278.176.176,0,0,1,.137,0,.156.156,0,0,1,.073.074c.024.055.006.088,0,.085s-.005-.03-.032-.065a.119.119,0,0,0-.154-.032.29.29,0,0,0-.133.231.865.865,0,0,0,.015.366c.065.25.238.455.393.474a.234.234,0,0,0,.174-.048C184.62,195.558,184.633,195.532,184.639,195.535Z" transform="translate(-183.897 -194.486)" fill="#eb996e"/></g><path d="M160.563,176.464a2.6,2.6,0,0,0-1.973-1.5,6.228,6.228,0,0,0-3.828-.061c-1.222.45-2.692,1.242-2.692,2.592-.721-.059-1.133.573-1.42,1.356a5.177,5.177,0,0,0-.307,1.488l-.012,0c-.093,1.767-.585,4.2-1.731,5.509-.633.722-1.544,1.22-1.912,2.119-.321.781-.155,1.7-.458,2.493a9.035,9.035,0,0,1-1.285,1.8,4.8,4.8,0,0,0-.308,4.655,5.908,5.908,0,0,0,3.521,3.043,8.249,8.249,0,0,0,4.645.043,7.763,7.763,0,0,0,3.111-1.541,5.214,5.214,0,0,0,1.786-3.016,10.779,10.779,0,0,0-.414-3.976c-.86-4.152-.615-4.368.471-8.219.025-.068.039-.138.059-.208l.043-.152h0a2.374,2.374,0,0,0,.051-.461.884.884,0,0,1-.935-.2.978.978,0,0,1-.221-.968,1.4,1.4,0,0,1,.834-.786c.359-.151.745-.226,1.1-.393A3.662,3.662,0,0,0,160.3,178.2,2.553,2.553,0,0,0,160.563,176.464Z" transform="translate(-144.183 -174.623)" fill="#263238"/><g transform="translate(13.16 7.553)"><path d="M185.423,197.972a1.468,1.468,0,0,1,.17.32c.1.2.225.492.368.824l.027.063-.068.006-.329.028c-.226.015-.414.042-.633.039a.115.115,0,0,1-.083-.073.191.191,0,0,1-.005-.09c.01-.051.021-.088.031-.131l.057-.229a2.182,2.182,0,0,1,.136-.448,2.144,2.144,0,0,1-.066.463l-.045.232c-.017.078-.045.2,0,.186.161-.007.39-.034.6-.049l.329-.026-.041.069c-.138-.333-.256-.626-.336-.837A1.467,1.467,0,0,1,185.423,197.972Z" transform="translate(-184.866 -197.972)" fill="#e8505b"/></g></g><g transform="translate(8.975 34.353)"><path d="M150.9,281.256l14.343-.437,6.238,24.371-1.149,27.955h-7.592l.941-27.36-5.548-16.966.855,45.409-7.664.113-.808-42.683a47.628,47.628,0,0,1-.279-5.04Z" transform="translate(-150.207 -280.819)" fill="#263238"/><g transform="translate(5.144 7.395)"><path d="M170.8,304.63a2.755,2.755,0,0,1-.7-.042c-.432-.051-1.025-.142-1.675-.272s-1.233-.277-1.65-.4a2.751,2.751,0,0,1-.665-.233c.013-.047,1.054.205,2.349.465S170.809,304.582,170.8,304.63Z" transform="translate(-166.109 -303.681)" fill="#455a64"/></g><g transform="translate(12.381 50.709)"><path d="M196.159,437.662c0,.047-1.719.084-3.838.084s-3.839-.038-3.839-.084,1.718-.084,3.839-.084S196.159,437.616,196.159,437.662Z" transform="translate(-188.481 -437.578)" fill="#455a64"/></g><g transform="translate(1.266 52.146)"><path d="M161.57,442.105c0,.047-1.667.084-3.724.084s-3.724-.038-3.724-.084,1.667-.084,3.724-.084S161.57,442.059,161.57,442.105Z" transform="translate(-154.122 -442.021)" fill="#455a64"/></g><g transform="translate(6.985 7.79)"><path d="M172.543,349.224c-.047,0-.248-9.922-.45-22.159s-.328-22.164-.282-22.165.248,9.92.45,22.162S172.589,349.224,172.543,349.224Z" transform="translate(-171.801 -304.9)" fill="#455a64"/></g><g transform="translate(13.874 0.437)"><path d="M198.262,332.526a.782.782,0,0,1,0-.132l.007-.388c.01-.35.025-.85.043-1.49.045-1.3.11-3.171.19-5.477.177-4.632.422-11.015.691-18.067,0-.065.005-.13.008-.19l0,.024c-1.7-6.807-3.236-12.959-4.35-17.421l-1.3-5.277-.345-1.436-.085-.374a.735.735,0,0,1-.024-.129.82.82,0,0,1,.04.125l.1.37.375,1.428,1.35,5.264c1.127,4.458,2.68,10.606,4.4,17.409l0,.012v.012c0,.06-.005.125-.007.19-.289,7.05-.551,13.433-.74,18.064l-.244,5.474c-.032.639-.057,1.139-.075,1.488-.01.164-.018.292-.024.387A.757.757,0,0,1,198.262,332.526Z" transform="translate(-193.097 -282.171)" fill="#455a64"/></g><g transform="translate(13.118 24.47)"><path d="M194.205,356.475a8.811,8.811,0,0,1-1.677.374c-.7.12-1.3.2-1.563.217V357c.087.024.134.042.132.054s-.052.015-.143.011l-.2-.009.2-.057c.253-.074.848-.2,1.546-.317A8.808,8.808,0,0,1,194.205,356.475Z" transform="translate(-190.758 -356.463)" fill="#455a64"/></g><g transform="translate(13.407 25.133)"><path d="M194.665,358.793a23.383,23.383,0,0,1-3.013-.235,9.581,9.581,0,0,1,3.013.235Z" transform="translate(-191.652 -358.515)" fill="#455a64"/></g><g transform="translate(0.631)"><path d="M152.158,281.771a1.971,1.971,0,0,0,1.416.753,6.413,6.413,0,0,0,1.739-.033,90.245,90.245,0,0,0,11.251-1.673c-4.693.263-9.65.174-14.343.437,0,0-.04.323-.05.4" transform="translate(-152.158 -280.819)" opacity="0.2"/></g><g transform="translate(5.469 7.568)" opacity="0.2"><path d="M167.114,304.214l2.644,10.265-.185-9.832Z" transform="translate(-167.114 -304.214)"/></g></g></g></g></g></g></g></svg>