<svg xmlns="http://www.w3.org/2000/svg" xmlns:xlink="http://www.w3.org/1999/xlink" width="156.395" height="32" viewBox="0 0 156.395 32">
  <defs>
    <clipPath id="clip-path">
      <path id="Main" d="M15.707.246C7,.923,3.156,6.69,3.141,13.038a12.471,12.471,0,0,0,12.5,12.6,6.376,6.376,0,0,0,6.2-6.166,6.207,6.207,0,0,0-6.2-6.433c-4.254-.008-4.649.008-6.354,0a6.44,6.44,0,0,1,6.354-6.475A12.447,12.447,0,0,1,28.32,19.472c.045,9.567-9.144,12.765-12.3,12.765A16.019,16.019,0,0,1,5.809,3.874,15.054,15.054,0,0,1,15.707.246Z" transform="translate(0 -0.246)" fill="none" stroke="#707070" stroke-width="1"/>
    </clipPath>
    <clipPath id="clip-path-2">
      <path id="Main-2" data-name="Main" d="M28.349.2a15.883,15.883,0,0,1,16.382,15.98,15.837,15.837,0,0,1-5.214,11.805,16.507,16.507,0,0,1-11.168,4.205c2.475-.013,12.433-2.833,12.512-12.779S32.345,6.641,28.349,6.715a6.189,6.189,0,0,0-6.177,6.258c-.021,2.983,2.641,6.455,6.177,6.436s3.872-.009,6.2,0a6.119,6.119,0,0,1-6.124,6.378c-8.972-.213-12.738-7.387-12.784-12.822S18.95.312,28.349.2Z" transform="translate(-15.642 -0.196)" fill="none" stroke="#707070" stroke-width="1"/>
    </clipPath>
  </defs>
  <g id="Group_9682" data-name="Group 9682" transform="translate(-333 -802.775)">
    <g id="Group_9336" data-name="Group 9336" transform="translate(333 802.775)">
      <g id="Bottom" transform="translate(0 0.009)" clip-path="url(#clip-path)">
        <g id="Group_9333" data-name="Group 9333" transform="translate(-4.848 -0.07)">
          <path id="Path_8984" data-name="Path 8984" d="M85.028-.316a15.471,15.471,0,0,1,13.035,6.11c-1.711,1.7-4.9,5-8.694,8.734a7.078,7.078,0,0,0-4.356-1.894C85.008,5.323,85.021,7.212,85.028-.316Z" transform="translate(-64.52 0.323)" fill="#eb3a0f"/>
          <path id="Path_8985" data-name="Path 8985" d="M41.929-.067c.009,3.95-.031,12.936-.031,12.936s-7-7.079-9.549-9.655A16.3,16.3,0,0,1,41.929-.067Z" transform="translate(-21.404 0.079)" fill="#ff5b2e"/>
          <path id="Path_8986" data-name="Path 8986" d="M6.488,17.189C9.1,19.8,16.061,26.87,16.061,26.87S4.674,26.819.489,26.841C.77,22.295,5.23,18.035,6.488,17.189Z" transform="translate(4.451 -13.926)" fill="#3877f4"/>
          <path id="Path_8987" data-name="Path 8987" d="M.053,0C6.306.6,10.169,5.475,11.17,6.983c-1.711,1.7-2.9,2.965-6.693,6.7A7.457,7.457,0,0,0,.01,11.808C0,4.5-.025,7.562.053,0Z" transform="translate(7.899 25.732) rotate(-135)" fill="#ff8764"/>
          <path id="Path_8988" data-name="Path 8988" d="M.227,0A16.3,16.3,0,0,1,12.882,6.685C11.171,8.386,8.1,11.2,4.3,14.936a6.907,6.907,0,0,0-4.3-1.9C0,5.722.22,7.529.227,0Z" transform="translate(20.813 32.187) rotate(179)" fill="#ff5b2e"/>
          <path id="Path_8989" data-name="Path 8989" d="M9.77.015c.019,3.915-.07,12.94-.07,12.94S2.552,5.7,0,3.12A14.949,14.949,0,0,1,9.77.015Z" transform="translate(30.299 32.182) rotate(180)" fill="#ff4b13"/>
          <path id="Path_8990" data-name="Path 8990" d="M11.342.2c.009,3.95-.111,13.944-.111,13.944S2.552,5.33,0,2.754C3.348-.023,8.411-.3,11.342.2Z" transform="translate(38.483 21.239) rotate(135)" fill="#ff6940"/>
          <path id="Path_8991" data-name="Path 8991" d="M0,0A16.012,16.012,0,0,1,11.538,7.172c-1.711,1.7-3.231,3.26-7.028,7a6.382,6.382,0,0,0-4.482-1.76C.023,5.1-.006,7.529,0,0Z" transform="translate(33.538 6.07) rotate(45)" fill="#ff5b2e"/>
          <path id="Path_8992" data-name="Path 8992" d="M6.488,17.189C9.1,19.8,16.061,26.87,16.061,26.87S4.674,26.819.489,26.841C.77,22.295,5.23,18.035,6.488,17.189Z" transform="translate(4.451 -13.926)" fill="#ff5b2e"/>
          <path id="Path_8993" data-name="Path 8993" d="M44.784-.067c.009,3.95-.031,12.936-.031,12.936S38.42,6.5,35.868,3.926C38.659,1.715,41.842-.073,44.784-.067Z" transform="translate(-24.26 0.079)" fill="#d91a24"/>
          <path id="Path_8994" data-name="Path 8994" d="M21.826,20.889c2.608,2.615,8.844,8.984,8.844,8.984s-7.995-.05-12.18-.028C18.77,25.3,20.567,21.735,21.826,20.889Z" transform="translate(-10.157 -16.928)" fill="#bb0e25"/>
        </g>
      </g>
      <g id="Top" transform="translate(2.948)" clip-path="url(#clip-path-2)">
        <g id="Group_9334" data-name="Group 9334" transform="translate(-7.796 -0.061)">
          <path id="Path_8984-2" data-name="Path 8984" d="M85.028-.316a15.471,15.471,0,0,1,13.035,6.11c-1.711,1.7-4.9,5-8.694,8.734a7.078,7.078,0,0,0-4.356-1.894C85.008,5.323,85.021,7.212,85.028-.316Z" transform="translate(-64.52 0.323)" fill="#ff5b2e"/>
          <path id="Path_8985-2" data-name="Path 8985" d="M41.929-.067c.009,3.95-.031,12.936-.031,12.936s-7-7.079-9.549-9.655A16.3,16.3,0,0,1,41.929-.067Z" transform="translate(-21.404 0.079)" fill="#ff4b13"/>
          <path id="Path_8986-2" data-name="Path 8986" d="M6.488,17.189C9.1,19.8,16.061,26.87,16.061,26.87S4.674,26.819.489,26.841C.77,22.295,5.23,18.035,6.488,17.189Z" transform="translate(4.451 -13.926)" fill="#ff6940"/>
          <path id="Path_8987-2" data-name="Path 8987" d="M.053,0C6.306.6,10.169,5.475,11.17,6.983c-1.711,1.7-2.9,2.965-6.693,6.7A7.457,7.457,0,0,0,.01,11.808C0,4.5-.025,7.562.053,0Z" transform="translate(7.899 25.732) rotate(-135)" fill="#ff5b2e"/>
          <path id="Path_8988-2" data-name="Path 8988" d="M.227,0A16.3,16.3,0,0,1,12.882,6.685C11.171,8.386,8.1,11.2,4.3,14.936a6.907,6.907,0,0,0-4.3-1.9C0,5.722.22,7.529.227,0Z" transform="translate(20.813 32.187) rotate(179)" fill="#ff4b13"/>
          <path id="Path_8989-2" data-name="Path 8989" d="M9.735.016c.009,3.95,0,12.892,0,12.892S2.552,5.63,0,3.054A14.792,14.792,0,0,1,9.735.016Z" transform="translate(30.337 32.136) rotate(180)" fill="#ff6940"/>
          <path id="Path_8990-2" data-name="Path 8990" d="M11.3.2c.009,3.95-.068,13.95-.068,13.95S2.552,5.335,0,2.759C3.348-.019,8.368-.3,11.3.2Z" transform="translate(38.487 21.242) rotate(135)" fill="#ff8764"/>
          <path id="Path_8991-2" data-name="Path 8991" d="M0,0A16.012,16.012,0,0,1,11.538,7.172c-1.711,1.7-3.231,3.26-7.028,7a6.382,6.382,0,0,0-4.482-1.76C.023,5.1-.006,7.529,0,0Z" transform="translate(33.538 6.07) rotate(45)" fill="#ff7952"/>
          <path id="Path_8995" data-name="Path 8995" d="M8.651.107c.009,3.95-.084,12.3-.084,12.3S2.552,6.251,0,3.676C3.348.9,5.719-.4,8.651.107Z" transform="translate(35.366 21.89) rotate(135)" fill="#bb0e25"/>
          <path id="Path_8996" data-name="Path 8996" d="M8.675,0c.009,3.95,0,12.7,0,12.7S2.552,6.462,0,3.887A16.056,16.056,0,0,1,8.675,0Z" transform="translate(29.276 31.931) rotate(180)" fill="#d91a24"/>
        </g>
      </g>
    </g>
    <g id="Ember_Logo_-_Dark_-_Vertical" data-name="Ember Logo - Dark - Vertical" transform="translate(381.395 807.115)">
      <text id="Ember_Logo_Text" data-name="Ember Logo Text" transform="translate(54 19)" fill="#fff" font-size="20" font-family="Roboto-Light, Roboto" font-weight="300" letter-spacing="0.3em"><tspan x="-53.63" y="0">SITARRI</tspan></text>
    </g>
  </g>
</svg>
