<svg xmlns="http://www.w3.org/2000/svg" width="500" height="144.366" viewBox="0 0 500 144.366">
  <g id="Group_9321" data-name="Group 9321" transform="translate(-15.654 -16.919)">
    <g id="Group_9320" data-name="Group 9320" transform="translate(15.654 16.919)">
      <g id="Group_9319" data-name="Group 9319">
        <g id="Ember_Logo" data-name="Ember Logo" transform="translate(0 0)">
          <path id="Path_8974" data-name="Path 8974" d="M77.479,1.945c2.84-2.841,5.151-2.335,6.139,0l30.037,80.521a6.364,6.364,0,0,1,0,5.69L60.232,127.979s-3.481,1.979-6.139,0L.671,88.157a6.364,6.364,0,0,1,0-5.69Z" transform="translate(0 15.506)" fill="#ff9f0a" opacity="0.997"/>
          <path id="Path_8975" data-name="Path 8975" d="M37.16,1.945C40-.9,42.311-.39,43.3,1.945l70.356,96.028a6.364,6.364,0,0,1,0,5.69L60.232,143.486s-3.481,1.979-6.139,0L.671,103.664a6.364,6.364,0,0,1,0-5.69Z" transform="translate(0 0)" fill="#ff2800" opacity="0.997"/>
          <path id="Path_8976" data-name="Path 8976" d="M77.479,1.945c2.84-2.841,5.151-2.335,6.139,0l30.037,80.521a6.364,6.364,0,0,1,0,5.69L60.232,127.979s-3.481,1.979-6.139,0L.671,88.157a6.364,6.364,0,0,1,0-5.69Z" transform="translate(0 15.506)" fill="#ff9f0a" opacity="0.296"/>
        </g>
        <path id="Ember_Logo_Text" data-name="Ember Logo Text" d="M-6.362,27.068A7.833,7.833,0,0,0-9.187,20.7q-2.825-2.343-10.336-4.454t-10.968-4.6a10.865,10.865,0,0,1-4.919-9.24,10.825,10.825,0,0,1,4.57-9.024q4.57-3.473,11.682-3.473a19.378,19.378,0,0,1,8.625,1.861,14.114,14.114,0,0,1,5.9,5.185A13.619,13.619,0,0,1-2.54,4.368H-6.661a10.168,10.168,0,0,0-3.39-7.984q-3.39-3.017-9.107-3.017-5.55,0-8.841,2.48a7.738,7.738,0,0,0-3.29,6.474,7.324,7.324,0,0,0,2.958,6.026q2.958,2.33,9.472,4.111A44.521,44.521,0,0,1-8.988,16.15a14.069,14.069,0,0,1,5.052,4.57A11.434,11.434,0,0,1-2.241,27a10.938,10.938,0,0,1-4.57,9.173q-4.57,3.457-12.048,3.457A23.616,23.616,0,0,1-28.248,37.8a14.341,14.341,0,0,1-6.481-5.118,13.213,13.213,0,0,1-2.21-7.545h4.088a9.661,9.661,0,0,0,3.822,8.076q3.822,2.958,10.17,2.958a15.075,15.075,0,0,0,9.073-2.493A7.793,7.793,0,0,0-6.362,27.068Zm38.334,11.9H27.884V-9.425h4.088ZM97.393-5.969H80.809V38.966H76.721V-5.969H60.169V-9.425H97.393Zm51.728,31.341H127.153l-4.985,13.593H117.88L136.193-9.425h3.889l18.313,48.391H154.14Zm-20.706-3.457h19.41L138.12-4.44Zm75.592-3.124H189.948V38.966h-4.121V-9.425h15.721q7.744,0,12.1,3.751T218,4.816a13.1,13.1,0,0,1-2.725,8.2,13.936,13.936,0,0,1-7.312,4.913l12.1,20.6v.433h-4.354Zm-14.059-3.457h12.53a11.609,11.609,0,0,0,8.276-2.929,9.932,9.932,0,0,0,3.124-7.59,9.975,9.975,0,0,0-3.257-7.956q-3.257-2.829-9.14-2.829H189.948Zm77.685,3.457H253.575V38.966h-4.121V-9.425h15.721q7.744,0,12.1,3.751t4.354,10.49a13.1,13.1,0,0,1-2.725,8.2,13.936,13.936,0,0,1-7.312,4.913l12.1,20.6v.433h-4.354Zm-14.059-3.457H266.1a11.609,11.609,0,0,0,8.276-2.929,9.932,9.932,0,0,0,3.124-7.59,9.975,9.975,0,0,0-3.257-7.956q-3.257-2.829-9.14-2.829H253.575Zm64.591,23.631h-4.088V-9.425h4.088Z" transform="translate(181.834 55.927)" fill="#111212"/>
      </g>
    </g>
  </g>
</svg>
