<svg xmlns="http://www.w3.org/2000/svg" xmlns:xlink="http://www.w3.org/1999/xlink" width="251.653" height="62.276" viewBox="0 0 251.653 62.276">
  <defs>
    <clipPath id="clip-path">
      <path id="Main" d="M30.567.246C13.617,1.563,6.143,12.788,6.113,25.142A24.271,24.271,0,0,0,30.447,49.661a12.408,12.408,0,0,0,12.065-12,12.08,12.08,0,0,0-12.065-12.52c-8.28-.015-9.048.016-12.365,0-.022-4.306,3.033-12.314,12.365-12.6s24.581,6.5,24.668,25.121S37.321,62.5,31.174,62.5A31.175,31.175,0,0,1,11.3,7.307,29.3,29.3,0,0,1,30.567.246Z" transform="translate(0 -0.246)" fill="none" stroke="#707070" stroke-width="1"/>
    </clipPath>
    <clipPath id="clip-path-2">
      <path id="Main-2" data-name="Main" d="M40.372.2C58.664-.024,72.253,14.081,72.253,31.3A30.821,30.821,0,0,1,62.107,54.273a32.126,32.126,0,0,1-21.735,8.184c4.816-.026,24.2-5.513,24.35-24.869s-16.574-24.85-24.35-24.7A12.046,12.046,0,0,0,28.35,25.062c-.04,5.8,5.139,12.563,12.022,12.526s7.536-.018,12.068,0C52.321,44.732,47.551,49.808,40.522,50c-17.462-.414-24.79-14.375-24.88-24.953S22.08.421,40.372.2Z" transform="translate(-15.642 -0.196)" fill="none" stroke="#707070" stroke-width="1"/>
    </clipPath>
  </defs>
  <g id="Group_9691" data-name="Group 9691" transform="translate(-107.66 -931.371)">
    <g id="Ember_Logo_-_Dark_-_Vertical" data-name="Ember Logo - Dark - Vertical" transform="translate(182.313 945.931)">
      <text id="Ember_Logo_Text" data-name="Ember Logo Text" transform="translate(88 31)" font-size="33" font-family="Roboto-Light, Roboto" font-weight="300" letter-spacing="0.3em"><tspan x="-88.489" y="0">SITARRI</tspan></text>
    </g>
    <g id="Group_9419" data-name="Group 9419" transform="translate(107.66 931.371)">
      <g id="Bottom" transform="translate(0 0.018)" clip-path="url(#clip-path)">
        <g id="Group_9333" data-name="Group 9333" transform="translate(-9.435 -0.136)">
          <path id="Path_8984" data-name="Path 8984" d="M85.044-.31A30.108,30.108,0,0,1,110.411,11.58c-3.329,3.31-9.531,9.727-16.921,17a13.774,13.774,0,0,0-8.477-3.686C85,10.665,85.03,14.341,85.044-.31Z" transform="translate(-45.132 0.323)" fill="#eb3a0f"/>
          <path id="Path_8985" data-name="Path 8985" d="M50.993-.067c.018,7.688-.06,25.174-.06,25.174S37.316,11.329,32.349,6.317A31.727,31.727,0,0,1,50.993-.067Z" transform="translate(-11.05 0.089)" fill="#ff5b2e"/>
          <path id="Path_8986" data-name="Path 8986" d="M12.164,17.189c5.075,5.09,18.631,18.84,18.631,18.84s-22.161-.1-30.305-.055C1.035,27.125,9.715,18.836,12.164,17.189Z" transform="translate(9.125 -10.838)" fill="#3877f4"/>
          <path id="Path_8987" data-name="Path 8987" d="M.1,0C12.273,1.162,19.79,10.656,21.739,13.59,18.41,16.9,16.1,19.361,8.714,26.632a14.513,14.513,0,0,0-8.7-3.652C.009,8.753-.049,14.718.1,0Z" transform="translate(15.372 50.078) rotate(-135)" fill="#ff7952"/>
          <path id="Path_8988" data-name="Path 8988" d="M.442,0C16.052,1.074,22.933,10.162,25.07,13.009c-3.329,3.31-9.305,8.787-16.695,16.058A13.442,13.442,0,0,0,0,25.363C-.01,11.136.428,14.652.442,0Z" transform="translate(40.505 62.64) rotate(179)" fill="#ff5b2e"/>
          <path id="Path_8989" data-name="Path 8989" d="M19.013.03c.037,7.619-.136,25.182-.136,25.182S4.967,11.085,0,6.073A29.092,29.092,0,0,1,19.013.03Z" transform="translate(58.967 62.631) rotate(180)" fill="#ff4b13"/>
          <path id="Path_8990" data-name="Path 8990" d="M22.074.4c.018,7.688-.216,27.136-.216,27.136S4.967,10.372,0,5.36C6.516-.046,16.369-.582,22.074.4Z" transform="translate(74.894 41.334) rotate(135)" fill="#ff6940"/>
          <path id="Path_8991" data-name="Path 8991" d="M0,0A31.161,31.161,0,0,1,22.454,13.957c-3.329,3.31-6.288,6.344-13.678,13.615C6.787,25.7,4.795,24.532.054,24.147.044,9.919-.012,14.652,0,0Z" transform="translate(65.27 11.813) rotate(45)" fill="#ff5b2e"/>
          <path id="Path_8992" data-name="Path 8992" d="M12.164,17.189c5.075,5.09,18.631,18.84,18.631,18.84s-22.161-.1-30.305-.055C1.035,27.125,9.715,18.836,12.164,17.189Z" transform="translate(9.125 -10.838)" fill="#ff8764"/>
          <path id="Path_8993" data-name="Path 8993" d="M53.221-.067c.018,7.688-.06,25.174-.06,25.174S40.835,12.717,35.868,7.7C41.3,3.4,47.5-.078,53.221-.067Z" transform="translate(-13.278 0.089)" fill="#d91a24"/>
          <path id="Path_8994" data-name="Path 8994" d="M24.982,20.889c5.075,5.09,17.211,17.483,17.211,17.483s-15.559-.1-23.7-.055C19.035,29.468,22.533,22.536,24.982,20.889Z" transform="translate(-2.273 -13.181)" fill="#bb0e25"/>
        </g>
      </g>
      <g id="Top" transform="translate(5.737 0)" clip-path="url(#clip-path-2)">
        <g id="Group_9334" data-name="Group 9334" transform="translate(-15.172 -0.118)">
          <path id="Path_8984-2" data-name="Path 8984" d="M85.044-.31A30.108,30.108,0,0,1,110.411,11.58c-3.329,3.31-9.531,9.727-16.921,17a13.774,13.774,0,0,0-8.477-3.686C85,10.665,85.03,14.341,85.044-.31Z" transform="translate(-45.132 0.323)" fill="#ff5b2e"/>
          <path id="Path_8985-2" data-name="Path 8985" d="M50.993-.067c.018,7.688-.06,25.174-.06,25.174S37.316,11.329,32.349,6.317A31.727,31.727,0,0,1,50.993-.067Z" transform="translate(-11.05 0.089)" fill="#ff4b13"/>
          <path id="Path_8986-2" data-name="Path 8986" d="M12.164,17.189c5.075,5.09,18.631,18.84,18.631,18.84s-22.161-.1-30.305-.055C1.035,27.125,9.715,18.836,12.164,17.189Z" transform="translate(9.125 -10.838)" fill="#ff6940"/>
          <path id="Path_8987-2" data-name="Path 8987" d="M.1,0C12.273,1.162,19.79,10.656,21.739,13.59,18.41,16.9,16.1,19.361,8.714,26.632a14.513,14.513,0,0,0-8.7-3.652C.009,8.753-.049,14.718.1,0Z" transform="translate(15.372 50.078) rotate(-135)" fill="#ff5b2e"/>
          <path id="Path_8988-2" data-name="Path 8988" d="M.442,0C16.052,1.074,22.933,10.162,25.07,13.009c-3.329,3.31-9.305,8.787-16.695,16.058A13.442,13.442,0,0,0,0,25.363C-.01,11.136.428,14.652.442,0Z" transform="translate(40.505 62.64) rotate(179)" fill="#eb3a0f"/>
          <path id="Path_8989-2" data-name="Path 8989" d="M18.946.031c.018,7.688,0,25.09,0,25.09S4.967,10.957,0,5.944A28.788,28.788,0,0,1,18.946.031Z" transform="translate(59.04 62.541) rotate(180)" fill="#ff6940"/>
          <path id="Path_8990-2" data-name="Path 8990" d="M21.991.4c.018,7.688-.133,27.148-.133,27.148S4.967,10.382,0,5.369C6.516-.036,16.286-.583,21.991.4Z" transform="translate(74.901 41.341) rotate(135)" fill="#ff8764"/>
          <path id="Path_8991-2" data-name="Path 8991" d="M0,0A31.161,31.161,0,0,1,22.454,13.957c-3.329,3.31-6.288,6.344-13.678,13.615C6.787,25.7,4.795,24.532.054,24.147.044,9.919-.012,14.652,0,0Z" transform="translate(65.27 11.813) rotate(45)" fill="#ff7952"/>
          <path id="Path_8995" data-name="Path 8995" d="M16.835.207c.018,7.688-.164,23.934-.164,23.934S4.967,12.166,0,7.153C6.516,1.748,11.13-.772,16.835.207Z" transform="translate(68.827 42.602) rotate(135)" fill="#bb0e25"/>
          <path id="Path_8996" data-name="Path 8996" d="M16.882,0c.018,7.688,0,24.724,0,24.724S4.967,12.577,0,7.564C5.432,3.261,10.662.568,16.882,0Z" transform="translate(56.976 62.143) rotate(180)" fill="#d91a24"/>
        </g>
      </g>
    </g>
  </g>
</svg>
