<svg xmlns="http://www.w3.org/2000/svg" xmlns:xlink="http://www.w3.org/1999/xlink" width="115.548" height="29.007" viewBox="0 0 115.548 29.007">
  <defs>
    <clipPath id="clip-path">
      <path id="Main" d="M14.238.246c-7.9.613-11.377,5.842-11.391,11.6A11.306,11.306,0,0,0,14.182,23.265a5.78,5.78,0,0,0,5.62-5.59,5.627,5.627,0,0,0-5.62-5.832c-3.857-.007-4.215.007-5.76,0a5.838,5.838,0,0,1,5.76-5.869,11.283,11.283,0,0,1,11.491,11.7c.041,8.674-8.289,11.57-11.152,11.57A14.522,14.522,0,0,1,5.263,3.535,13.649,13.649,0,0,1,14.238.246Z" transform="translate(0.001 -0.245)" fill="none" stroke="#707070" stroke-width="1"/>
    </clipPath>
    <clipPath id="clip-path-2">
      <path id="Main-2" data-name="Main" d="M27.161.2A14.4,14.4,0,0,1,42.013,14.686a14.357,14.357,0,0,1-4.726,10.7A14.965,14.965,0,0,1,27.161,29.2C29.4,29.188,38.434,26.632,38.5,17.615S30.784,6.039,27.161,6.109a5.611,5.611,0,0,0-5.6,5.671c-.019,2.7,2.394,5.852,5.6,5.835s3.51-.008,5.622,0A5.547,5.547,0,0,1,27.231,23.4a11.518,11.518,0,0,1-11.59-11.624C15.6,6.845,18.641.3,27.161.2Z" transform="translate(-15.641 -0.197)" fill="none" stroke="#707070" stroke-width="1"/>
    </clipPath>
  </defs>
  <g id="Group_4" data-name="Group 4" transform="translate(169 -1777)">
    <g id="Group_9691" data-name="Group 9691" transform="translate(-276.659 845.628)">
      <g id="Ember_Logo_-_Dark_-_Vertical" data-name="Ember Logo - Dark - Vertical" transform="translate(142.207 938.154)">
        <text id="Ember_Logo_Text" data-name="Ember Logo Text" transform="translate(0 14)" font-size="15" font-family="Roboto-Light, Roboto" font-weight="300" letter-spacing="0.3em"><tspan x="0" y="0">SITARRI</tspan></text>
      </g>
      <g id="Group_9419" data-name="Group 9419" transform="translate(107.659 931.372)">
        <g id="Bottom" transform="translate(0 0.007)" clip-path="url(#clip-path)">
          <g id="Group_9333" data-name="Group 9333" transform="translate(-4.394 -0.072)">
            <path id="Path_8984" data-name="Path 8984" d="M85.026-.327A14.025,14.025,0,0,1,96.842,5.212c-1.551,1.542-4.44,4.531-7.882,7.919a6.416,6.416,0,0,0-3.949-1.717C85.005,4.786,85.019,6.5,85.026-.327Z" transform="translate(-66.434 0.341)" fill="#eb3a0f"/>
            <path id="Path_8985" data-name="Path 8985" d="M41.034-.067c.008,3.581-.028,11.727-.028,11.727s-6.343-6.418-8.657-8.753A14.779,14.779,0,0,1,41.034-.067Z" transform="translate(-22.427 0.086)" fill="#ff5b2e"/>
            <path id="Path_8986" data-name="Path 8986" d="M5.928,17.189c2.364,2.371,8.679,8.776,8.679,8.776S4.284,25.919.49,25.94C.744,21.817,4.787,17.956,5.928,17.189Z" transform="translate(3.989 -14.222)" fill="#3877f4"/>
            <path id="Path_8987" data-name="Path 8987" d="M.047,0c5.671.541,9.172,4.964,10.08,6.331C8.576,7.872,7.5,9.019,4.06,12.406A6.761,6.761,0,0,0,.007,10.7C0,4.077-.022,6.856.047,0Z" transform="translate(7.161 23.337) rotate(-135)" fill="#ff7952"/>
            <path id="Path_8988" data-name="Path 8988" d="M.206,0A14.773,14.773,0,0,1,11.678,6.06C10.128,7.6,7.344,10.153,3.9,13.54A6.262,6.262,0,0,0,0,11.815C0,5.187.2,6.825.206,0Z" transform="translate(18.868 29.188) rotate(179)" fill="#ff5b2e"/>
            <path id="Path_8989" data-name="Path 8989" d="M8.857.012c.017,3.549-.063,11.73-.063,11.73S2.314,5.162,0,2.827A13.552,13.552,0,0,1,8.857.012Z" transform="translate(27.468 29.182) rotate(180)" fill="#ff4b13"/>
            <path id="Path_8990" data-name="Path 8990" d="M10.283.186c.008,3.581-.1,12.641-.1,12.641S2.314,4.831,0,2.5C3.035-.022,7.625-.271,10.283.186Z" transform="translate(34.888 19.263) rotate(135)" fill="#ff6940"/>
            <path id="Path_8991" data-name="Path 8991" d="M0,0A14.516,14.516,0,0,1,10.46,6.5C8.91,8.043,7.531,9.457,4.089,12.844a5.775,5.775,0,0,0-4.063-1.6C.021,4.621,0,6.825,0,0Z" transform="translate(30.404 5.511) rotate(45)" fill="#ff5b2e"/>
            <path id="Path_8992" data-name="Path 8992" d="M5.928,17.189c2.364,2.371,8.679,8.776,8.679,8.776S4.284,25.919.49,25.94C.744,21.817,4.787,17.956,5.928,17.189Z" transform="translate(3.989 -14.222)" fill="#ff8764"/>
            <path id="Path_8993" data-name="Path 8993" d="M43.952-.067c.008,3.581-.028,11.727-.028,11.727s-5.742-5.772-8.056-8.109C38.4,1.548,41.287-.072,43.952-.067Z" transform="translate(-25.345 0.086)" fill="#d91a24"/>
            <path id="Path_8994" data-name="Path 8994" d="M21.516,20.889c2.364,2.371,8.017,8.144,8.017,8.144s-7.248-.047-11.04-.026C18.745,24.885,20.375,21.656,21.516,20.889Z" transform="translate(-10.937 -17.29)" fill="#bb0e25"/>
          </g>
        </g>
        <g id="Top" transform="translate(2.673 0)" clip-path="url(#clip-path-2)">
          <g id="Group_9334" data-name="Group 9334" transform="translate(-7.067 -0.064)">
            <path id="Path_8984-2" data-name="Path 8984" d="M85.026-.327A14.025,14.025,0,0,1,96.842,5.212c-1.551,1.542-4.44,4.531-7.882,7.919a6.416,6.416,0,0,0-3.949-1.717C85.005,4.786,85.019,6.5,85.026-.327Z" transform="translate(-66.434 0.341)" fill="#ff5b2e"/>
            <path id="Path_8985-2" data-name="Path 8985" d="M41.034-.067c.008,3.581-.028,11.727-.028,11.727s-6.343-6.418-8.657-8.753A14.779,14.779,0,0,1,41.034-.067Z" transform="translate(-22.427 0.086)" fill="#ff4b13"/>
            <path id="Path_8986-2" data-name="Path 8986" d="M5.928,17.189c2.364,2.371,8.679,8.776,8.679,8.776S4.284,25.919.49,25.94C.744,21.817,4.787,17.956,5.928,17.189Z" transform="translate(3.989 -14.222)" fill="#ff6940"/>
            <path id="Path_8987-2" data-name="Path 8987" d="M.047,0c5.671.541,9.172,4.964,10.08,6.331C8.576,7.872,7.5,9.019,4.06,12.406A6.761,6.761,0,0,0,.007,10.7C0,4.077-.022,6.856.047,0Z" transform="translate(7.161 23.337) rotate(-135)" fill="#ff5b2e"/>
            <path id="Path_8988-2" data-name="Path 8988" d="M.206,0A14.773,14.773,0,0,1,11.678,6.06C10.128,7.6,7.344,10.153,3.9,13.54A6.262,6.262,0,0,0,0,11.815C0,5.187.2,6.825.206,0Z" transform="translate(18.868 29.188) rotate(179)" fill="#eb3a0f"/>
            <path id="Path_8989-2" data-name="Path 8989" d="M8.826.016c.008,3.581,0,11.688,0,11.688S2.314,5.106,0,2.771A13.41,13.41,0,0,1,8.826.016Z" transform="translate(27.502 29.144) rotate(180)" fill="#ff6940"/>
            <path id="Path_8990-2" data-name="Path 8990" d="M10.244.186c.008,3.581-.062,12.646-.062,12.646S2.314,4.835,0,2.5C3.035-.018,7.586-.272,10.244.186Z" transform="translate(34.89 19.266) rotate(135)" fill="#ff8764"/>
            <path id="Path_8991-2" data-name="Path 8991" d="M0,0A14.516,14.516,0,0,1,10.46,6.5C8.91,8.043,7.531,9.457,4.089,12.844a5.775,5.775,0,0,0-4.063-1.6C.021,4.621,0,6.825,0,0Z" transform="translate(30.404 5.511) rotate(45)" fill="#ff7952"/>
            <path id="Path_8995" data-name="Path 8995" d="M7.842.1c.008,3.581-.076,11.149-.076,11.149S2.314,5.667,0,3.332C3.035.814,5.185-.36,7.842.1Z" transform="translate(32.062 19.854) rotate(135)" fill="#bb0e25"/>
            <path id="Path_8996" data-name="Path 8996" d="M7.864,0c.008,3.581,0,11.517,0,11.517S2.314,5.859,0,3.524A14.555,14.555,0,0,1,7.864,0Z" transform="translate(26.541 28.957) rotate(180)" fill="#d91a24"/>
          </g>
        </g>
      </g>
    </g>
  </g>
</svg>
