<svg xmlns="http://www.w3.org/2000/svg" xmlns:xlink="http://www.w3.org/1999/xlink" width="107" height="119.32" viewBox="0 0 107 119.32">
  <defs>
    <clipPath id="clip-path">
      <path id="Path_5077" data-name="Path 5077" d="M35.754.246c-19.827,1.54-28.57,14.671-28.6,29.121a28.388,28.388,0,0,0,28.465,28.68A14.514,14.514,0,0,0,49.726,44.015,14.131,14.131,0,0,0,35.614,29.37c-9.684-.018-10.583.018-14.463,0-.023-5.04,3.544-14.406,14.463-14.742s28.753,7.606,28.854,29.387-20.814,29.054-28,29.054A36.465,36.465,0,0,1,13.223,8.505,34.268,34.268,0,0,1,35.754.246Z" transform="translate(0.003 -0.245)" fill="none" stroke="#707070" stroke-width="1"/>
    </clipPath>
    <clipPath id="clip-path-2">
      <path id="Path_5088" data-name="Path 5088" d="M44.568.2C65.965-.061,81.86,16.437,81.86,36.576A36.051,36.051,0,0,1,69.992,63.45a37.577,37.577,0,0,1-25.427,9.573c5.633-.03,28.3-6.448,28.482-29.086s-19.39-29.066-28.482-28.9S30.553,22.492,30.507,29.285,36.518,43.98,44.568,43.937s8.815-.021,14.116,0c-.138,8.356-5.717,14.293-13.94,14.518-20.425-.487-29-16.822-29.1-29.191S23.172.459,44.568.2Z" transform="translate(-15.642 -0.197)" fill="none" stroke="#707070" stroke-width="1"/>
    </clipPath>
  </defs>
  <g id="sitarrri_logogg" data-name="sitarrri logogg" transform="translate(-13108 3017)">
    <g id="Sittari_Logo_Splash" transform="translate(12982.235 -3377.025)">
      <g id="Group_1617" data-name="Group 1617" transform="translate(142.779 366.025)">
        <g id="Group_1616" data-name="Group 1616" transform="translate(0 0)">
          <g id="Group_1613" data-name="Group 1613" transform="translate(0 0.02)" clip-path="url(#clip-path)">
            <g id="Group_1612" data-name="Group 1612" transform="translate(-11.033 -0.159)">
              <path id="Path_5066" data-name="Path 5066" d="M85.049-.308c18.6-.5,28.223,11.763,29.672,13.909-3.895,3.872-11.149,11.378-19.792,19.882a16.115,16.115,0,0,0-9.916-4.312C85,12.53,85.033,16.83,85.049-.308Z" transform="translate(-38.365 0.323)" fill="#eb3a0f"/>
              <path id="Path_5067" data-name="Path 5067" d="M54.157-.067c.022,8.993-.07,29.446-.07,29.446S38.158,13.263,32.349,7.4A37.111,37.111,0,0,1,54.157-.067Z" transform="translate(-7.435 0.093)" fill="#ff5b2e"/>
              <path id="Path_5068" data-name="Path 5068" d="M14.146,17.189c5.936,5.955,21.792,22.037,21.792,22.037S10.017,39.112.49,39.161C1.128,28.815,11.28,19.12,14.146,17.189Z" transform="translate(10.756 -9.761)" fill="#3877f4"/>
              <path id="Path_5069" data-name="Path 5069" d="M.122,0C14.36,1.359,23.148,12.464,25.427,15.9c-3.895,3.872-6.592,6.75-15.235,15.255C8.1,29.333,5.426,27.506.022,26.879.011,10.238-.058,17.215.122,0Z" transform="translate(17.98 58.575) rotate(-135)" fill="#ff7952"/>
              <path id="Path_5070" data-name="Path 5070" d="M.517,0C18.776,1.256,26.825,11.89,29.328,15.217,25.434,19.089,18.444,25.5,9.8,34A15.723,15.723,0,0,0,0,29.667C-.011,13.025.5,17.138.517,0Z" transform="translate(47.378 73.27) rotate(179)" fill="#ff5b2e"/>
              <path id="Path_5071" data-name="Path 5071" d="M22.239.03c.043,8.911-.159,29.451-.159,29.451S5.811,12.963,0,7.1A34.025,34.025,0,0,1,22.239.03Z" transform="translate(68.973 73.255) rotate(180)" fill="#ff4b13"/>
              <path id="Path_5072" data-name="Path 5072" d="M25.819.466c.022,8.993-.252,31.738-.252,31.738S5.811,12.133,0,6.269C7.622-.053,19.146-.681,25.819.466Z" transform="translate(87.603 48.348) rotate(135)" fill="#ff6940"/>
              <path id="Path_5073" data-name="Path 5073" d="M0,0A36.449,36.449,0,0,1,26.267,16.325c-3.895,3.872-7.356,7.42-16,15.925C7.94,30.065,5.61,28.7.065,28.244.054,11.6-.012,17.138,0,0Z" transform="translate(76.344 13.816) rotate(45)" fill="#ff5b2e"/>
              <path id="Path_5074" data-name="Path 5074" d="M14.146,17.189c5.936,5.955,21.792,22.037,21.792,22.037S10.017,39.112.49,39.161C1.128,28.815,11.28,19.12,14.146,17.189Z" transform="translate(10.756 -9.761)" fill="#ff8764"/>
              <path id="Path_5075" data-name="Path 5075" d="M56.166-.067c.022,8.993-.07,29.446-.07,29.446S41.678,14.886,35.868,9.024C42.222,3.99,49.469-.08,56.166-.067Z" transform="translate(-9.445 0.093)" fill="#d91a24"/>
              <path id="Path_5076" data-name="Path 5076" d="M26.084,20.889c5.936,5.955,20.128,20.45,20.128,20.45s-18.2-.114-27.726-.065C19.128,30.924,23.218,22.815,26.084,20.889Z" transform="translate(0.479 -11.873)" fill="#bb0e25"/>
            </g>
          </g>
          <g id="Group_1615" data-name="Group 1615" transform="translate(6.712 0)" clip-path="url(#clip-path-2)">
            <g id="Group_1614" data-name="Group 1614" transform="translate(-17.745 -0.139)">
              <path id="Path_5078" data-name="Path 5078" d="M85.049-.308c18.6-.5,28.223,11.763,29.672,13.909-3.895,3.872-11.149,11.378-19.792,19.882a16.115,16.115,0,0,0-9.916-4.312C85,12.53,85.033,16.83,85.049-.308Z" transform="translate(-38.365 0.323)" fill="#ff5b2e"/>
              <path id="Path_5079" data-name="Path 5079" d="M54.157-.067c.022,8.993-.07,29.446-.07,29.446S38.158,13.263,32.349,7.4A37.111,37.111,0,0,1,54.157-.067Z" transform="translate(-7.435 0.093)" fill="#ff4b13"/>
              <path id="Path_5080" data-name="Path 5080" d="M14.146,17.189c5.936,5.955,21.792,22.037,21.792,22.037S10.017,39.112.49,39.161C1.128,28.815,11.28,19.12,14.146,17.189Z" transform="translate(10.756 -9.761)" fill="#ff6940"/>
              <path id="Path_5081" data-name="Path 5081" d="M.122,0C14.36,1.359,23.148,12.464,25.427,15.9c-3.895,3.872-6.592,6.75-15.235,15.255C8.1,29.333,5.426,27.506.022,26.879.011,10.238-.058,17.215.122,0Z" transform="translate(17.98 58.575) rotate(-135)" fill="#ff5b2e"/>
              <path id="Path_5082" data-name="Path 5082" d="M.517,0C18.776,1.256,26.825,11.89,29.328,15.217,25.434,19.089,18.444,25.5,9.8,34A15.723,15.723,0,0,0,0,29.667C-.011,13.025.5,17.138.517,0Z" transform="translate(47.378 73.27) rotate(179)" fill="#eb3a0f"/>
              <path id="Path_5083" data-name="Path 5083" d="M22.161.041c.022,8.993.005,29.348.005,29.348S5.811,12.821,0,6.956A33.673,33.673,0,0,1,22.161.041Z" transform="translate(69.058 73.159) rotate(180)" fill="#ff6940"/>
              <path id="Path_5084" data-name="Path 5084" d="M25.722.464c.022,8.993-.155,31.754-.155,31.754S5.811,12.144,0,6.281C7.622-.042,19.049-.682,25.722.464Z" transform="translate(87.61 48.356) rotate(135)" fill="#ff8764"/>
              <path id="Path_5085" data-name="Path 5085" d="M0,0A36.449,36.449,0,0,1,26.267,16.325c-3.895,3.872-7.356,7.42-16,15.925C7.94,30.065,5.61,28.7.065,28.244.054,11.6-.012,17.138,0,0Z" transform="translate(76.344 13.816) rotate(45)" fill="#ff7952"/>
              <path id="Path_5086" data-name="Path 5086" d="M19.692.243c.022,8.993-.192,28-.192,28S5.811,14.23,0,8.367C7.622,2.044,13.019-.9,19.692.243Z" transform="translate(80.506 49.832) rotate(135)" fill="#bb0e25"/>
              <path id="Path_5087" data-name="Path 5087" d="M19.747,0c.022,8.993.005,28.919.005,28.919S5.811,14.711,0,8.847C6.354,3.814,12.471.665,19.747,0Z" transform="translate(66.644 72.688) rotate(180)" fill="#d91a24"/>
            </g>
          </g>
        </g>
      </g>
      <g id="Group_1619" data-name="Group 1619" transform="translate(133.765 453.204)">
        <g id="Group_1618" data-name="Group 1618" transform="translate(0 0)">
          <text id="SITARRI" transform="translate(0 16)" fill="#fff" font-size="17" font-family="Roboto-Light, Roboto" font-weight="300" letter-spacing="0.3em"><tspan x="0" y="0">SITARRI</tspan></text>
        </g>
      </g>
    </g>
    <rect id="Rectangle_222" data-name="Rectangle 222" width="107" height="119.32" transform="translate(13108 -3017)" fill="none"/>
  </g>
</svg>
