<svg xmlns="http://www.w3.org/2000/svg" xmlns:xlink="http://www.w3.org/1999/xlink" width="108" height="119.315" viewBox="0 0 108 119.315"><defs><clipPath id="a"><path d="M39.091.246C17.414,1.93,7.855,16.286,7.817,32.085s11.944,31.1,31.121,31.357A15.868,15.868,0,0,0,54.367,48.1c.485-6.518-4.841-15.992-15.429-16.012s-11.571.02-15.813,0C23.1,26.578,27,16.337,38.938,15.97S70.374,24.286,70.485,48.1,47.728,79.865,39.867,79.865A39.868,39.868,0,0,1,14.457,9.276,37.466,37.466,0,0,1,39.091.246Z" transform="translate(0 -0.246)" fill="none" stroke="#707070" stroke-width="1"/></clipPath><clipPath id="b"><path d="M47.268.2C70.661-.085,88.04,17.953,88.04,39.971A39.416,39.416,0,0,1,75.064,69.353a41.084,41.084,0,0,1-27.8,10.466c6.159-.033,30.944-7.05,31.14-31.8s-21.2-31.779-31.14-31.594S31.945,24.573,31.894,32s6.572,16.066,15.374,16.019,9.638-.023,15.433,0c-.151,9.136-6.251,15.627-15.241,15.873C25.129,63.36,15.757,45.5,15.643,31.977S23.875.484,47.268.2Z" transform="translate(-15.642 -0.196)" fill="none" stroke="#707070" stroke-width="1"/></clipPath></defs><g transform="translate(-133.395 -366.025)"><g transform="translate(8.336 -1455.738)"><g transform="translate(139.66 1821.762)"><g transform="translate(0 0.023)" clip-path="url(#a)"><g transform="translate(-12.066 -0.175)"><path d="M85.053-.307C105.388-.85,115.91,12.554,117.494,14.9c-4.258,4.233-12.189,12.44-21.639,21.738-2.284-1.988-4.933-4.028-10.841-4.714C85,13.729,85.035,18.431,85.053-.307Z" transform="translate(-34.011 0.323)" fill="#eb3a0f"/><path d="M56.192-.067c.024,9.832-.076,32.194-.076,32.194S38.7,14.507,32.349,8.1A40.574,40.574,0,0,1,56.192-.067Z" transform="translate(-5.11 0.095)" fill="#ff5b2e"/><path d="M15.42,17.189C21.91,23.7,39.246,41.283,39.246,41.283s-28.34-.125-38.756-.071C1.188,29.9,12.287,19.3,15.42,17.189Z" transform="translate(11.806 -9.068)" fill="#3877f4"/><path d="M.133,0C15.7,1.486,25.308,13.627,27.8,17.379c-4.258,4.233-7.207,7.38-16.657,16.679C8.86,32.07,5.932,30.073.024,29.388.012,11.193-.063,18.822.133,0Z" transform="translate(19.658 64.042) rotate(-135)" fill="#ff7952"/><path d="M.565,0c19.963,1.373,28.763,13,31.5,16.637-4.258,4.233-11.9,11.238-21.35,20.536A17.19,17.19,0,0,0,0,32.436C-.012,14.241.547,18.737.565,0Z" transform="translate(51.8 80.108) rotate(179)" fill="#ff5b2e"/><path d="M24.315.038c.047,9.743-.174,32.2-.174,32.2S6.353,14.177,0,7.766A37.2,37.2,0,0,1,24.315.038Z" transform="translate(75.41 80.096) rotate(180)" fill="#ff4b13"/><path d="M28.229.51c.024,9.832-.276,34.7-.276,34.7S6.353,13.265,0,6.854C8.333-.058,20.933-.744,28.229.51Z" transform="translate(95.779 52.86) rotate(135)" fill="#ff6940"/><path d="M0,0C18.173,2.529,26.13,14.071,28.716,17.849c-4.258,4.233-8.042,8.113-17.492,17.411C8.679,32.871,6.132,31.373.069,30.88.057,12.685-.015,18.737,0,0Z" transform="translate(83.471 15.107) rotate(45)" fill="#ff5b2e"/><path d="M15.42,17.189C21.91,23.7,39.246,41.283,39.246,41.283s-28.34-.125-38.756-.071C1.188,29.9,12.287,19.3,15.42,17.189Z" transform="translate(11.806 -9.068)" fill="#ff8764"/><path d="M58.06-.067c.024,9.832-.076,32.194-.076,32.194S42.22,16.282,35.868,9.872C42.815,4.369,50.738-.081,58.06-.067Z" transform="translate(-6.979 0.095)" fill="#d91a24"/><path d="M26.793,20.889C33.283,27.4,48.8,43.247,48.8,43.247s-19.9-.125-30.314-.071C19.188,31.86,23.66,22.995,26.793,20.889Z" transform="translate(2.249 -11.032)" fill="#bb0e25"/></g></g><g transform="translate(7.336 0)" clip-path="url(#b)"><g transform="translate(-19.402 -0.151)"><path d="M85.053-.307C105.388-.85,115.91,12.554,117.494,14.9c-4.258,4.233-12.189,12.44-21.639,21.738-2.284-1.988-4.933-4.028-10.841-4.714C85,13.729,85.035,18.431,85.053-.307Z" transform="translate(-34.011 0.323)" fill="#ff5b2e"/><path d="M56.192-.067c.024,9.832-.076,32.194-.076,32.194S38.7,14.507,32.349,8.1A40.574,40.574,0,0,1,56.192-.067Z" transform="translate(-5.11 0.095)" fill="#ff4b13"/><path d="M15.42,17.189C21.91,23.7,39.246,41.283,39.246,41.283s-28.34-.125-38.756-.071C1.188,29.9,12.287,19.3,15.42,17.189Z" transform="translate(11.806 -9.068)" fill="#ff6940"/><path d="M.133,0C15.7,1.486,25.308,13.627,27.8,17.379c-4.258,4.233-7.207,7.38-16.657,16.679C8.86,32.07,5.932,30.073.024,29.388.012,11.193-.063,18.822.133,0Z" transform="translate(19.658 64.042) rotate(-135)" fill="#ff5b2e"/><path d="M.565,0c19.963,1.373,28.763,13,31.5,16.637-4.258,4.233-11.9,11.238-21.35,20.536A17.19,17.19,0,0,0,0,32.436C-.012,14.241.547,18.737.565,0Z" transform="translate(51.8 80.108) rotate(179)" fill="#eb3a0f"/><path d="M24.229.04c.024,9.832.006,32.087.006,32.087S6.353,14.012,0,7.6A36.816,36.816,0,0,1,24.229.04Z" transform="translate(75.503 79.981) rotate(180)" fill="#ff6940"/><path d="M28.123.507c.024,9.832-.17,34.718-.17,34.718S6.353,13.277,0,6.867C8.333-.046,20.827-.746,28.123.507Z" transform="translate(95.787 52.869) rotate(135)" fill="#ff8764"/><path d="M0,0C18.173,2.529,26.13,14.071,28.716,17.849c-4.258,4.233-8.042,8.113-17.492,17.411C8.679,32.871,6.132,31.373.069,30.88.057,12.685-.015,18.737,0,0Z" transform="translate(83.471 15.107) rotate(45)" fill="#ff7952"/><path d="M21.53.265c.024,9.832-.21,30.608-.21,30.608S6.353,15.558,0,9.148C8.333,2.235,14.234-.988,21.53.265Z" transform="translate(88.02 54.482) rotate(135)" fill="#bb0e25"/><path d="M21.59,0c.024,9.832.006,31.618.006,31.618S6.353,16.084,0,9.673C6.947,4.17,13.635.727,21.59,0Z" transform="translate(72.864 79.472) rotate(180)" fill="#d91a24"/></g></g></g></g><g transform="translate(0 2)"><g transform="translate(133.395 459.34)"><text transform="translate(54 19)" fill="#fff" font-size="20" font-family="Roboto-Light, Roboto" font-weight="300" letter-spacing="0.3em"><tspan x="-53.63" y="0">SITARRI</tspan></text></g></g></g></svg>